<?xml version="1.0" encoding="utf-8" standalone="no"?><!DOCTYPE svg PUBLIC "-//W3C//DTD SVG 1.1//EN" "http://www.w3.org/Graphics/SVG/1.1/DTD/svg11.dtd">
<svg preserveAspectRatio="xMinYMin meet" width="100%" height="100%" viewBox="0 0 560.000 420.000"  version="1.1" xmlns="http://www.w3.org/2000/svg" xmlns:xlink="http://www.w3.org/1999/xlink">
  <desc>Matlab Figure Converted by PLOT2SVG written by Juerg Schwizer</desc>
  <g id="topgroup">
  <rect x="0" y="0" width="560.000" height="420.000" fill="#ffffff" stroke="none" />
  <g id ="ID000000">
  <clipPath id="ID000001">
    <rect x="72.800" y="31.500" width="434.000" height="342.300"/>
  </clipPath>
      <polygon fill="#ffffff" fill-opacity="1.00" stroke="none" stroke-width="0.5pt" stroke-opacity="1.00" stroke-dasharray="none" points="72.800,373.800 506.800,373.800 506.800,31.500 72.800,31.500 "/>
      <polygon fill="#ffffff" fill-opacity="1.00" stroke="none" stroke-width="0.5pt" stroke-opacity="1.00" stroke-dasharray="none" points="72.800,31.500 506.800,31.500 506.800,31.500 72.800,31.500 "/>
      <polygon fill="#ffffff" fill-opacity="1.00" stroke="none" stroke-width="0.5pt" stroke-opacity="1.00" stroke-dasharray="none" points="72.800,373.800 72.800,373.800 72.800,31.500 72.800,31.500 "/>
    <g>
<g id="ID000002" clip-path="url(#ID000001)" >
<g>
<circle cx="206.703" cy="202.650" r="1.000" fill="#0000ff" stroke="none" stroke-width="0.5pt" />
<circle cx="201.881" cy="202.650" r="1.000" fill="#0000ff" stroke="none" stroke-width="0.5pt" />
<circle cx="359.808" cy="202.650" r="1.000" fill="#0000ff" stroke="none" stroke-width="0.5pt" />
<circle cx="480.364" cy="202.650" r="1.000" fill="#0000ff" stroke="none" stroke-width="0.5pt" />
<circle cx="244.075" cy="202.650" r="1.000" fill="#0000ff" stroke="none" stroke-width="0.5pt" />
<circle cx="256.131" cy="202.650" r="1.000" fill="#0000ff" stroke="none" stroke-width="0.5pt" />
<circle cx="258.542" cy="202.650" r="1.000" fill="#0000ff" stroke="none" stroke-width="0.5pt" />
<circle cx="486.392" cy="202.650" r="1.000" fill="#0000ff" stroke="none" stroke-width="0.5pt" />
<circle cx="111.464" cy="202.650" r="1.000" fill="#0000ff" stroke="none" stroke-width="0.5pt" />
<circle cx="364.631" cy="202.650" r="1.000" fill="#0000ff" stroke="none" stroke-width="0.5pt" />
<circle cx="178.975" cy="202.650" r="1.000" fill="#0000ff" stroke="none" stroke-width="0.5pt" />
<circle cx="486.392" cy="202.650" r="1.000" fill="#0000ff" stroke="none" stroke-width="0.5pt" />
<circle cx="297.119" cy="202.650" r="1.000" fill="#0000ff" stroke="none" stroke-width="0.5pt" />
<circle cx="124.725" cy="202.650" r="1.000" fill="#0000ff" stroke="none" stroke-width="0.5pt" />
</g>
</g>
<g id="ID000003" >
  <g transform="translate(207.064,207.150)">
    <g transform="rotate(-0.0)">
      <text x="0.000" y="0.000" font-family="Helvetica" text-anchor="start" font-size="10pt" fill="#000000" >Bush</text>
    </g>
  </g>
</g>
<g id="ID000004" >
  <g transform="translate(202.242,207.150)">
    <g transform="rotate(-0.0)">
      <text x="0.000" y="0.000" font-family="Helvetica" text-anchor="start" font-size="10pt" fill="#000000" >Carson</text>
    </g>
  </g>
</g>
<g id="ID000005" >
  <g transform="translate(360.170,207.150)">
    <g transform="rotate(-0.0)">
      <text x="0.000" y="0.000" font-family="Helvetica" text-anchor="start" font-size="10pt" fill="#000000" >Christie</text>
    </g>
  </g>
</g>
<g id="ID000006" >
  <g transform="translate(480.726,207.150)">
    <g transform="rotate(-0.0)">
      <text x="0.000" y="0.000" font-family="Helvetica" text-anchor="start" font-size="10pt" fill="#000000" >Cruz</text>
    </g>
  </g>
</g>
<g id="ID000007" >
  <g transform="translate(244.437,207.150)">
    <g transform="rotate(-0.0)">
      <text x="0.000" y="0.000" font-family="Helvetica" text-anchor="start" font-size="10pt" fill="#000000" >Fiorina</text>
    </g>
  </g>
</g>
<g id="ID000008" >
  <g transform="translate(256.492,207.150)">
    <g transform="rotate(-0.0)">
      <text x="0.000" y="0.000" font-family="Helvetica" text-anchor="start" font-size="10pt" fill="#000000" >Graham</text>
    </g>
  </g>
</g>
<g id="ID000009" >
  <g transform="translate(258.903,207.150)">
    <g transform="rotate(-0.0)">
      <text x="0.000" y="0.000" font-family="Helvetica" text-anchor="start" font-size="10pt" fill="#000000" >Huckabee</text>
    </g>
  </g>
</g>
<g id="ID000010" >
  <g transform="translate(486.753,207.150)">
    <g transform="rotate(-0.0)">
      <text x="0.000" y="0.000" font-family="Helvetica" text-anchor="start" font-size="10pt" fill="#000000" >Jindal</text>
    </g>
  </g>
</g>
<g id="ID000011" >
  <g transform="translate(111.826,207.150)">
    <g transform="rotate(-0.0)">
      <text x="0.000" y="0.000" font-family="Helvetica" text-anchor="start" font-size="10pt" fill="#000000" >Pataki</text>
    </g>
  </g>
</g>
<g id="ID000012" >
  <g transform="translate(364.992,207.150)">
    <g transform="rotate(-0.0)">
      <text x="0.000" y="0.000" font-family="Helvetica" text-anchor="start" font-size="10pt" fill="#000000" >Paul</text>
    </g>
  </g>
</g>
<g id="ID000013" >
  <g transform="translate(179.337,207.150)">
    <g transform="rotate(-0.0)">
      <text x="0.000" y="0.000" font-family="Helvetica" text-anchor="start" font-size="10pt" fill="#000000" >Perry</text>
    </g>
  </g>
</g>
<g id="ID000014" >
  <g transform="translate(486.753,207.150)">
    <g transform="rotate(-0.0)">
      <text x="0.000" y="0.000" font-family="Helvetica" text-anchor="start" font-size="10pt" fill="#000000" >Rubio</text>
    </g>
  </g>
</g>
<g id="ID000015" >
  <g transform="translate(297.481,207.150)">
    <g transform="rotate(-0.0)">
      <text x="0.000" y="0.000" font-family="Helvetica" text-anchor="start" font-size="10pt" fill="#000000" >Santorum</text>
    </g>
  </g>
</g>
<g id="ID000016" >
  <g transform="translate(125.087,207.150)">
    <g transform="rotate(-0.0)">
      <text x="0.000" y="0.000" font-family="Helvetica" text-anchor="start" font-size="10pt" fill="#000000" >Trump</text>
    </g>
  </g>
</g>
<g id="ID000017" >
</g>
<g id="ID000018" >
</g>
<g id="ID000019" >
</g>
    </g>
    <g>
      <polyline fill="none" stroke="#000000" stroke-width="0.5pt" stroke-dasharray="none" points="145.133,373.800 145.133,369.460 "/>
      <polyline fill="none" stroke="#000000" stroke-width="0.5pt" stroke-dasharray="none" points="217.467,373.800 217.467,369.460 "/>
      <polyline fill="none" stroke="#000000" stroke-width="0.5pt" stroke-dasharray="none" points="289.800,373.800 289.800,369.460 "/>
      <polyline fill="none" stroke="#000000" stroke-width="0.5pt" stroke-dasharray="none" points="362.133,373.800 362.133,369.460 "/>
      <polyline fill="none" stroke="#000000" stroke-width="0.5pt" stroke-dasharray="none" points="434.467,373.800 434.467,369.460 "/>
      <polyline fill="none" stroke="#000000" stroke-width="0.5pt" stroke-dasharray="none" points="72.800,373.800 506.800,373.800 "/>
      <polyline fill="none" stroke="#000000" stroke-width="0.5pt" stroke-dasharray="none" points="145.133,31.500 145.133,35.840 "/>
      <polyline fill="none" stroke="#000000" stroke-width="0.5pt" stroke-dasharray="none" points="217.467,31.500 217.467,35.840 "/>
      <polyline fill="none" stroke="#000000" stroke-width="0.5pt" stroke-dasharray="none" points="289.800,31.500 289.800,35.840 "/>
      <polyline fill="none" stroke="#000000" stroke-width="0.5pt" stroke-dasharray="none" points="362.133,31.500 362.133,35.840 "/>
      <polyline fill="none" stroke="#000000" stroke-width="0.5pt" stroke-dasharray="none" points="434.467,31.500 434.467,35.840 "/>
      <polyline fill="none" stroke="#000000" stroke-width="0.5pt" stroke-dasharray="none" points="72.800,31.500 506.800,31.500 "/>
  <g transform="translate(72.800,392.446)">
    <g transform="rotate(-0.0)">
      <text x="0.000" y="0.000" font-family="Helvetica" text-anchor="middle" font-size="10pt" fill="#000000" >-15</text>
    </g>
  </g>
  <g transform="translate(145.133,392.446)">
    <g transform="rotate(-0.0)">
      <text x="0.000" y="0.000" font-family="Helvetica" text-anchor="middle" font-size="10pt" fill="#000000" >-10</text>
    </g>
  </g>
  <g transform="translate(217.467,392.446)">
    <g transform="rotate(-0.0)">
      <text x="0.000" y="0.000" font-family="Helvetica" text-anchor="middle" font-size="10pt" fill="#000000" >-5</text>
    </g>
  </g>
  <g transform="translate(289.800,392.446)">
    <g transform="rotate(-0.0)">
      <text x="0.000" y="0.000" font-family="Helvetica" text-anchor="middle" font-size="10pt" fill="#000000" >0</text>
    </g>
  </g>
  <g transform="translate(362.133,392.446)">
    <g transform="rotate(-0.0)">
      <text x="0.000" y="0.000" font-family="Helvetica" text-anchor="middle" font-size="10pt" fill="#000000" >5</text>
    </g>
  </g>
  <g transform="translate(434.467,392.446)">
    <g transform="rotate(-0.0)">
      <text x="0.000" y="0.000" font-family="Helvetica" text-anchor="middle" font-size="10pt" fill="#000000" >10</text>
    </g>
  </g>
  <g transform="translate(506.800,392.446)">
    <g transform="rotate(-0.0)">
      <text x="0.000" y="0.000" font-family="Helvetica" text-anchor="middle" font-size="10pt" fill="#000000" >15</text>
    </g>
  </g>
      <polyline fill="none" stroke="#000000" stroke-width="0.5pt" stroke-dasharray="none" points="72.800,339.570 77.140,339.570 "/>
      <polyline fill="none" stroke="#000000" stroke-width="0.5pt" stroke-dasharray="none" points="72.800,305.340 77.140,305.340 "/>
      <polyline fill="none" stroke="#000000" stroke-width="0.5pt" stroke-dasharray="none" points="72.800,271.110 77.140,271.110 "/>
      <polyline fill="none" stroke="#000000" stroke-width="0.5pt" stroke-dasharray="none" points="72.800,236.880 77.140,236.880 "/>
      <polyline fill="none" stroke="#000000" stroke-width="0.5pt" stroke-dasharray="none" points="72.800,202.650 77.140,202.650 "/>
      <polyline fill="none" stroke="#000000" stroke-width="0.5pt" stroke-dasharray="none" points="72.800,168.420 77.140,168.420 "/>
      <polyline fill="none" stroke="#000000" stroke-width="0.5pt" stroke-dasharray="none" points="72.800,134.190 77.140,134.190 "/>
      <polyline fill="none" stroke="#000000" stroke-width="0.5pt" stroke-dasharray="none" points="72.800,99.960 77.140,99.960 "/>
      <polyline fill="none" stroke="#000000" stroke-width="0.5pt" stroke-dasharray="none" points="72.800,65.730 77.140,65.730 "/>
      <polyline fill="none" stroke="#000000" stroke-width="0.5pt" stroke-dasharray="none" points="72.800,373.800 72.800,31.500 "/>
      <polyline fill="none" stroke="#000000" stroke-width="0.5pt" stroke-dasharray="none" points="506.800,339.570 502.460,339.570 "/>
      <polyline fill="none" stroke="#000000" stroke-width="0.5pt" stroke-dasharray="none" points="506.800,305.340 502.460,305.340 "/>
      <polyline fill="none" stroke="#000000" stroke-width="0.5pt" stroke-dasharray="none" points="506.800,271.110 502.460,271.110 "/>
      <polyline fill="none" stroke="#000000" stroke-width="0.5pt" stroke-dasharray="none" points="506.800,236.880 502.460,236.880 "/>
      <polyline fill="none" stroke="#000000" stroke-width="0.5pt" stroke-dasharray="none" points="506.800,202.650 502.460,202.650 "/>
      <polyline fill="none" stroke="#000000" stroke-width="0.5pt" stroke-dasharray="none" points="506.800,168.420 502.460,168.420 "/>
      <polyline fill="none" stroke="#000000" stroke-width="0.5pt" stroke-dasharray="none" points="506.800,134.190 502.460,134.190 "/>
      <polyline fill="none" stroke="#000000" stroke-width="0.5pt" stroke-dasharray="none" points="506.800,99.960 502.460,99.960 "/>
      <polyline fill="none" stroke="#000000" stroke-width="0.5pt" stroke-dasharray="none" points="506.800,65.730 502.460,65.730 "/>
      <polyline fill="none" stroke="#000000" stroke-width="0.5pt" stroke-dasharray="none" points="506.800,373.800 506.800,31.500 "/>
  <g transform="translate(64.120,378.300)">
    <g transform="rotate(-0.0)">
      <text x="0.000" y="0.000" font-family="Helvetica" text-anchor="end" font-size="10pt" fill="#000000" >-1</text>
    </g>
  </g>
  <g transform="translate(64.120,344.070)">
    <g transform="rotate(-0.0)">
      <text x="0.000" y="0.000" font-family="Helvetica" text-anchor="end" font-size="10pt" fill="#000000" >-0.8</text>
    </g>
  </g>
  <g transform="translate(64.120,309.840)">
    <g transform="rotate(-0.0)">
      <text x="0.000" y="0.000" font-family="Helvetica" text-anchor="end" font-size="10pt" fill="#000000" >-0.6</text>
    </g>
  </g>
  <g transform="translate(64.120,275.610)">
    <g transform="rotate(-0.0)">
      <text x="0.000" y="0.000" font-family="Helvetica" text-anchor="end" font-size="10pt" fill="#000000" >-0.4</text>
    </g>
  </g>
  <g transform="translate(64.120,241.380)">
    <g transform="rotate(-0.0)">
      <text x="0.000" y="0.000" font-family="Helvetica" text-anchor="end" font-size="10pt" fill="#000000" >-0.2</text>
    </g>
  </g>
  <g transform="translate(64.120,207.150)">
    <g transform="rotate(-0.0)">
      <text x="0.000" y="0.000" font-family="Helvetica" text-anchor="end" font-size="10pt" fill="#000000" >0</text>
    </g>
  </g>
  <g transform="translate(64.120,172.920)">
    <g transform="rotate(-0.0)">
      <text x="0.000" y="0.000" font-family="Helvetica" text-anchor="end" font-size="10pt" fill="#000000" >0.2</text>
    </g>
  </g>
  <g transform="translate(64.120,138.690)">
    <g transform="rotate(-0.0)">
      <text x="0.000" y="0.000" font-family="Helvetica" text-anchor="end" font-size="10pt" fill="#000000" >0.4</text>
    </g>
  </g>
  <g transform="translate(64.120,104.460)">
    <g transform="rotate(-0.0)">
      <text x="0.000" y="0.000" font-family="Helvetica" text-anchor="end" font-size="10pt" fill="#000000" >0.6</text>
    </g>
  </g>
  <g transform="translate(64.120,70.230)">
    <g transform="rotate(-0.0)">
      <text x="0.000" y="0.000" font-family="Helvetica" text-anchor="end" font-size="10pt" fill="#000000" >0.8</text>
    </g>
  </g>
  <g transform="translate(64.120,36.000)">
    <g transform="rotate(-0.0)">
      <text x="0.000" y="0.000" font-family="Helvetica" text-anchor="end" font-size="10pt" fill="#000000" >1</text>
    </g>
  </g>
      <polyline fill="none" stroke="#000000" stroke-width="0.5pt" stroke-dasharray="none" points="72.800,373.800 72.800,370.377 "/>
      <polyline fill="none" stroke="#000000" stroke-width="0.5pt" stroke-dasharray="none" points="72.800,373.800 72.800,373.800 "/>
    </g>
  </g>
  </g>
</svg>
