<?xml version="1.0" encoding="utf-8" standalone="no"?><!DOCTYPE svg PUBLIC "-//W3C//DTD SVG 1.1//EN" "http://www.w3.org/Graphics/SVG/1.1/DTD/svg11.dtd">
<svg preserveAspectRatio="xMinYMin meet" width="100%" height="100%" viewBox="0 0 1350.000 200.000"  version="1.1" xmlns="http://www.w3.org/2000/svg" xmlns:xlink="http://www.w3.org/1999/xlink">
  <desc>Matlab Figure Converted by PLOT2SVG written by Juerg Schwizer</desc>
  <g id="topgroup">
  <rect x="0" y="0" width="1350.000" height="200.000" fill="#ffffff" stroke="none" />
  <g id ="ID000000">
  <clipPath id="ID000001">
    <rect x="13.500" y="0.000" width="1336.500" height="200.000"/>
  </clipPath>
      <polygon fill="#ffffff" fill-opacity="1.00" stroke="none" stroke-width="1.5pt" stroke-opacity="1.00" stroke-dasharray="none" points="13.500,200.000 1350.000,200.000 1350.000,0.000 13.500,0.000 "/>
      <polygon fill="#ffffff" fill-opacity="1.00" stroke="none" stroke-width="1.5pt" stroke-opacity="1.00" stroke-dasharray="none" points="13.500,0.000 1350.000,0.000 1350.000,0.000 13.500,0.000 "/>
      <polygon fill="#ffffff" fill-opacity="1.00" stroke="none" stroke-width="1.5pt" stroke-opacity="1.00" stroke-dasharray="none" points="13.500,200.000 13.500,200.000 13.500,0.000 13.500,0.000 "/>
    <g>
<g id="ID000002" clip-path="url(#ID000001)" >
      <polyline fill="none" stroke="#00a000" stroke-width="1.5pt" stroke-dasharray="none" points="13.500,88.032 21.699,52.863 29.899,37.057 38.098,103.951 46.298,199.534 54.497,127.473 62.696,103.134 70.896,126.407 79.095,158.235 87.294,183.596 95.494,163.037 103.693,109.199 111.893,25.415 120.092,0.000 128.291,0.000 136.491,17.130 144.690,110.034 152.890,166.895 161.089,152.085 169.288,172.976 177.488,151.313 185.687,152.028 193.887,194.388 202.086,175.559 210.285,120.792 218.485,67.412 226.684,134.973 234.883,192.728 243.083,155.567 251.282,158.420 259.482,70.886 267.681,87.694 275.880,191.564 284.080,180.767 292.279,151.072 300.479,117.691 308.678,73.128 316.877,68.412 325.077,113.587 333.276,182.745 341.475,159.083 349.675,135.583 357.874,113.016 366.074,112.131 374.273,70.058 382.472,27.806 390.672,0.563 398.871,58.562 407.071,131.628 415.270,133.708 423.469,88.842 431.669,28.164 439.868,43.444 448.067,70.785 456.267,44.666 464.466,31.891 472.666,33.144 480.865,97.150 489.064,139.562 497.264,147.111 505.463,137.060 513.663,200.000 521.862,200.000 530.061,142.219 538.261,111.068 546.460,143.851 554.660,134.019 562.859,65.522 571.058,122.880 579.258,41.963 587.457,104.638 595.656,151.122 603.856,161.259 612.055,120.514 620.255,132.600 628.454,127.724 636.653,115.289 644.853,96.996 653.052,104.693 661.252,128.550 669.451,85.681 677.650,116.033 685.850,79.407 694.049,19.186 702.248,55.578 710.448,101.723 718.647,126.920 726.847,100.067 735.046,115.967 743.245,142.252 751.445,59.738 759.644,23.677 767.844,113.740 776.043,118.794 784.242,182.879 792.442,144.772 800.641,73.167 808.840,17.775 817.040,58.941 825.239,112.025 833.439,136.038 841.638,133.039 849.837,150.651 858.037,171.669 866.236,99.694 874.436,73.972 882.635,111.779 890.834,65.965 899.034,66.286 907.233,100.717 915.433,140.352 923.632,170.488 931.831,195.050 940.031,116.637 948.230,162.464 956.429,113.632 964.629,129.157 972.828,121.985 981.028,92.533 989.227,168.203 997.426,151.114 1005.626,124.628 1013.825,198.489 1022.025,173.789 1030.224,84.646 1038.423,80.692 1046.623,30.236 1054.822,138.277 1063.021,148.835 1071.221,195.978 1079.420,105.655 1087.620,45.650 1095.819,98.738 1104.018,198.714 1112.218,151.674 1120.417,122.190 1128.617,107.012 1136.816,75.069 1145.015,72.294 1153.215,154.988 1161.414,163.620 1169.613,181.809 1177.813,190.887 1186.012,175.700 1194.212,134.051 1202.411,40.869 1210.610,20.697 1218.810,52.951 1227.009,95.046 1235.209,186.121 1243.408,119.621 1251.607,161.407 1259.807,116.518 1268.006,92.224 1276.206,100.564 1284.405,129.631 1292.604,107.006 1300.804,37.032 1309.003,81.610 1317.202,164.097 1325.402,120.691 1333.601,118.471 1341.801,84.785 1350.000,78.205 "/>
<g>
</g>
</g>
<g id="ID000003" >
</g>
<g id="ID000004" >
</g>
<g id="ID000005" >
</g>
<g id="ID000006" >
      <polyline fill="none" stroke="#000000" stroke-width="1.5pt" stroke-dasharray="none" points="13.500,200.000 13.500,0.000 "/>
<g>
</g>
</g>
<g id="ID000007" >
      <polyline fill="none" stroke="#000000" stroke-width="1.5pt" stroke-dasharray="none" points="13.500,100.000 1350.000,100.000 "/>
<g>
</g>
</g>
    </g>
    <g>
      <polyline fill="none" stroke="#ffffff" stroke-width="1.5pt" stroke-dasharray="none" points="13.500,200.000 13.500,186.635 "/>
      <polyline fill="none" stroke="#ffffff" stroke-width="1.5pt" stroke-dasharray="none" points="825.239,200.000 825.239,186.635 "/>
      <polyline fill="none" stroke="#ffffff" stroke-width="1.5pt" stroke-dasharray="none" points="1350.000,200.000 1350.000,186.635 "/>
      <polyline fill="none" stroke="#ffffff" stroke-width="1.5pt" stroke-dasharray="none" points="13.500,200.000 1350.000,200.000 "/>
  <g transform="translate(13.500,215.800)">
    <g transform="rotate(-0.0)">
      <text x="0.000" y="0.000" font-family="Helvetica" text-anchor="middle" font-size="10pt" fill="#ffffff" >  1</text>
    </g>
  </g>
  <g transform="translate(825.239,215.800)">
    <g transform="rotate(-0.0)">
      <text x="0.000" y="0.000" font-family="Helvetica" text-anchor="middle" font-size="10pt" fill="#ffffff" >100</text>
    </g>
  </g>
  <g transform="translate(1350.000,215.800)">
    <g transform="rotate(-0.0)">
      <text x="0.000" y="0.000" font-family="Helvetica" text-anchor="middle" font-size="10pt" fill="#ffffff" >164</text>
    </g>
  </g>
      <polyline fill="none" stroke="#000000" stroke-width="1.5pt" stroke-dasharray="none" points="13.500,200.000 13.500,0.000 "/>
      <polyline fill="none" stroke="#000000" stroke-width="1.5pt" stroke-dasharray="none" points="13.500,200.000 13.500,198.000 "/>
      <polyline fill="none" stroke="#000000" stroke-width="1.5pt" stroke-dasharray="none" points="13.500,200.000 13.500,198.000 "/>
      <polyline fill="none" stroke="#000000" stroke-width="1.5pt" stroke-dasharray="none" points="13.500,200.000 13.500,198.000 "/>
      <polyline fill="none" stroke="#000000" stroke-width="1.5pt" stroke-dasharray="none" points="13.500,200.000 13.500,200.000 "/>
    </g>
  </g>
  </g>
</svg>
