<?xml version="1.0" encoding="utf-8" standalone="no"?><!DOCTYPE svg PUBLIC "-//W3C//DTD SVG 1.1//EN" "http://www.w3.org/Graphics/SVG/1.1/DTD/svg11.dtd">
<svg preserveAspectRatio="xMinYMin meet" width="100%" height="100%" viewBox="0 0 1350.000 200.000"  version="1.1" xmlns="http://www.w3.org/2000/svg" xmlns:xlink="http://www.w3.org/1999/xlink">
  <desc>Matlab Figure Converted by PLOT2SVG written by Juerg Schwizer</desc>
  <g id="topgroup">
  <rect x="0" y="0" width="1350.000" height="200.000" fill="#ffffff" stroke="none" />
  <g id ="ID000000">
  <clipPath id="ID000001">
    <rect x="13.500" y="0.000" width="1336.500" height="200.000"/>
  </clipPath>
      <polygon fill="#ffffff" fill-opacity="1.00" stroke="none" stroke-width="1.5pt" stroke-opacity="1.00" stroke-dasharray="none" points="13.500,200.000 1350.000,200.000 1350.000,0.000 13.500,0.000 "/>
      <polygon fill="#ffffff" fill-opacity="1.00" stroke="none" stroke-width="1.5pt" stroke-opacity="1.00" stroke-dasharray="none" points="13.500,0.000 1350.000,0.000 1350.000,0.000 13.500,0.000 "/>
      <polygon fill="#ffffff" fill-opacity="1.00" stroke="none" stroke-width="1.5pt" stroke-opacity="1.00" stroke-dasharray="none" points="13.500,200.000 13.500,200.000 13.500,0.000 13.500,0.000 "/>
    <g>
<g id="ID000002" clip-path="url(#ID000001)" >
      <polyline fill="none" stroke="#e09000" stroke-width="1.5pt" stroke-dasharray="none" points="13.500,200.000 21.699,137.574 29.899,64.801 38.098,0.000 46.298,0.000 54.497,9.800 62.696,68.377 70.896,126.651 79.095,72.433 87.294,81.741 95.494,151.376 103.693,132.269 111.893,128.928 120.092,199.775 128.291,159.607 136.491,132.625 144.690,135.117 152.890,160.244 161.089,154.623 169.288,95.556 177.488,101.927 185.687,125.780 193.887,110.142 202.086,93.057 210.285,94.631 218.485,114.777 226.684,167.741 234.883,139.349 243.083,127.240 251.282,103.217 259.482,200.000 267.681,141.283 275.880,66.205 284.080,12.172 292.279,10.399 300.479,78.959 308.678,116.849 316.877,194.289 325.077,154.806 333.276,135.095 341.475,116.073 349.675,108.967 357.874,95.066 366.074,95.737 374.273,85.417 382.472,100.177 390.672,165.298 398.871,147.613 407.071,76.091 415.270,107.057 423.469,109.339 431.669,144.253 439.868,73.113 448.067,96.909 456.267,105.271 464.466,121.736 472.666,177.174 480.865,197.227 489.064,171.837 497.264,97.054 505.463,81.434 513.663,67.179 521.862,87.838 530.061,50.963 538.261,111.965 546.460,114.285 554.660,114.937 562.859,106.779 571.058,106.962 579.258,125.685 587.457,108.003 595.656,115.128 603.856,97.325 612.055,111.505 620.255,80.096 628.454,118.771 636.653,154.421 644.853,172.892 653.052,131.327 661.252,109.384 669.451,90.657 677.650,63.181 685.850,102.688 694.049,118.308 702.248,82.323 710.448,82.170 718.647,135.714 726.847,168.897 735.046,138.153 743.245,124.690 751.445,177.291 759.644,150.541 767.844,88.628 776.043,50.496 784.242,63.839 792.442,106.590 800.641,189.376 808.840,193.891 817.040,120.327 825.239,61.238 833.439,69.471 841.638,134.912 849.837,81.604 858.037,31.713 866.236,24.992 874.436,64.401 882.635,147.191 890.834,163.680 899.034,134.670 907.233,95.530 915.433,82.320 923.632,86.172 931.831,111.223 940.031,115.280 948.230,129.891 956.429,157.829 964.629,183.418 972.828,179.750 981.028,125.919 989.227,84.263 997.426,65.478 1005.626,42.921 1013.825,89.633 1022.025,69.545 1030.224,129.181 1038.423,161.899 1046.623,151.232 1054.822,90.643 1063.021,97.546 1071.221,76.995 1079.420,102.482 1087.620,152.684 1095.819,76.919 1104.018,69.640 1112.218,3.391 1120.417,50.806 1128.617,45.569 1136.816,103.296 1145.015,115.742 1153.215,75.844 1161.414,35.466 1169.613,36.766 1177.813,101.996 1186.012,101.563 1194.212,141.722 1202.411,134.555 1210.610,147.734 1218.810,110.655 1227.009,109.965 1235.209,68.424 1243.408,143.710 1251.607,152.179 1259.807,126.224 1268.006,77.987 1276.206,68.179 1284.405,52.478 1292.604,133.917 1300.804,136.087 1309.003,120.673 1317.202,67.589 1325.402,118.839 1333.601,109.666 1341.801,162.997 1350.000,156.728 "/>
<g>
</g>
</g>
<g id="ID000003" >
</g>
<g id="ID000004" >
</g>
<g id="ID000005" >
</g>
<g id="ID000006" >
      <polyline fill="none" stroke="#000000" stroke-width="1.5pt" stroke-dasharray="none" points="13.500,200.000 13.500,0.000 "/>
<g>
</g>
</g>
<g id="ID000007" >
      <polyline fill="none" stroke="#000000" stroke-width="1.5pt" stroke-dasharray="none" points="13.500,100.000 1350.000,100.000 "/>
<g>
</g>
</g>
    </g>
    <g>
      <polyline fill="none" stroke="#ffffff" stroke-width="1.5pt" stroke-dasharray="none" points="13.500,200.000 13.500,186.635 "/>
      <polyline fill="none" stroke="#ffffff" stroke-width="1.5pt" stroke-dasharray="none" points="825.239,200.000 825.239,186.635 "/>
      <polyline fill="none" stroke="#ffffff" stroke-width="1.5pt" stroke-dasharray="none" points="1350.000,200.000 1350.000,186.635 "/>
      <polyline fill="none" stroke="#ffffff" stroke-width="1.5pt" stroke-dasharray="none" points="13.500,200.000 1350.000,200.000 "/>
  <g transform="translate(13.500,215.800)">
    <g transform="rotate(-0.0)">
      <text x="0.000" y="0.000" font-family="Helvetica" text-anchor="middle" font-size="10pt" fill="#ffffff" >  1</text>
    </g>
  </g>
  <g transform="translate(825.239,215.800)">
    <g transform="rotate(-0.0)">
      <text x="0.000" y="0.000" font-family="Helvetica" text-anchor="middle" font-size="10pt" fill="#ffffff" >100</text>
    </g>
  </g>
  <g transform="translate(1350.000,215.800)">
    <g transform="rotate(-0.0)">
      <text x="0.000" y="0.000" font-family="Helvetica" text-anchor="middle" font-size="10pt" fill="#ffffff" >164</text>
    </g>
  </g>
      <polyline fill="none" stroke="#000000" stroke-width="1.5pt" stroke-dasharray="none" points="13.500,200.000 13.500,0.000 "/>
      <polyline fill="none" stroke="#000000" stroke-width="1.5pt" stroke-dasharray="none" points="13.500,200.000 13.500,198.000 "/>
      <polyline fill="none" stroke="#000000" stroke-width="1.5pt" stroke-dasharray="none" points="13.500,200.000 13.500,198.000 "/>
      <polyline fill="none" stroke="#000000" stroke-width="1.5pt" stroke-dasharray="none" points="13.500,200.000 13.500,198.000 "/>
      <polyline fill="none" stroke="#000000" stroke-width="1.5pt" stroke-dasharray="none" points="13.500,200.000 13.500,200.000 "/>
    </g>
  </g>
  </g>
</svg>
