<?xml version="1.0" encoding="utf-8" standalone="no"?><!DOCTYPE svg PUBLIC "-//W3C//DTD SVG 1.1//EN" "http://www.w3.org/Graphics/SVG/1.1/DTD/svg11.dtd">
<svg preserveAspectRatio="xMinYMin meet" width="100%" height="100%" viewBox="0 0 1350.000 200.000"  version="1.1" xmlns="http://www.w3.org/2000/svg" xmlns:xlink="http://www.w3.org/1999/xlink">
  <desc>Matlab Figure Converted by PLOT2SVG written by Juerg Schwizer</desc>
  <g id="topgroup">
  <rect x="0" y="0" width="1350.000" height="200.000" fill="#ffffff" stroke="none" />
  <g id ="ID000000">
  <clipPath id="ID000001">
    <rect x="13.500" y="0.000" width="1336.500" height="200.000"/>
  </clipPath>
      <polygon fill="#ffffff" fill-opacity="1.00" stroke="none" stroke-width="1.5pt" stroke-opacity="1.00" stroke-dasharray="none" points="13.500,200.000 1350.000,200.000 1350.000,0.000 13.500,0.000 "/>
      <polygon fill="#ffffff" fill-opacity="1.00" stroke="none" stroke-width="1.5pt" stroke-opacity="1.00" stroke-dasharray="none" points="13.500,0.000 1350.000,0.000 1350.000,0.000 13.500,0.000 "/>
      <polygon fill="#ffffff" fill-opacity="1.00" stroke="none" stroke-width="1.5pt" stroke-opacity="1.00" stroke-dasharray="none" points="13.500,200.000 13.500,200.000 13.500,0.000 13.500,0.000 "/>
    <g>
<g id="ID000002" clip-path="url(#ID000001)" >
      <polyline fill="none" stroke="#00a000" stroke-width="1.5pt" stroke-dasharray="none" points="13.500,104.468 21.699,72.496 29.899,82.842 38.098,77.605 46.298,49.962 54.497,37.003 62.696,83.700 70.896,135.312 79.095,142.020 87.294,130.849 95.494,120.315 103.693,127.148 111.893,113.866 120.092,143.479 128.291,194.568 136.491,100.452 144.690,118.854 152.890,157.667 161.089,193.073 169.288,86.472 177.488,106.690 185.687,74.921 193.887,30.444 202.086,106.402 210.285,136.636 218.485,106.901 226.684,98.038 234.883,147.189 243.083,122.916 251.282,99.568 259.482,153.583 267.681,101.288 275.880,27.532 284.080,13.090 292.279,35.566 300.479,35.022 308.678,161.819 316.877,162.106 325.077,135.231 333.276,96.047 341.475,50.797 349.675,26.502 357.874,66.510 366.074,163.472 374.273,124.611 382.472,36.635 390.672,93.387 398.871,166.219 407.071,99.138 415.270,41.313 423.469,75.643 431.669,47.457 439.868,96.703 448.067,162.800 456.267,128.637 464.466,49.733 472.666,45.568 480.865,149.603 489.064,142.432 497.264,121.659 505.463,89.825 513.663,23.968 521.862,62.755 530.061,180.835 538.261,140.349 546.460,110.441 554.660,158.794 562.859,145.835 571.058,111.795 579.258,90.051 587.457,51.533 595.656,0.000 603.856,0.000 612.055,64.436 620.255,127.250 628.454,150.775 636.653,153.326 644.853,184.577 653.052,174.749 661.252,119.622 669.451,83.283 677.650,57.997 685.850,42.485 694.049,53.624 702.248,100.623 710.448,127.143 718.647,159.187 726.847,192.695 735.046,183.317 743.245,148.897 751.445,110.396 759.644,147.618 767.844,62.797 776.043,80.490 784.242,78.110 792.442,22.812 800.641,106.133 808.840,141.892 817.040,90.909 825.239,53.920 833.439,82.703 841.638,57.795 849.837,33.211 858.037,137.486 866.236,142.489 874.436,88.863 882.635,94.139 890.834,158.230 899.034,200.000 907.233,135.691 915.433,85.800 923.632,54.881 931.831,108.631 940.031,123.816 948.230,188.581 956.429,170.659 964.629,192.628 972.828,200.000 981.028,177.394 989.227,102.549 997.426,43.760 1005.626,32.417 1013.825,86.569 1022.025,99.943 1030.224,114.380 1038.423,73.797 1046.623,134.229 1054.822,150.065 1063.021,161.637 1071.221,135.294 1079.420,122.993 1087.620,57.465 1095.819,53.930 1104.018,104.892 1112.218,118.725 1120.417,108.716 1128.617,154.661 1136.816,138.019 1145.015,161.325 1153.215,108.746 1161.414,72.527 1169.613,54.769 1177.813,106.048 1186.012,119.702 1194.212,159.603 1202.411,162.575 1210.610,127.198 1218.810,143.461 1227.009,124.862 1235.209,101.308 1243.408,94.516 1251.607,106.976 1259.807,20.838 1268.006,89.385 1276.206,64.972 1284.405,42.852 1292.604,96.503 1300.804,157.527 1309.003,158.697 1317.202,113.575 1325.402,92.389 1333.601,62.328 1341.801,46.178 1350.000,143.519 "/>
<g>
</g>
</g>
<g id="ID000003" >
</g>
<g id="ID000004" >
</g>
<g id="ID000005" >
</g>
<g id="ID000006" >
      <polyline fill="none" stroke="#000000" stroke-width="1.5pt" stroke-dasharray="none" points="13.500,200.000 13.500,0.000 "/>
<g>
</g>
</g>
<g id="ID000007" >
      <polyline fill="none" stroke="#000000" stroke-width="1.5pt" stroke-dasharray="none" points="13.500,100.000 1350.000,100.000 "/>
<g>
</g>
</g>
    </g>
    <g>
      <polyline fill="none" stroke="#ffffff" stroke-width="1.5pt" stroke-dasharray="none" points="13.500,200.000 13.500,186.635 "/>
      <polyline fill="none" stroke="#ffffff" stroke-width="1.5pt" stroke-dasharray="none" points="825.239,200.000 825.239,186.635 "/>
      <polyline fill="none" stroke="#ffffff" stroke-width="1.5pt" stroke-dasharray="none" points="1350.000,200.000 1350.000,186.635 "/>
      <polyline fill="none" stroke="#ffffff" stroke-width="1.5pt" stroke-dasharray="none" points="13.500,200.000 1350.000,200.000 "/>
  <g transform="translate(13.500,215.800)">
    <g transform="rotate(-0.0)">
      <text x="0.000" y="0.000" font-family="Helvetica" text-anchor="middle" font-size="10pt" fill="#ffffff" >  1</text>
    </g>
  </g>
  <g transform="translate(825.239,215.800)">
    <g transform="rotate(-0.0)">
      <text x="0.000" y="0.000" font-family="Helvetica" text-anchor="middle" font-size="10pt" fill="#ffffff" >100</text>
    </g>
  </g>
  <g transform="translate(1350.000,215.800)">
    <g transform="rotate(-0.0)">
      <text x="0.000" y="0.000" font-family="Helvetica" text-anchor="middle" font-size="10pt" fill="#ffffff" >164</text>
    </g>
  </g>
      <polyline fill="none" stroke="#000000" stroke-width="1.5pt" stroke-dasharray="none" points="13.500,200.000 13.500,0.000 "/>
      <polyline fill="none" stroke="#000000" stroke-width="1.5pt" stroke-dasharray="none" points="13.500,200.000 13.500,198.000 "/>
      <polyline fill="none" stroke="#000000" stroke-width="1.5pt" stroke-dasharray="none" points="13.500,200.000 13.500,198.000 "/>
      <polyline fill="none" stroke="#000000" stroke-width="1.5pt" stroke-dasharray="none" points="13.500,200.000 13.500,198.000 "/>
      <polyline fill="none" stroke="#000000" stroke-width="1.5pt" stroke-dasharray="none" points="13.500,200.000 13.500,200.000 "/>
    </g>
  </g>
  </g>
</svg>
