<?xml version="1.0" encoding="utf-8" standalone="no"?><!DOCTYPE svg PUBLIC "-//W3C//DTD SVG 1.1//EN" "http://www.w3.org/Graphics/SVG/1.1/DTD/svg11.dtd">
<svg preserveAspectRatio="xMinYMin meet" width="100%" height="100%" viewBox="0 0 1350.000 200.000"  version="1.1" xmlns="http://www.w3.org/2000/svg" xmlns:xlink="http://www.w3.org/1999/xlink">
  <desc>Matlab Figure Converted by PLOT2SVG written by Juerg Schwizer</desc>
  <g id="topgroup">
  <rect x="0" y="0" width="1350.000" height="200.000" fill="#ffffff" stroke="none" />
  <g id ="ID000000">
  <clipPath id="ID000001">
    <rect x="13.500" y="0.000" width="1336.500" height="200.000"/>
  </clipPath>
      <polygon fill="#ffffff" fill-opacity="1.00" stroke="none" stroke-width="1.5pt" stroke-opacity="1.00" stroke-dasharray="none" points="13.500,200.000 1350.000,200.000 1350.000,0.000 13.500,0.000 "/>
      <polygon fill="#ffffff" fill-opacity="1.00" stroke="none" stroke-width="1.5pt" stroke-opacity="1.00" stroke-dasharray="none" points="13.500,0.000 1350.000,0.000 1350.000,0.000 13.500,0.000 "/>
      <polygon fill="#ffffff" fill-opacity="1.00" stroke="none" stroke-width="1.5pt" stroke-opacity="1.00" stroke-dasharray="none" points="13.500,200.000 13.500,200.000 13.500,0.000 13.500,0.000 "/>
    <g>
<g id="ID000002" clip-path="url(#ID000001)" >
      <polyline fill="none" stroke="#00a000" stroke-width="1.5pt" stroke-dasharray="none" points="13.500,94.340 21.699,105.348 29.899,89.202 38.098,141.481 46.298,167.659 54.497,177.988 62.696,157.597 70.896,152.907 79.095,94.655 87.294,123.677 95.494,53.245 103.693,47.182 111.893,108.760 120.092,37.440 128.291,53.132 136.491,36.736 144.690,87.293 152.890,114.949 161.089,82.348 169.288,58.268 177.488,98.900 185.687,73.361 193.887,86.937 202.086,169.831 210.285,128.652 218.485,107.952 226.684,148.495 234.883,172.869 243.083,106.274 251.282,138.696 259.482,89.530 267.681,113.124 275.880,130.129 284.080,138.686 292.279,124.643 300.479,119.170 308.678,134.115 316.877,87.948 325.077,83.654 333.276,123.362 341.475,118.724 349.675,56.443 357.874,0.000 366.074,45.424 374.273,47.827 382.472,95.169 390.672,104.646 398.871,104.196 407.071,98.056 415.270,113.692 423.469,127.604 431.669,63.226 439.868,107.044 448.067,90.409 456.267,109.829 464.466,107.012 472.666,117.869 480.865,84.392 489.064,25.656 497.264,110.022 505.463,123.380 513.663,175.650 521.862,165.394 530.061,153.931 538.261,136.111 546.460,167.654 554.660,132.140 562.859,69.432 571.058,86.343 579.258,78.293 587.457,91.515 595.656,53.985 603.856,61.439 612.055,76.913 620.255,150.156 628.454,141.354 636.653,122.130 644.853,115.353 653.052,83.705 661.252,56.565 669.451,82.066 677.650,90.088 685.850,47.675 694.049,63.650 702.248,49.366 710.448,101.778 718.647,136.447 726.847,36.570 735.046,20.794 743.245,90.670 751.445,143.553 759.644,150.970 767.844,138.784 776.043,187.837 784.242,152.841 792.442,140.432 800.641,137.482 808.840,109.605 817.040,65.313 825.239,108.418 833.439,132.698 841.638,75.889 849.837,62.631 858.037,150.008 866.236,112.895 874.436,95.038 882.635,50.447 890.834,75.058 899.034,50.833 907.233,70.316 915.433,114.273 923.632,104.538 931.831,103.080 940.031,55.443 948.230,86.727 956.429,61.654 964.629,90.060 972.828,81.045 981.028,59.169 989.227,123.687 997.426,125.002 1005.626,82.048 1013.825,145.664 1022.025,150.534 1030.224,129.692 1038.423,170.215 1046.623,200.000 1054.822,185.347 1063.021,48.951 1071.221,106.005 1079.420,96.455 1087.620,77.280 1095.819,40.471 1104.018,55.562 1112.218,104.264 1120.417,140.455 1128.617,177.830 1136.816,147.346 1145.015,96.071 1153.215,103.714 1161.414,119.132 1169.613,83.232 1177.813,48.319 1186.012,80.004 1194.212,0.000 1202.411,44.847 1210.610,100.554 1218.810,100.109 1227.009,43.657 1235.209,116.869 1243.408,131.722 1251.607,116.039 1259.807,122.020 1268.006,200.000 1276.206,196.333 1284.405,185.120 1292.604,181.981 1300.804,124.511 1309.003,73.487 1317.202,47.161 1325.402,61.581 1333.601,84.972 1341.801,93.223 1350.000,82.007 "/>
<g>
</g>
</g>
<g id="ID000003" >
</g>
<g id="ID000004" >
</g>
<g id="ID000005" >
</g>
<g id="ID000006" >
      <polyline fill="none" stroke="#000000" stroke-width="1.5pt" stroke-dasharray="none" points="13.500,200.000 13.500,0.000 "/>
<g>
</g>
</g>
<g id="ID000007" >
      <polyline fill="none" stroke="#000000" stroke-width="1.5pt" stroke-dasharray="none" points="13.500,100.000 1350.000,100.000 "/>
<g>
</g>
</g>
    </g>
    <g>
      <polyline fill="none" stroke="#ffffff" stroke-width="1.5pt" stroke-dasharray="none" points="13.500,200.000 13.500,186.635 "/>
      <polyline fill="none" stroke="#ffffff" stroke-width="1.5pt" stroke-dasharray="none" points="825.239,200.000 825.239,186.635 "/>
      <polyline fill="none" stroke="#ffffff" stroke-width="1.5pt" stroke-dasharray="none" points="1350.000,200.000 1350.000,186.635 "/>
      <polyline fill="none" stroke="#ffffff" stroke-width="1.5pt" stroke-dasharray="none" points="13.500,200.000 1350.000,200.000 "/>
  <g transform="translate(13.500,215.800)">
    <g transform="rotate(-0.0)">
      <text x="0.000" y="0.000" font-family="Helvetica" text-anchor="middle" font-size="10pt" fill="#ffffff" >  1</text>
    </g>
  </g>
  <g transform="translate(825.239,215.800)">
    <g transform="rotate(-0.0)">
      <text x="0.000" y="0.000" font-family="Helvetica" text-anchor="middle" font-size="10pt" fill="#ffffff" >100</text>
    </g>
  </g>
  <g transform="translate(1350.000,215.800)">
    <g transform="rotate(-0.0)">
      <text x="0.000" y="0.000" font-family="Helvetica" text-anchor="middle" font-size="10pt" fill="#ffffff" >164</text>
    </g>
  </g>
      <polyline fill="none" stroke="#000000" stroke-width="1.5pt" stroke-dasharray="none" points="13.500,200.000 13.500,0.000 "/>
      <polyline fill="none" stroke="#000000" stroke-width="1.5pt" stroke-dasharray="none" points="13.500,200.000 13.500,198.000 "/>
      <polyline fill="none" stroke="#000000" stroke-width="1.5pt" stroke-dasharray="none" points="13.500,200.000 13.500,198.000 "/>
      <polyline fill="none" stroke="#000000" stroke-width="1.5pt" stroke-dasharray="none" points="13.500,200.000 13.500,198.000 "/>
      <polyline fill="none" stroke="#000000" stroke-width="1.5pt" stroke-dasharray="none" points="13.500,200.000 13.500,200.000 "/>
    </g>
  </g>
  </g>
</svg>
