<?xml version="1.0" encoding="utf-8" standalone="no"?><!DOCTYPE svg PUBLIC "-//W3C//DTD SVG 1.1//EN" "http://www.w3.org/Graphics/SVG/1.1/DTD/svg11.dtd">
<svg preserveAspectRatio="xMinYMin meet" width="100%" height="100%" viewBox="0 0 1350.000 200.000"  version="1.1" xmlns="http://www.w3.org/2000/svg" xmlns:xlink="http://www.w3.org/1999/xlink">
  <desc>Matlab Figure Converted by PLOT2SVG written by Juerg Schwizer</desc>
  <g id="topgroup">
  <rect x="0" y="0" width="1350.000" height="200.000" fill="#ffffff" stroke="none" />
  <g id ="ID000000">
  <clipPath id="ID000001">
    <rect x="13.500" y="0.000" width="1336.500" height="200.000"/>
  </clipPath>
      <polygon fill="#ffffff" fill-opacity="1.00" stroke="none" stroke-width="1.5pt" stroke-opacity="1.00" stroke-dasharray="none" points="13.500,200.000 1350.000,200.000 1350.000,0.000 13.500,0.000 "/>
      <polygon fill="#ffffff" fill-opacity="1.00" stroke="none" stroke-width="1.5pt" stroke-opacity="1.00" stroke-dasharray="none" points="13.500,0.000 1350.000,0.000 1350.000,0.000 13.500,0.000 "/>
      <polygon fill="#ffffff" fill-opacity="1.00" stroke="none" stroke-width="1.5pt" stroke-opacity="1.00" stroke-dasharray="none" points="13.500,200.000 13.500,200.000 13.500,0.000 13.500,0.000 "/>
    <g>
<g id="ID000002" clip-path="url(#ID000001)" >
      <polyline fill="none" stroke="#00a000" stroke-width="1.5pt" stroke-dasharray="none" points="13.500,192.366 21.699,200.000 29.899,189.329 38.098,155.820 46.298,114.798 54.497,150.277 62.696,174.194 70.896,106.325 79.095,106.975 87.294,93.340 95.494,121.351 103.693,152.377 111.893,48.546 120.092,2.692 128.291,12.594 136.491,0.000 144.690,69.167 152.890,47.490 161.089,0.000 169.288,11.452 177.488,85.751 185.687,150.723 193.887,92.010 202.086,56.390 210.285,105.534 218.485,126.974 226.684,97.327 234.883,67.113 243.083,55.254 251.282,123.032 259.482,136.728 267.681,152.889 275.880,105.681 284.080,51.403 292.279,87.475 300.479,54.249 308.678,121.814 316.877,114.222 325.077,89.701 333.276,44.357 341.475,118.632 349.675,148.742 357.874,140.329 366.074,118.514 374.273,101.917 382.472,123.073 390.672,143.502 398.871,100.882 407.071,59.604 415.270,46.439 423.469,130.895 431.669,179.028 439.868,160.768 448.067,82.413 456.267,128.933 464.466,171.814 472.666,89.717 480.865,118.358 489.064,52.394 497.264,91.108 505.463,121.997 513.663,142.843 521.862,144.825 530.061,67.007 538.261,71.086 546.460,58.531 554.660,107.404 562.859,97.005 571.058,113.545 579.258,58.015 587.457,74.944 595.656,133.476 603.856,170.257 612.055,79.349 620.255,25.596 628.454,46.821 636.653,45.753 644.853,121.503 653.052,98.842 661.252,75.665 669.451,77.517 677.650,136.469 685.850,126.052 694.049,121.868 702.248,116.668 710.448,99.274 718.647,125.601 726.847,129.827 735.046,103.070 743.245,79.059 751.445,108.730 759.644,172.458 767.844,115.537 776.043,76.305 784.242,94.903 792.442,100.271 800.641,151.037 808.840,161.039 817.040,70.796 825.239,64.416 833.439,104.348 841.638,164.693 849.837,95.663 858.037,108.858 866.236,131.646 874.436,200.000 882.635,179.874 890.834,131.142 899.034,106.584 907.233,42.446 915.433,39.716 923.632,79.632 931.831,169.637 940.031,159.185 948.230,162.667 956.429,94.410 964.629,64.345 972.828,65.934 981.028,99.767 989.227,74.979 997.426,96.109 1005.626,134.440 1013.825,75.176 1022.025,82.931 1030.224,145.480 1038.423,123.798 1046.623,86.583 1054.822,64.353 1063.021,43.982 1071.221,46.257 1079.420,134.641 1087.620,188.008 1095.819,157.181 1104.018,99.830 1112.218,124.051 1120.417,89.091 1128.617,124.361 1136.816,124.658 1145.015,89.447 1153.215,62.790 1161.414,113.009 1169.613,180.428 1177.813,102.253 1186.012,129.748 1194.212,115.370 1202.411,87.213 1210.610,65.651 1218.810,95.422 1227.009,83.163 1235.209,97.146 1243.408,68.253 1251.607,172.694 1259.807,128.391 1268.006,70.667 1276.206,55.613 1284.405,75.223 1292.604,118.215 1300.804,166.535 1309.003,111.355 1317.202,75.197 1325.402,97.874 1333.601,124.655 1341.801,87.242 1350.000,115.168 "/>
<g>
</g>
</g>
<g id="ID000003" >
</g>
<g id="ID000004" >
</g>
<g id="ID000005" >
</g>
<g id="ID000006" >
      <polyline fill="none" stroke="#000000" stroke-width="1.5pt" stroke-dasharray="none" points="13.500,200.000 13.500,0.000 "/>
<g>
</g>
</g>
<g id="ID000007" >
      <polyline fill="none" stroke="#000000" stroke-width="1.5pt" stroke-dasharray="none" points="13.500,100.000 1350.000,100.000 "/>
<g>
</g>
</g>
    </g>
    <g>
      <polyline fill="none" stroke="#ffffff" stroke-width="1.5pt" stroke-dasharray="none" points="13.500,200.000 13.500,186.635 "/>
      <polyline fill="none" stroke="#ffffff" stroke-width="1.5pt" stroke-dasharray="none" points="825.239,200.000 825.239,186.635 "/>
      <polyline fill="none" stroke="#ffffff" stroke-width="1.5pt" stroke-dasharray="none" points="1350.000,200.000 1350.000,186.635 "/>
      <polyline fill="none" stroke="#ffffff" stroke-width="1.5pt" stroke-dasharray="none" points="13.500,200.000 1350.000,200.000 "/>
  <g transform="translate(13.500,215.800)">
    <g transform="rotate(-0.0)">
      <text x="0.000" y="0.000" font-family="Helvetica" text-anchor="middle" font-size="10pt" fill="#ffffff" >  1</text>
    </g>
  </g>
  <g transform="translate(825.239,215.800)">
    <g transform="rotate(-0.0)">
      <text x="0.000" y="0.000" font-family="Helvetica" text-anchor="middle" font-size="10pt" fill="#ffffff" >100</text>
    </g>
  </g>
  <g transform="translate(1350.000,215.800)">
    <g transform="rotate(-0.0)">
      <text x="0.000" y="0.000" font-family="Helvetica" text-anchor="middle" font-size="10pt" fill="#ffffff" >164</text>
    </g>
  </g>
      <polyline fill="none" stroke="#000000" stroke-width="1.5pt" stroke-dasharray="none" points="13.500,200.000 13.500,0.000 "/>
      <polyline fill="none" stroke="#000000" stroke-width="1.5pt" stroke-dasharray="none" points="13.500,200.000 13.500,198.000 "/>
      <polyline fill="none" stroke="#000000" stroke-width="1.5pt" stroke-dasharray="none" points="13.500,200.000 13.500,198.000 "/>
      <polyline fill="none" stroke="#000000" stroke-width="1.5pt" stroke-dasharray="none" points="13.500,200.000 13.500,198.000 "/>
      <polyline fill="none" stroke="#000000" stroke-width="1.5pt" stroke-dasharray="none" points="13.500,200.000 13.500,200.000 "/>
    </g>
  </g>
  </g>
</svg>
