<?xml version="1.0" encoding="utf-8" standalone="no"?><!DOCTYPE svg PUBLIC "-//W3C//DTD SVG 1.1//EN" "http://www.w3.org/Graphics/SVG/1.1/DTD/svg11.dtd">
<svg preserveAspectRatio="xMinYMin meet" width="100%" height="100%" viewBox="0 0 1350.000 200.000"  version="1.1" xmlns="http://www.w3.org/2000/svg" xmlns:xlink="http://www.w3.org/1999/xlink">
  <desc>Matlab Figure Converted by PLOT2SVG written by Juerg Schwizer</desc>
  <g id="topgroup">
  <rect x="0" y="0" width="1350.000" height="200.000" fill="#ffffff" stroke="none" />
  <g id ="ID000000">
  <clipPath id="ID000001">
    <rect x="13.500" y="0.000" width="1336.500" height="200.000"/>
  </clipPath>
      <polygon fill="#ffffff" fill-opacity="1.00" stroke="none" stroke-width="1.5pt" stroke-opacity="1.00" stroke-dasharray="none" points="13.500,200.000 1350.000,200.000 1350.000,0.000 13.500,0.000 "/>
      <polygon fill="#ffffff" fill-opacity="1.00" stroke="none" stroke-width="1.5pt" stroke-opacity="1.00" stroke-dasharray="none" points="13.500,0.000 1350.000,0.000 1350.000,0.000 13.500,0.000 "/>
      <polygon fill="#ffffff" fill-opacity="1.00" stroke="none" stroke-width="1.5pt" stroke-opacity="1.00" stroke-dasharray="none" points="13.500,200.000 13.500,200.000 13.500,0.000 13.500,0.000 "/>
    <g>
<g id="ID000002" clip-path="url(#ID000001)" >
      <polyline fill="none" stroke="#e09000" stroke-width="1.5pt" stroke-dasharray="none" points="13.500,129.847 21.699,88.244 29.899,94.737 38.098,37.434 46.298,82.971 54.497,66.355 62.696,94.335 70.896,0.000 79.095,33.487 87.294,118.742 95.494,100.274 103.693,200.000 111.893,145.179 120.092,150.785 128.291,174.596 136.491,177.266 144.690,158.320 152.890,53.608 161.089,34.176 169.288,182.279 177.488,83.130 185.687,106.879 193.887,115.486 202.086,85.140 210.285,29.796 218.485,99.337 226.684,58.366 234.883,46.745 243.083,20.295 251.282,55.514 259.482,32.659 267.681,153.389 275.880,125.233 284.080,109.188 292.279,146.679 300.479,129.073 308.678,69.296 316.877,29.326 325.077,57.475 333.276,72.879 341.475,158.273 349.675,147.301 357.874,150.011 366.074,155.136 374.273,113.495 382.472,91.440 390.672,14.166 398.871,84.325 407.071,134.424 415.270,68.597 423.469,83.397 431.669,85.532 439.868,67.543 448.067,75.397 456.267,103.453 464.466,177.241 472.666,148.963 480.865,131.404 489.064,101.059 497.264,176.190 505.463,92.566 513.663,82.246 521.862,61.840 530.061,33.330 538.261,56.323 546.460,56.491 554.660,69.600 562.859,37.460 571.058,46.038 579.258,28.208 587.457,128.893 595.656,194.716 603.856,144.158 612.055,129.468 620.255,99.201 628.454,95.928 636.653,84.828 644.853,28.235 653.052,39.160 661.252,167.919 669.451,153.410 677.650,124.043 685.850,107.247 694.049,180.593 702.248,171.300 710.448,113.338 718.647,56.343 726.847,80.579 735.046,128.903 743.245,141.852 751.445,143.983 759.644,120.014 767.844,105.815 776.043,118.158 784.242,122.476 792.442,132.361 800.641,100.693 808.840,80.575 817.040,110.344 825.239,170.890 833.439,93.860 841.638,114.726 849.837,190.117 858.037,74.008 866.236,0.000 874.436,70.896 882.635,143.530 890.834,179.993 899.034,157.278 907.233,115.079 915.433,154.441 923.632,141.510 931.831,94.553 940.031,57.991 948.230,66.052 956.429,62.350 964.629,62.196 972.828,101.785 981.028,68.247 989.227,141.255 997.426,115.953 1005.626,131.180 1013.825,125.692 1022.025,93.383 1030.224,8.962 1038.423,61.707 1046.623,59.732 1054.822,31.152 1063.021,52.787 1071.221,112.955 1079.420,143.926 1087.620,88.071 1095.819,105.875 1104.018,96.640 1112.218,138.599 1120.417,136.048 1128.617,64.600 1136.816,47.488 1145.015,18.870 1153.215,126.403 1161.414,175.398 1169.613,157.290 1177.813,137.851 1186.012,85.775 1194.212,31.912 1202.411,97.501 1210.610,76.400 1218.810,58.852 1227.009,110.383 1235.209,87.997 1243.408,45.801 1251.607,83.733 1259.807,86.519 1268.006,100.320 1276.206,81.116 1284.405,80.886 1292.604,41.777 1300.804,37.113 1309.003,115.998 1317.202,200.000 1325.402,175.369 1333.601,133.388 1341.801,113.314 1350.000,104.921 "/>
<g>
</g>
</g>
<g id="ID000003" >
</g>
<g id="ID000004" >
</g>
<g id="ID000005" >
</g>
<g id="ID000006" >
      <polyline fill="none" stroke="#000000" stroke-width="1.5pt" stroke-dasharray="none" points="13.500,200.000 13.500,0.000 "/>
<g>
</g>
</g>
<g id="ID000007" >
      <polyline fill="none" stroke="#000000" stroke-width="1.5pt" stroke-dasharray="none" points="13.500,100.000 1350.000,100.000 "/>
<g>
</g>
</g>
    </g>
    <g>
      <polyline fill="none" stroke="#ffffff" stroke-width="1.5pt" stroke-dasharray="none" points="13.500,200.000 13.500,186.635 "/>
      <polyline fill="none" stroke="#ffffff" stroke-width="1.5pt" stroke-dasharray="none" points="825.239,200.000 825.239,186.635 "/>
      <polyline fill="none" stroke="#ffffff" stroke-width="1.5pt" stroke-dasharray="none" points="1350.000,200.000 1350.000,186.635 "/>
      <polyline fill="none" stroke="#ffffff" stroke-width="1.5pt" stroke-dasharray="none" points="13.500,200.000 1350.000,200.000 "/>
  <g transform="translate(13.500,215.800)">
    <g transform="rotate(-0.0)">
      <text x="0.000" y="0.000" font-family="Helvetica" text-anchor="middle" font-size="10pt" fill="#ffffff" >  1</text>
    </g>
  </g>
  <g transform="translate(825.239,215.800)">
    <g transform="rotate(-0.0)">
      <text x="0.000" y="0.000" font-family="Helvetica" text-anchor="middle" font-size="10pt" fill="#ffffff" >100</text>
    </g>
  </g>
  <g transform="translate(1350.000,215.800)">
    <g transform="rotate(-0.0)">
      <text x="0.000" y="0.000" font-family="Helvetica" text-anchor="middle" font-size="10pt" fill="#ffffff" >164</text>
    </g>
  </g>
      <polyline fill="none" stroke="#000000" stroke-width="1.5pt" stroke-dasharray="none" points="13.500,200.000 13.500,0.000 "/>
      <polyline fill="none" stroke="#000000" stroke-width="1.5pt" stroke-dasharray="none" points="13.500,200.000 13.500,198.000 "/>
      <polyline fill="none" stroke="#000000" stroke-width="1.5pt" stroke-dasharray="none" points="13.500,200.000 13.500,198.000 "/>
      <polyline fill="none" stroke="#000000" stroke-width="1.5pt" stroke-dasharray="none" points="13.500,200.000 13.500,198.000 "/>
      <polyline fill="none" stroke="#000000" stroke-width="1.5pt" stroke-dasharray="none" points="13.500,200.000 13.500,200.000 "/>
    </g>
  </g>
  </g>
</svg>
