<?xml version="1.0" encoding="utf-8" standalone="no"?><!DOCTYPE svg PUBLIC "-//W3C//DTD SVG 1.1//EN" "http://www.w3.org/Graphics/SVG/1.1/DTD/svg11.dtd">
<svg preserveAspectRatio="xMinYMin meet" width="100%" height="100%" viewBox="0 0 1350.000 200.000"  version="1.1" xmlns="http://www.w3.org/2000/svg" xmlns:xlink="http://www.w3.org/1999/xlink">
  <desc>Matlab Figure Converted by PLOT2SVG written by Juerg Schwizer</desc>
  <g id="topgroup">
  <rect x="0" y="0" width="1350.000" height="200.000" fill="#ffffff" stroke="none" />
  <g id ="ID000000">
  <clipPath id="ID000001">
    <rect x="13.500" y="0.000" width="1336.500" height="200.000"/>
  </clipPath>
      <polygon fill="#ffffff" fill-opacity="1.00" stroke="none" stroke-width="1.5pt" stroke-opacity="1.00" stroke-dasharray="none" points="13.500,200.000 1350.000,200.000 1350.000,0.000 13.500,0.000 "/>
      <polygon fill="#ffffff" fill-opacity="1.00" stroke="none" stroke-width="1.5pt" stroke-opacity="1.00" stroke-dasharray="none" points="13.500,0.000 1350.000,0.000 1350.000,0.000 13.500,0.000 "/>
      <polygon fill="#ffffff" fill-opacity="1.00" stroke="none" stroke-width="1.5pt" stroke-opacity="1.00" stroke-dasharray="none" points="13.500,200.000 13.500,200.000 13.500,0.000 13.500,0.000 "/>
    <g>
<g id="ID000002" clip-path="url(#ID000001)" >
      <polyline fill="none" stroke="#e09000" stroke-width="1.5pt" stroke-dasharray="none" points="13.500,133.188 21.699,162.945 29.899,179.529 38.098,95.542 46.298,152.767 54.497,79.524 62.696,101.671 70.896,76.510 79.095,107.146 87.294,160.701 95.494,82.150 103.693,73.714 111.893,22.075 120.092,0.000 128.291,44.273 136.491,14.989 144.690,87.248 152.890,135.806 161.089,140.438 169.288,103.428 177.488,97.953 185.687,143.193 193.887,172.342 202.086,180.925 210.285,105.510 218.485,123.387 226.684,160.251 234.883,100.931 243.083,27.686 251.282,55.710 259.482,29.898 267.681,75.334 275.880,77.200 284.080,51.429 292.279,126.833 300.479,104.512 308.678,65.803 316.877,54.073 325.077,102.982 333.276,131.602 341.475,101.194 349.675,104.128 357.874,86.552 366.074,79.104 374.273,26.939 382.472,41.596 390.672,61.053 398.871,86.987 407.071,64.940 415.270,58.289 423.469,75.358 431.669,91.881 439.868,90.951 448.067,131.513 456.267,95.524 464.466,92.161 472.666,109.770 480.865,105.906 489.064,166.066 497.264,192.979 505.463,95.733 513.663,142.016 521.862,183.223 530.061,82.057 538.261,100.061 546.460,113.398 554.660,158.148 562.859,99.102 571.058,139.284 579.258,70.935 587.457,81.715 595.656,111.915 603.856,98.086 612.055,84.525 620.255,15.619 628.454,24.882 636.653,74.171 644.853,111.088 653.052,119.715 661.252,119.182 669.451,114.433 677.650,114.412 685.850,68.951 694.049,77.147 702.248,134.338 710.448,122.829 718.647,86.237 726.847,121.533 735.046,102.452 743.245,51.475 751.445,58.300 759.644,88.490 767.844,95.237 776.043,74.035 784.242,142.528 792.442,128.631 800.641,133.704 808.840,95.563 817.040,101.118 825.239,155.163 833.439,162.357 841.638,168.862 849.837,139.176 858.037,105.552 866.236,62.187 874.436,112.174 882.635,109.297 890.834,64.635 899.034,80.336 907.233,116.931 915.433,76.824 923.632,111.085 931.831,159.747 940.031,153.267 948.230,200.000 956.429,166.462 964.629,125.902 972.828,96.999 981.028,57.187 989.227,62.564 997.426,107.341 1005.626,78.152 1013.825,121.244 1022.025,167.500 1030.224,84.033 1038.423,60.369 1046.623,31.269 1054.822,92.206 1063.021,86.700 1071.221,137.474 1079.420,141.499 1087.620,85.552 1095.819,114.591 1104.018,140.766 1112.218,102.709 1120.417,116.550 1128.617,88.492 1136.816,111.025 1145.015,103.159 1153.215,129.907 1161.414,137.465 1169.613,178.681 1177.813,200.000 1186.012,155.212 1194.212,0.000 1202.411,23.725 1210.610,100.222 1218.810,105.083 1227.009,118.344 1235.209,140.938 1243.408,98.131 1251.607,110.466 1259.807,45.599 1268.006,18.771 1276.206,47.198 1284.405,83.110 1292.604,45.686 1300.804,76.604 1309.003,129.719 1317.202,144.962 1325.402,136.575 1333.601,139.631 1341.801,81.229 1350.000,118.666 "/>
<g>
</g>
</g>
<g id="ID000003" >
</g>
<g id="ID000004" >
</g>
<g id="ID000005" >
</g>
<g id="ID000006" >
      <polyline fill="none" stroke="#000000" stroke-width="1.5pt" stroke-dasharray="none" points="13.500,200.000 13.500,0.000 "/>
<g>
</g>
</g>
<g id="ID000007" >
      <polyline fill="none" stroke="#000000" stroke-width="1.5pt" stroke-dasharray="none" points="13.500,100.000 1350.000,100.000 "/>
<g>
</g>
</g>
    </g>
    <g>
      <polyline fill="none" stroke="#ffffff" stroke-width="1.5pt" stroke-dasharray="none" points="13.500,200.000 13.500,186.635 "/>
      <polyline fill="none" stroke="#ffffff" stroke-width="1.5pt" stroke-dasharray="none" points="825.239,200.000 825.239,186.635 "/>
      <polyline fill="none" stroke="#ffffff" stroke-width="1.5pt" stroke-dasharray="none" points="1350.000,200.000 1350.000,186.635 "/>
      <polyline fill="none" stroke="#ffffff" stroke-width="1.5pt" stroke-dasharray="none" points="13.500,200.000 1350.000,200.000 "/>
  <g transform="translate(13.500,215.800)">
    <g transform="rotate(-0.0)">
      <text x="0.000" y="0.000" font-family="Helvetica" text-anchor="middle" font-size="10pt" fill="#ffffff" >  1</text>
    </g>
  </g>
  <g transform="translate(825.239,215.800)">
    <g transform="rotate(-0.0)">
      <text x="0.000" y="0.000" font-family="Helvetica" text-anchor="middle" font-size="10pt" fill="#ffffff" >100</text>
    </g>
  </g>
  <g transform="translate(1350.000,215.800)">
    <g transform="rotate(-0.0)">
      <text x="0.000" y="0.000" font-family="Helvetica" text-anchor="middle" font-size="10pt" fill="#ffffff" >164</text>
    </g>
  </g>
      <polyline fill="none" stroke="#000000" stroke-width="1.5pt" stroke-dasharray="none" points="13.500,200.000 13.500,0.000 "/>
      <polyline fill="none" stroke="#000000" stroke-width="1.5pt" stroke-dasharray="none" points="13.500,200.000 13.500,198.000 "/>
      <polyline fill="none" stroke="#000000" stroke-width="1.5pt" stroke-dasharray="none" points="13.500,200.000 13.500,198.000 "/>
      <polyline fill="none" stroke="#000000" stroke-width="1.5pt" stroke-dasharray="none" points="13.500,200.000 13.500,198.000 "/>
      <polyline fill="none" stroke="#000000" stroke-width="1.5pt" stroke-dasharray="none" points="13.500,200.000 13.500,200.000 "/>
    </g>
  </g>
  </g>
</svg>
