<?xml version="1.0" encoding="utf-8" standalone="no"?><!DOCTYPE svg PUBLIC "-//W3C//DTD SVG 1.1//EN" "http://www.w3.org/Graphics/SVG/1.1/DTD/svg11.dtd">
<svg preserveAspectRatio="xMinYMin meet" width="100%" height="100%" viewBox="0 0 1350.000 200.000"  version="1.1" xmlns="http://www.w3.org/2000/svg" xmlns:xlink="http://www.w3.org/1999/xlink">
  <desc>Matlab Figure Converted by PLOT2SVG written by Juerg Schwizer</desc>
  <g id="topgroup">
  <rect x="0" y="0" width="1350.000" height="200.000" fill="#ffffff" stroke="none" />
  <g id ="ID000000">
  <clipPath id="ID000001">
    <rect x="13.500" y="0.000" width="1336.500" height="200.000"/>
  </clipPath>
      <polygon fill="#ffffff" fill-opacity="1.00" stroke="none" stroke-width="1.5pt" stroke-opacity="1.00" stroke-dasharray="none" points="13.500,200.000 1350.000,200.000 1350.000,0.000 13.500,0.000 "/>
      <polygon fill="#ffffff" fill-opacity="1.00" stroke="none" stroke-width="1.5pt" stroke-opacity="1.00" stroke-dasharray="none" points="13.500,0.000 1350.000,0.000 1350.000,0.000 13.500,0.000 "/>
      <polygon fill="#ffffff" fill-opacity="1.00" stroke="none" stroke-width="1.5pt" stroke-opacity="1.00" stroke-dasharray="none" points="13.500,200.000 13.500,200.000 13.500,0.000 13.500,0.000 "/>
    <g>
<g id="ID000002" clip-path="url(#ID000001)" >
      <polyline fill="none" stroke="#00a000" stroke-width="1.5pt" stroke-dasharray="none" points="13.500,132.243 21.699,106.817 29.899,91.915 38.098,56.313 46.298,33.824 54.497,85.041 62.696,116.179 70.896,59.619 79.095,34.944 87.294,65.845 95.494,113.986 103.693,111.353 111.893,73.463 120.092,149.779 128.291,158.375 136.491,162.952 144.690,114.553 152.890,131.215 161.089,146.975 169.288,176.203 177.488,145.536 185.687,106.665 193.887,153.773 202.086,146.960 210.285,154.447 218.485,189.769 226.684,126.062 234.883,31.108 243.083,101.681 251.282,45.858 259.482,99.180 267.681,137.557 275.880,110.396 284.080,168.239 292.279,135.535 300.479,141.224 308.678,155.249 316.877,146.941 325.077,106.303 333.276,58.029 341.475,54.054 349.675,113.130 357.874,116.759 366.074,142.021 374.273,138.859 382.472,142.595 390.672,145.125 398.871,152.742 407.071,138.790 415.270,144.152 423.469,118.542 431.669,125.563 439.868,7.018 448.067,108.702 456.267,179.770 464.466,158.552 472.666,180.550 480.865,128.555 489.064,106.212 497.264,68.516 505.463,0.000 513.663,21.430 521.862,29.009 530.061,103.010 538.261,131.518 546.460,102.755 554.660,116.570 562.859,141.726 571.058,65.879 579.258,111.151 587.457,143.562 595.656,151.134 603.856,158.686 612.055,155.664 620.255,123.206 628.454,138.191 636.653,164.938 644.853,93.354 653.052,81.574 661.252,151.018 669.451,169.764 677.650,142.384 685.850,194.809 694.049,200.000 702.248,125.022 710.448,75.828 718.647,23.857 726.847,117.104 735.046,170.829 743.245,138.053 751.445,123.505 759.644,164.458 767.844,132.697 776.043,172.477 784.242,160.410 792.442,152.405 800.641,87.560 808.840,62.869 817.040,69.167 825.239,130.729 833.439,120.445 841.638,104.912 849.837,114.037 858.037,48.329 866.236,50.079 874.436,45.180 882.635,87.876 890.834,117.818 899.034,108.601 907.233,139.504 915.433,154.200 923.632,165.156 931.831,49.933 940.031,95.989 948.230,113.890 956.429,138.228 964.629,88.615 972.828,135.375 981.028,134.147 989.227,73.713 997.426,83.888 1005.626,158.948 1013.825,200.000 1022.025,78.322 1030.224,58.167 1038.423,29.191 1046.623,73.754 1054.822,64.572 1063.021,101.110 1071.221,96.909 1079.420,140.564 1087.620,122.736 1095.819,106.322 1104.018,82.351 1112.218,119.526 1120.417,143.522 1128.617,11.589 1136.816,0.000 1145.015,70.039 1153.215,100.649 1161.414,26.176 1169.613,80.230 1177.813,114.691 1186.012,106.732 1194.212,129.997 1202.411,53.437 1210.610,33.077 1218.810,97.748 1227.009,141.224 1235.209,65.404 1243.408,174.627 1251.607,100.594 1259.807,130.102 1268.006,168.271 1276.206,153.154 1284.405,161.310 1292.604,89.391 1300.804,70.872 1309.003,93.279 1317.202,144.915 1325.402,186.736 1333.601,102.584 1341.801,145.285 1350.000,110.471 "/>
<g>
</g>
</g>
<g id="ID000003" >
</g>
<g id="ID000004" >
</g>
<g id="ID000005" >
</g>
<g id="ID000006" >
      <polyline fill="none" stroke="#000000" stroke-width="1.5pt" stroke-dasharray="none" points="13.500,200.000 13.500,0.000 "/>
<g>
</g>
</g>
<g id="ID000007" >
      <polyline fill="none" stroke="#000000" stroke-width="1.5pt" stroke-dasharray="none" points="13.500,100.000 1350.000,100.000 "/>
<g>
</g>
</g>
    </g>
    <g>
      <polyline fill="none" stroke="#ffffff" stroke-width="1.5pt" stroke-dasharray="none" points="13.500,200.000 13.500,186.635 "/>
      <polyline fill="none" stroke="#ffffff" stroke-width="1.5pt" stroke-dasharray="none" points="825.239,200.000 825.239,186.635 "/>
      <polyline fill="none" stroke="#ffffff" stroke-width="1.5pt" stroke-dasharray="none" points="1350.000,200.000 1350.000,186.635 "/>
      <polyline fill="none" stroke="#ffffff" stroke-width="1.5pt" stroke-dasharray="none" points="13.500,200.000 1350.000,200.000 "/>
  <g transform="translate(13.500,215.800)">
    <g transform="rotate(-0.0)">
      <text x="0.000" y="0.000" font-family="Helvetica" text-anchor="middle" font-size="10pt" fill="#ffffff" >  1</text>
    </g>
  </g>
  <g transform="translate(825.239,215.800)">
    <g transform="rotate(-0.0)">
      <text x="0.000" y="0.000" font-family="Helvetica" text-anchor="middle" font-size="10pt" fill="#ffffff" >100</text>
    </g>
  </g>
  <g transform="translate(1350.000,215.800)">
    <g transform="rotate(-0.0)">
      <text x="0.000" y="0.000" font-family="Helvetica" text-anchor="middle" font-size="10pt" fill="#ffffff" >164</text>
    </g>
  </g>
      <polyline fill="none" stroke="#000000" stroke-width="1.5pt" stroke-dasharray="none" points="13.500,200.000 13.500,0.000 "/>
      <polyline fill="none" stroke="#000000" stroke-width="1.5pt" stroke-dasharray="none" points="13.500,200.000 13.500,198.000 "/>
      <polyline fill="none" stroke="#000000" stroke-width="1.5pt" stroke-dasharray="none" points="13.500,200.000 13.500,198.000 "/>
      <polyline fill="none" stroke="#000000" stroke-width="1.5pt" stroke-dasharray="none" points="13.500,200.000 13.500,198.000 "/>
      <polyline fill="none" stroke="#000000" stroke-width="1.5pt" stroke-dasharray="none" points="13.500,200.000 13.500,200.000 "/>
    </g>
  </g>
  </g>
</svg>
