<?xml version="1.0" encoding="utf-8" standalone="no"?><!DOCTYPE svg PUBLIC "-//W3C//DTD SVG 1.1//EN" "http://www.w3.org/Graphics/SVG/1.1/DTD/svg11.dtd">
<svg preserveAspectRatio="xMinYMin meet" width="100%" height="100%" viewBox="0 0 200.000 300.000"  version="1.1" xmlns="http://www.w3.org/2000/svg" xmlns:xlink="http://www.w3.org/1999/xlink">
  <desc>Matlab Figure Converted by PLOT2SVG written by Juerg Schwizer</desc>
  <g id="topgroup">
  <rect x="0" y="0" width="200.000" height="300.000" fill="#ffffff" stroke="none" />
  <g id ="ID000000">
  <clipPath id="ID000001">
    <rect x="50.000" y="33.000" width="140.000" height="225.000"/>
  </clipPath>
      <polygon fill="#ffffff" fill-opacity="1.00" stroke="none" stroke-width="2.0pt" stroke-opacity="1.00" stroke-dasharray="none" points="50.000,258.000 190.000,258.000 190.000,33.000 50.000,33.000 "/>
      <polygon fill="#ffffff" fill-opacity="1.00" stroke="none" stroke-width="2.0pt" stroke-opacity="1.00" stroke-dasharray="none" points="50.000,258.000 190.000,258.000 190.000,258.000 50.000,258.000 "/>
      <polygon fill="#ffffff" fill-opacity="1.00" stroke="none" stroke-width="2.0pt" stroke-opacity="1.00" stroke-dasharray="none" points="50.000,258.000 50.000,258.000 50.000,33.000 50.000,33.000 "/>
    <g>
<g id="ID000002" >
  <g transform="translate(120.000,-91.851)">
    <g transform="rotate(-0.0)">
      <text x="0.000" y="0.000" font-family="Courier" text-anchor="middle" font-size="18pt" font-weight="bold" fill="#000000" >ns</text>
    </g>
  </g>
</g>
<g id="ID000003" clip-path="url(#ID000001)" >
      <polyline fill="none" stroke="#000000" stroke-width="1.0pt" stroke-dasharray="none" points="71.000,124.118 71.000,3.133 "/>
<g>
</g>
</g>
<g id="ID000004" clip-path="url(#ID000001)" >
      <polyline fill="none" stroke="#000000" stroke-width="1.0pt" stroke-dasharray="none" points="71.000,3.133 169.000,3.133 "/>
<g>
</g>
</g>
<g id="ID000005" clip-path="url(#ID000001)" >
      <polyline fill="none" stroke="#000000" stroke-width="1.0pt" stroke-dasharray="none" points="169.000,3.133 169.000,124.053 "/>
<g>
</g>
</g>
<g id="ID000006" >
</g>
<g id="ID000007" >
  <g transform="translate(10.500,147.500)">
    <g transform="rotate(-90.0)">
      <text x="0.000" y="0.000" font-family="Helvetica" text-anchor="middle" font-size="12pt" fill="#000000" >GC</text>
    </g>
  </g>
</g>
<g id="ID000008" >
</g>
<g id="ID000009" clip-path="url(#ID000001)" >
      <polygon fill="#f6921e" fill-opacity="1.00" stroke="none" stroke-width="0.0pt" stroke-opacity="1.00" stroke-dasharray="none" points="127.000,3408.000 127.000,140.231 169.000,140.231 169.000,3408.000 "/>
</g>
<g id="ID000010" clip-path="url(#ID000001)" >
      <polygon fill="#be1e2d" fill-opacity="1.00" stroke="none" stroke-width="0.0pt" stroke-opacity="1.00" stroke-dasharray="none" points="71.000,3408.000 71.000,139.346 113.000,139.346 113.000,3408.000 "/>
</g>
<g id="ID000011" >
      <polyline fill="none" stroke="#000000" stroke-width="2.0pt" stroke-dasharray="none" points="148.000,156.409 148.000,124.053 "/>
<g>
</g>
</g>
<g id="ID000012" >
      <polyline fill="none" stroke="#000000" stroke-width="2.0pt" stroke-dasharray="none" points="92.000,154.575 92.000,124.118 "/>
<g>
</g>
</g>
<g id="ID000013" >
      <polyline fill="none" stroke="#000000" stroke-width="2.0pt" stroke-dasharray="none" points="50.000,258.000 190.000,258.000 "/>
<g>
</g>
</g>
<g id="ID000014" >
      <polyline fill="none" stroke="#000000" stroke-width="2.0pt" stroke-dasharray="none" points="50.000,258.000 50.000,33.000 "/>
<g>
</g>
</g>
    </g>
    <g>
      <polyline fill="none" stroke="#000000" stroke-width="2.0pt" stroke-dasharray="none" points="50.000,258.000 190.000,258.000 "/>
      <polyline fill="none" stroke="#000000" stroke-width="2.0pt" stroke-dasharray="none" points="50.000,258.000 52.250,258.000 "/>
      <polyline fill="none" stroke="#000000" stroke-width="2.0pt" stroke-dasharray="none" points="50.000,201.750 52.250,201.750 "/>
      <polyline fill="none" stroke="#000000" stroke-width="2.0pt" stroke-dasharray="none" points="50.000,145.500 52.250,145.500 "/>
      <polyline fill="none" stroke="#000000" stroke-width="2.0pt" stroke-dasharray="none" points="50.000,89.250 52.250,89.250 "/>
      <polyline fill="none" stroke="#000000" stroke-width="2.0pt" stroke-dasharray="none" points="50.000,33.000 52.250,33.000 "/>
      <polyline fill="none" stroke="#000000" stroke-width="2.0pt" stroke-dasharray="none" points="50.000,258.000 50.000,33.000 "/>
  <g transform="translate(47.200,262.500)">
    <g transform="rotate(-0.0)">
      <text x="0.000" y="0.000" font-family="Helvetica" text-anchor="end" font-size="10pt" fill="#000000" >28</text>
    </g>
  </g>
  <g transform="translate(47.200,206.250)">
    <g transform="rotate(-0.0)">
      <text x="0.000" y="0.000" font-family="Helvetica" text-anchor="end" font-size="10pt" fill="#000000" >28.5</text>
    </g>
  </g>
  <g transform="translate(47.200,150.000)">
    <g transform="rotate(-0.0)">
      <text x="0.000" y="0.000" font-family="Helvetica" text-anchor="end" font-size="10pt" fill="#000000" >29</text>
    </g>
  </g>
  <g transform="translate(47.200,93.750)">
    <g transform="rotate(-0.0)">
      <text x="0.000" y="0.000" font-family="Helvetica" text-anchor="end" font-size="10pt" fill="#000000" >29.5</text>
    </g>
  </g>
  <g transform="translate(47.200,37.500)">
    <g transform="rotate(-0.0)">
      <text x="0.000" y="0.000" font-family="Helvetica" text-anchor="end" font-size="10pt" fill="#000000" >30</text>
    </g>
  </g>
      <polyline fill="none" stroke="#000000" stroke-width="2.0pt" stroke-dasharray="none" points="50.000,258.000 50.000,255.750 "/>
      <polyline fill="none" stroke="#000000" stroke-width="2.0pt" stroke-dasharray="none" points="50.000,258.000 50.000,255.750 "/>
      <polyline fill="none" stroke="#000000" stroke-width="2.0pt" stroke-dasharray="none" points="50.000,258.000 50.000,255.750 "/>
      <polyline fill="none" stroke="#000000" stroke-width="2.0pt" stroke-dasharray="none" points="50.000,258.000 50.000,258.000 "/>
    </g>
  </g>
  </g>
</svg>
