<?xml version="1.0" encoding="utf-8" standalone="no"?><!DOCTYPE svg PUBLIC "-//W3C//DTD SVG 1.1//EN" "http://www.w3.org/Graphics/SVG/1.1/DTD/svg11.dtd">
<svg preserveAspectRatio="xMinYMin meet" width="100%" height="100%" viewBox="0 0 200.000 300.000"  version="1.1" xmlns="http://www.w3.org/2000/svg" xmlns:xlink="http://www.w3.org/1999/xlink">
  <desc>Matlab Figure Converted by PLOT2SVG written by Juerg Schwizer</desc>
  <g id="topgroup">
  <rect x="0" y="0" width="200.000" height="300.000" fill="#ffffff" stroke="none" />
  <g id ="ID000000">
  <clipPath id="ID000001">
    <rect x="50.000" y="33.000" width="140.000" height="225.000"/>
  </clipPath>
      <polygon fill="#ffffff" fill-opacity="1.00" stroke="none" stroke-width="2.0pt" stroke-opacity="1.00" stroke-dasharray="none" points="50.000,258.000 190.000,258.000 190.000,33.000 50.000,33.000 "/>
      <polygon fill="#ffffff" fill-opacity="1.00" stroke="none" stroke-width="2.0pt" stroke-opacity="1.00" stroke-dasharray="none" points="50.000,258.000 190.000,258.000 190.000,258.000 50.000,258.000 "/>
      <polygon fill="#ffffff" fill-opacity="1.00" stroke="none" stroke-width="2.0pt" stroke-opacity="1.00" stroke-dasharray="none" points="50.000,258.000 50.000,258.000 50.000,33.000 50.000,33.000 "/>
    <g>
<g id="ID000002" clip-path="url(#ID000001)" >
      <polyline fill="none" stroke="#7f7f7f" stroke-width="2.0pt" stroke-dasharray="none" points="50.000,201.750 190.000,201.750 "/>
<g>
</g>
</g>
<g id="ID000003" >
  <g transform="translate(98.350,152.393)">
    <g transform="rotate(-90.0)">
      <text x="0.000" y="0.000" font-family="Courier" text-anchor="start" font-size="18pt" font-weight="bold" fill="#000000" >ns</text>
    </g>
  </g>
</g>
<g id="ID000004" >
  <g transform="translate(157.850,165.924)">
    <g transform="rotate(-90.0)">
      <text x="0.000" y="0.000" font-family="Courier" text-anchor="start" font-size="18pt" font-weight="bold" fill="#000000" >ns</text>
    </g>
  </g>
</g>
<g id="ID000005" >
</g>
<g id="ID000006" >
  <g transform="translate(22.500,147.500)">
    <g transform="rotate(-90.0)">
      <text x="0.000" y="0.000" font-family="Helvetica" text-anchor="middle" font-size="12pt" fill="#000000" >accuracy (%)</text>
    </g>
  </g>
</g>
<g id="ID000007" >
</g>
<g id="ID000008" clip-path="url(#ID000001)" >
      <polygon fill="#00d0d0" fill-opacity="1.00" stroke="none" stroke-width="0.0pt" stroke-opacity="1.00" stroke-dasharray="none" points="130.500,483.000 130.500,190.500 169.000,190.500 169.000,483.000 "/>
</g>
<g id="ID000009" clip-path="url(#ID000001)" >
      <polygon fill="#01b901" fill-opacity="1.00" stroke="none" stroke-width="0.0pt" stroke-opacity="1.00" stroke-dasharray="none" points="71.000,483.000 71.000,177.375 109.500,177.375 109.500,483.000 "/>
</g>
<g id="ID000010" >
      <polyline fill="none" stroke="#000000" stroke-width="2.0pt" stroke-dasharray="none" points="149.750,209.476 149.750,171.524 "/>
<g>
</g>
</g>
<g id="ID000011" >
      <polyline fill="none" stroke="#000000" stroke-width="2.0pt" stroke-dasharray="none" points="90.250,196.757 90.250,157.993 "/>
<g>
</g>
</g>
<g id="ID000012" >
      <polyline fill="none" stroke="#000000" stroke-width="2.0pt" stroke-dasharray="none" points="50.000,258.000 190.000,258.000 "/>
<g>
</g>
</g>
<g id="ID000013" >
      <polyline fill="none" stroke="#000000" stroke-width="2.0pt" stroke-dasharray="none" points="50.000,258.000 50.000,33.000 "/>
<g>
</g>
</g>
    </g>
    <g>
      <polyline fill="none" stroke="#000000" stroke-width="2.0pt" stroke-dasharray="none" points="50.000,258.000 190.000,258.000 "/>
      <polyline fill="none" stroke="#000000" stroke-width="2.0pt" stroke-dasharray="none" points="50.000,258.000 52.250,258.000 "/>
      <polyline fill="none" stroke="#000000" stroke-width="2.0pt" stroke-dasharray="none" points="50.000,201.750 52.250,201.750 "/>
      <polyline fill="none" stroke="#000000" stroke-width="2.0pt" stroke-dasharray="none" points="50.000,145.500 52.250,145.500 "/>
      <polyline fill="none" stroke="#000000" stroke-width="2.0pt" stroke-dasharray="none" points="50.000,89.250 52.250,89.250 "/>
      <polyline fill="none" stroke="#000000" stroke-width="2.0pt" stroke-dasharray="none" points="50.000,33.000 52.250,33.000 "/>
      <polyline fill="none" stroke="#000000" stroke-width="2.0pt" stroke-dasharray="none" points="50.000,258.000 50.000,33.000 "/>
  <g transform="translate(47.200,262.500)">
    <g transform="rotate(-0.0)">
      <text x="0.000" y="0.000" font-family="Helvetica" text-anchor="end" font-size="10pt" fill="#000000" >40</text>
    </g>
  </g>
  <g transform="translate(47.200,206.250)">
    <g transform="rotate(-0.0)">
      <text x="0.000" y="0.000" font-family="Helvetica" text-anchor="end" font-size="10pt" fill="#000000" >50</text>
    </g>
  </g>
  <g transform="translate(47.200,150.000)">
    <g transform="rotate(-0.0)">
      <text x="0.000" y="0.000" font-family="Helvetica" text-anchor="end" font-size="10pt" fill="#000000" >60</text>
    </g>
  </g>
  <g transform="translate(47.200,93.750)">
    <g transform="rotate(-0.0)">
      <text x="0.000" y="0.000" font-family="Helvetica" text-anchor="end" font-size="10pt" fill="#000000" >70</text>
    </g>
  </g>
  <g transform="translate(47.200,37.500)">
    <g transform="rotate(-0.0)">
      <text x="0.000" y="0.000" font-family="Helvetica" text-anchor="end" font-size="10pt" fill="#000000" >80</text>
    </g>
  </g>
      <polyline fill="none" stroke="#000000" stroke-width="2.0pt" stroke-dasharray="none" points="50.000,258.000 50.000,255.750 "/>
      <polyline fill="none" stroke="#000000" stroke-width="2.0pt" stroke-dasharray="none" points="50.000,258.000 50.000,255.750 "/>
      <polyline fill="none" stroke="#000000" stroke-width="2.0pt" stroke-dasharray="none" points="50.000,258.000 50.000,255.750 "/>
      <polyline fill="none" stroke="#000000" stroke-width="2.0pt" stroke-dasharray="none" points="50.000,258.000 50.000,258.000 "/>
    </g>
  </g>
  </g>
</svg>
