<?xml version="1.0" encoding="utf-8" standalone="no"?><!DOCTYPE svg PUBLIC "-//W3C//DTD SVG 1.1//EN" "http://www.w3.org/Graphics/SVG/1.1/DTD/svg11.dtd">
<svg preserveAspectRatio="xMinYMin meet" width="100%" height="100%" viewBox="0 0 400.000 300.000"  version="1.1" xmlns="http://www.w3.org/2000/svg" xmlns:xlink="http://www.w3.org/1999/xlink">
  <desc>Matlab Figure Converted by PLOT2SVG written by Juerg Schwizer</desc>
  <g id="topgroup">
  <rect x="0" y="0" width="400.000" height="300.000" fill="#ffffff" stroke="none" />
  <g id ="ID000000">
  <clipPath id="ID000001">
    <rect x="44.000" y="33.000" width="340.000" height="225.000"/>
  </clipPath>
      <polygon fill="#ffffff" fill-opacity="1.00" stroke="none" stroke-width="0.5pt" stroke-opacity="1.00" stroke-dasharray="none" points="44.000,258.000 384.000,258.000 384.000,33.000 44.000,33.000 "/>
      <polygon fill="#ffffff" fill-opacity="1.00" stroke="none" stroke-width="0.5pt" stroke-opacity="1.00" stroke-dasharray="none" points="44.000,33.000 384.000,33.000 384.000,33.000 44.000,33.000 "/>
      <polygon fill="#ffffff" fill-opacity="1.00" stroke="none" stroke-width="0.5pt" stroke-opacity="1.00" stroke-dasharray="none" points="44.000,258.000 44.000,258.000 44.000,33.000 44.000,33.000 "/>
    <g>
<g id="ID000002" clip-path="url(#ID000001)" >
      <polyline fill="none" stroke="#00d0d0" stroke-width="2.0pt" stroke-dasharray="none" points="44.000,240.739 47.434,239.565 50.869,237.134 54.303,242.094 57.737,242.753 61.172,248.830 64.606,230.283 68.040,229.154 71.475,230.999 74.909,236.352 78.343,238.692 81.778,249.283 85.212,232.116 88.646,234.448 92.081,249.494 95.515,237.618 98.949,229.715 102.384,230.503 105.818,233.437 109.253,244.340 112.687,249.288 116.121,238.241 119.556,236.628 122.990,237.411 126.424,237.427 129.859,241.003 133.293,232.260 136.727,229.932 140.162,233.196 143.596,232.119 147.030,258.000 150.465,233.526 153.899,242.961 157.333,253.701 160.768,241.461 164.202,241.788 167.636,241.492 171.071,246.660 174.505,234.311 177.939,247.917 181.374,245.192 184.808,243.888 188.242,240.073 191.677,245.615 195.111,237.753 198.545,236.972 201.980,235.725 205.414,236.552 208.848,242.346 212.283,230.591 215.717,238.928 219.152,235.961 222.586,236.372 226.020,220.500 229.455,246.165 232.889,231.928 236.323,224.154 239.758,230.636 243.192,239.094 246.626,237.460 250.061,245.895 253.495,230.739 256.929,237.443 260.364,232.522 263.798,235.842 267.232,248.768 270.667,236.594 274.101,240.975 277.535,233.185 280.970,243.163 284.404,236.201 287.838,249.124 291.273,238.785 294.707,236.832 298.141,236.825 301.576,242.909 305.010,239.129 308.444,228.438 311.879,239.402 315.313,233.134 318.747,232.487 322.182,232.349 325.616,232.994 329.051,243.597 332.485,240.080 335.919,239.540 339.354,232.664 342.788,225.545 346.222,234.974 349.657,235.907 353.091,235.460 356.525,231.840 359.960,237.474 363.394,245.032 366.828,251.635 370.263,235.889 373.697,231.795 377.131,232.255 380.566,238.200 384.000,242.835 "/>
<g>
</g>
</g>
<g id="ID000003" clip-path="url(#ID000001)" >
      <polyline fill="none" stroke="#00d0d0" stroke-width="2.0pt" stroke-dasharray="none" points="44.000,160.338 47.434,160.905 50.869,169.655 54.303,166.576 57.737,169.966 61.172,167.328 64.606,162.780 68.040,145.500 71.475,165.272 74.909,161.848 78.343,172.940 81.778,156.596 85.212,156.951 88.646,172.190 92.081,160.868 95.515,153.693 98.949,165.738 102.384,154.601 105.818,173.445 109.253,166.523 112.687,172.553 116.121,167.104 119.556,162.587 122.990,173.918 126.424,163.504 129.859,156.680 133.293,171.611 136.727,176.362 140.162,168.314 143.596,171.059 147.030,171.046 150.465,157.366 153.899,166.005 157.333,168.549 160.768,160.766 164.202,162.961 167.636,166.277 171.071,167.552 174.505,163.449 177.939,159.977 181.374,165.895 184.808,163.385 188.242,171.149 191.677,183.000 195.111,160.714 198.545,154.275 201.980,174.224 205.414,174.630 208.848,157.673 212.283,153.526 215.717,170.022 219.152,170.851 222.586,154.416 226.020,159.961 229.455,149.692 232.889,165.813 236.323,160.138 239.758,151.772 243.192,161.561 246.626,156.613 250.061,165.335 253.495,155.625 256.929,164.851 260.364,161.207 263.798,166.612 267.232,154.881 270.667,167.868 274.101,161.175 277.535,158.157 280.970,170.502 284.404,165.266 287.838,170.645 291.273,171.452 294.707,170.823 298.141,168.641 301.576,158.768 305.010,164.765 308.444,167.598 311.879,169.131 315.313,162.230 318.747,164.657 322.182,150.173 325.616,167.031 329.051,166.553 332.485,161.704 335.919,169.083 339.354,158.345 342.788,167.144 346.222,163.972 349.657,157.689 353.091,164.132 356.525,165.223 359.960,162.754 363.394,175.189 366.828,167.036 370.263,159.481 373.697,164.056 377.131,160.251 380.566,162.122 384.000,166.198 "/>
<g>
</g>
</g>
<g id="ID000004" clip-path="url(#ID000001)" >
      <polyline fill="none" stroke="#00d0d0" stroke-width="2.0pt" stroke-dasharray="none" points="44.000,125.555 47.434,127.847 50.869,124.939 54.303,119.986 57.737,122.026 61.172,124.032 64.606,114.963 68.040,114.936 71.475,142.509 74.909,108.000 78.343,137.483 81.778,136.872 85.212,121.562 88.646,117.439 92.081,122.046 95.515,123.627 98.949,130.185 102.384,118.817 105.818,118.657 109.253,121.154 112.687,129.486 116.121,133.696 119.556,124.452 122.990,126.948 126.424,135.686 129.859,110.762 133.293,115.867 136.727,127.685 140.162,123.821 143.596,131.444 147.030,122.516 150.465,113.723 153.899,127.910 157.333,128.099 160.768,126.600 164.202,125.855 167.636,117.101 171.071,116.271 174.505,114.900 177.939,123.351 181.374,123.444 184.808,123.754 188.242,119.991 191.677,117.129 195.111,125.635 198.545,118.980 201.980,129.356 205.414,114.639 208.848,122.894 212.283,116.410 215.717,124.181 219.152,128.458 222.586,108.937 226.020,112.876 229.455,145.500 232.889,125.056 236.323,138.914 239.758,129.352 243.192,132.288 246.626,116.001 250.061,129.788 253.495,124.083 256.929,119.898 260.364,128.184 263.798,123.723 267.232,124.548 270.667,132.822 274.101,142.608 277.535,136.184 280.970,126.179 284.404,113.263 287.838,119.639 291.273,141.457 294.707,129.717 298.141,129.167 301.576,124.716 305.010,124.702 308.444,112.775 311.879,122.728 315.313,119.333 318.747,118.485 322.182,118.290 325.616,111.100 329.051,121.856 332.485,120.665 335.919,128.601 339.354,123.983 342.788,126.599 346.222,120.266 349.657,121.040 353.091,119.744 356.525,125.491 359.960,117.203 363.394,119.965 366.828,127.532 370.263,121.270 373.697,121.218 377.131,140.316 380.566,130.119 384.000,126.603 "/>
<g>
</g>
</g>
<g id="ID000005" clip-path="url(#ID000001)" >
      <polyline fill="none" stroke="#00d0d0" stroke-width="2.0pt" stroke-dasharray="none" points="44.000,70.500 47.434,91.424 50.869,84.848 54.303,89.453 57.737,75.857 61.172,91.142 64.606,87.422 68.040,82.063 71.475,97.001 74.909,82.773 78.343,82.711 81.778,84.020 85.212,88.249 88.646,88.789 92.081,83.895 95.515,81.702 98.949,100.281 102.384,91.522 105.818,88.442 109.253,78.840 112.687,88.030 116.121,87.494 119.556,81.136 122.990,92.392 126.424,87.381 129.859,83.761 133.293,85.956 136.727,75.318 140.162,90.723 143.596,96.306 147.030,93.247 150.465,78.653 153.899,91.820 157.333,91.502 160.768,85.195 164.202,101.528 167.636,95.853 171.071,78.972 174.505,95.422 177.939,89.052 181.374,80.223 184.808,85.267 188.242,92.906 191.677,87.511 195.111,89.052 198.545,88.113 201.980,101.625 205.414,72.109 208.848,72.045 212.283,93.355 215.717,73.598 219.152,80.984 222.586,85.150 226.020,84.176 229.455,86.175 232.889,83.804 236.323,91.813 239.758,85.166 243.192,79.183 246.626,89.650 250.061,83.073 253.495,85.992 256.929,88.493 260.364,92.832 263.798,79.856 267.232,72.342 270.667,87.867 274.101,93.526 277.535,74.865 280.970,83.045 284.404,82.304 287.838,86.676 291.273,77.909 294.707,90.616 298.141,79.533 301.576,81.516 305.010,99.621 308.444,96.775 311.879,78.124 315.313,108.000 318.747,87.646 322.182,76.920 325.616,94.509 329.051,89.998 332.485,85.536 335.919,87.360 339.354,82.267 342.788,89.849 346.222,84.308 349.657,85.415 353.091,91.909 356.525,85.081 359.960,74.230 363.394,78.149 366.828,95.483 370.263,107.310 373.697,79.494 377.131,87.426 380.566,87.734 384.000,87.959 "/>
<g>
</g>
</g>
<g id="ID000006" clip-path="url(#ID000001)" >
      <polyline fill="none" stroke="#00d0d0" stroke-width="2.0pt" stroke-dasharray="none" points="44.000,45.771 47.434,48.817 50.869,55.026 54.303,52.826 57.737,49.434 61.172,49.010 64.606,53.150 68.040,65.725 71.475,50.916 74.909,45.918 78.343,43.731 81.778,70.011 85.212,38.366 88.646,69.680 92.081,67.257 95.515,51.078 98.949,50.229 102.384,46.165 105.818,64.789 109.253,56.917 112.687,49.576 116.121,58.196 119.556,59.727 122.990,53.386 126.424,47.777 129.859,51.308 133.293,46.897 136.727,46.232 140.162,41.230 143.596,60.429 147.030,60.301 150.465,56.795 153.899,58.379 157.333,65.979 160.768,57.928 164.202,68.413 167.636,55.407 171.071,63.216 174.505,57.370 177.939,46.198 181.374,55.293 184.808,62.721 188.242,64.191 191.677,57.720 195.111,59.419 198.545,54.025 201.980,62.875 205.414,68.737 208.848,53.240 212.283,66.013 215.717,53.072 219.152,50.035 222.586,63.712 226.020,49.285 229.455,50.794 232.889,57.460 236.323,50.797 239.758,54.673 243.192,58.739 246.626,58.119 250.061,62.188 253.495,58.138 256.929,47.466 260.364,50.587 263.798,37.000 267.232,46.271 270.667,52.785 274.101,64.535 277.535,47.733 280.970,35.410 284.404,48.160 287.838,54.201 291.273,66.386 294.707,51.352 298.141,54.390 301.576,54.131 305.010,47.337 308.444,61.340 311.879,49.380 315.313,70.500 318.747,57.141 322.182,66.706 325.616,38.268 329.051,49.026 332.485,60.273 335.919,57.063 339.354,43.317 342.788,48.819 346.222,57.878 349.657,54.466 353.091,65.728 356.525,67.023 359.960,62.161 363.394,33.000 366.828,51.604 370.263,58.014 373.697,51.342 377.131,51.339 380.566,51.001 384.000,60.828 "/>
<g>
</g>
</g>
<g id="ID000007" >
</g>
<g id="ID000008" >
</g>
<g id="ID000009" >
</g>
    </g>
    <g>
      <polyline fill="none" stroke="#ffffff" stroke-width="0.5pt" stroke-dasharray="none" points="109.253,258.000 109.253,254.600 "/>
      <polyline fill="none" stroke="#ffffff" stroke-width="0.5pt" stroke-dasharray="none" points="177.939,258.000 177.939,254.600 "/>
      <polyline fill="none" stroke="#ffffff" stroke-width="0.5pt" stroke-dasharray="none" points="246.626,258.000 246.626,254.600 "/>
      <polyline fill="none" stroke="#ffffff" stroke-width="0.5pt" stroke-dasharray="none" points="315.313,258.000 315.313,254.600 "/>
      <polyline fill="none" stroke="#ffffff" stroke-width="0.5pt" stroke-dasharray="none" points="44.000,258.000 384.000,258.000 "/>
      <polyline fill="none" stroke="#ffffff" stroke-width="0.5pt" stroke-dasharray="none" points="109.253,33.000 109.253,36.400 "/>
      <polyline fill="none" stroke="#ffffff" stroke-width="0.5pt" stroke-dasharray="none" points="177.939,33.000 177.939,36.400 "/>
      <polyline fill="none" stroke="#ffffff" stroke-width="0.5pt" stroke-dasharray="none" points="246.626,33.000 246.626,36.400 "/>
      <polyline fill="none" stroke="#ffffff" stroke-width="0.5pt" stroke-dasharray="none" points="315.313,33.000 315.313,36.400 "/>
      <polyline fill="none" stroke="#ffffff" stroke-width="0.5pt" stroke-dasharray="none" points="44.000,33.000 384.000,33.000 "/>
  <g transform="translate(44.000,274.300)">
    <g transform="rotate(-0.0)">
      <text x="0.000" y="0.000" font-family="Helvetica" text-anchor="middle" font-size="10pt" fill="#ffffff" >  1</text>
    </g>
  </g>
  <g transform="translate(109.253,274.300)">
    <g transform="rotate(-0.0)">
      <text x="0.000" y="0.000" font-family="Helvetica" text-anchor="middle" font-size="10pt" fill="#ffffff" > 20</text>
    </g>
  </g>
  <g transform="translate(177.939,274.300)">
    <g transform="rotate(-0.0)">
      <text x="0.000" y="0.000" font-family="Helvetica" text-anchor="middle" font-size="10pt" fill="#ffffff" > 40</text>
    </g>
  </g>
  <g transform="translate(246.626,274.300)">
    <g transform="rotate(-0.0)">
      <text x="0.000" y="0.000" font-family="Helvetica" text-anchor="middle" font-size="10pt" fill="#ffffff" > 60</text>
    </g>
  </g>
  <g transform="translate(315.313,274.300)">
    <g transform="rotate(-0.0)">
      <text x="0.000" y="0.000" font-family="Helvetica" text-anchor="middle" font-size="10pt" fill="#ffffff" > 80</text>
    </g>
  </g>
  <g transform="translate(384.000,274.300)">
    <g transform="rotate(-0.0)">
      <text x="0.000" y="0.000" font-family="Helvetica" text-anchor="middle" font-size="10pt" fill="#ffffff" >100</text>
    </g>
  </g>
      <polyline fill="none" stroke="#ffffff" stroke-width="0.5pt" stroke-dasharray="none" points="44.000,201.750 47.400,201.750 "/>
      <polyline fill="none" stroke="#ffffff" stroke-width="0.5pt" stroke-dasharray="none" points="44.000,145.500 47.400,145.500 "/>
      <polyline fill="none" stroke="#ffffff" stroke-width="0.5pt" stroke-dasharray="none" points="44.000,89.250 47.400,89.250 "/>
      <polyline fill="none" stroke="#ffffff" stroke-width="0.5pt" stroke-dasharray="none" points="44.000,258.000 44.000,33.000 "/>
      <polyline fill="none" stroke="#ffffff" stroke-width="0.5pt" stroke-dasharray="none" points="384.000,201.750 380.600,201.750 "/>
      <polyline fill="none" stroke="#ffffff" stroke-width="0.5pt" stroke-dasharray="none" points="384.000,145.500 380.600,145.500 "/>
      <polyline fill="none" stroke="#ffffff" stroke-width="0.5pt" stroke-dasharray="none" points="384.000,89.250 380.600,89.250 "/>
      <polyline fill="none" stroke="#ffffff" stroke-width="0.5pt" stroke-dasharray="none" points="384.000,258.000 384.000,33.000 "/>
  <g transform="translate(37.200,262.500)">
    <g transform="rotate(-0.0)">
      <text x="0.000" y="0.000" font-family="Helvetica" text-anchor="end" font-size="10pt" fill="#ffffff" >  0</text>
    </g>
  </g>
  <g transform="translate(37.200,206.250)">
    <g transform="rotate(-0.0)">
      <text x="0.000" y="0.000" font-family="Helvetica" text-anchor="end" font-size="10pt" fill="#ffffff" >0.3</text>
    </g>
  </g>
  <g transform="translate(37.200,150.000)">
    <g transform="rotate(-0.0)">
      <text x="0.000" y="0.000" font-family="Helvetica" text-anchor="end" font-size="10pt" fill="#ffffff" >0.6</text>
    </g>
  </g>
  <g transform="translate(37.200,93.750)">
    <g transform="rotate(-0.0)">
      <text x="0.000" y="0.000" font-family="Helvetica" text-anchor="end" font-size="10pt" fill="#ffffff" >0.9</text>
    </g>
  </g>
  <g transform="translate(37.200,37.500)">
    <g transform="rotate(-0.0)">
      <text x="0.000" y="0.000" font-family="Helvetica" text-anchor="end" font-size="10pt" fill="#ffffff" >1.2</text>
    </g>
  </g>
      <polyline fill="none" stroke="#000000" stroke-width="0.5pt" stroke-dasharray="none" points="44.000,258.000 44.000,255.750 "/>
      <polyline fill="none" stroke="#000000" stroke-width="0.5pt" stroke-dasharray="none" points="44.000,258.000 44.000,258.000 "/>
    </g>
  </g>
  </g>
</svg>
