<?xml version="1.0" encoding="utf-8" standalone="no"?><!DOCTYPE svg PUBLIC "-//W3C//DTD SVG 1.1//EN" "http://www.w3.org/Graphics/SVG/1.1/DTD/svg11.dtd">
<svg preserveAspectRatio="xMinYMin meet" width="100%" height="100%" viewBox="0 0 400.000 300.000"  version="1.1" xmlns="http://www.w3.org/2000/svg" xmlns:xlink="http://www.w3.org/1999/xlink">
  <desc>Matlab Figure Converted by PLOT2SVG written by Juerg Schwizer</desc>
  <g id="topgroup">
  <rect x="0" y="0" width="400.000" height="300.000" fill="#ffffff" stroke="none" />
  <g id ="ID000000">
  <clipPath id="ID000001">
    <rect x="44.000" y="33.000" width="340.000" height="225.000"/>
  </clipPath>
      <polygon fill="#ffffff" fill-opacity="1.00" stroke="none" stroke-width="0.5pt" stroke-opacity="1.00" stroke-dasharray="none" points="44.000,258.000 384.000,258.000 384.000,33.000 44.000,33.000 "/>
      <polygon fill="#ffffff" fill-opacity="1.00" stroke="none" stroke-width="0.5pt" stroke-opacity="1.00" stroke-dasharray="none" points="44.000,33.000 384.000,33.000 384.000,33.000 44.000,33.000 "/>
      <polygon fill="#ffffff" fill-opacity="1.00" stroke="none" stroke-width="0.5pt" stroke-opacity="1.00" stroke-dasharray="none" points="44.000,258.000 44.000,258.000 44.000,33.000 44.000,33.000 "/>
    <g>
<g id="ID000002" clip-path="url(#ID000001)" >
      <polyline fill="none" stroke="#01b901" stroke-width="2.0pt" stroke-dasharray="none" points="44.000,235.281 47.434,241.620 50.869,245.887 54.303,245.277 57.737,242.759 61.172,242.466 64.606,237.572 68.040,240.191 71.475,250.905 74.909,229.577 78.343,225.283 81.778,238.397 85.212,242.361 88.646,235.872 92.081,236.289 95.515,240.726 98.949,234.394 102.384,237.199 105.818,237.727 109.253,250.931 112.687,237.951 116.121,245.799 119.556,240.882 122.990,233.898 126.424,242.640 129.859,243.222 133.293,240.288 136.727,237.838 140.162,254.561 143.596,243.249 147.030,230.563 150.465,255.845 153.899,248.820 157.333,227.405 160.768,244.226 164.202,241.240 167.636,243.163 171.071,240.166 174.505,241.172 177.939,244.623 181.374,250.552 184.808,247.602 188.242,235.584 191.677,242.908 195.111,235.543 198.545,238.820 201.980,234.765 205.414,243.930 208.848,229.583 212.283,235.752 215.717,234.621 219.152,242.419 222.586,242.371 226.020,228.526 229.455,251.900 232.889,238.437 236.323,236.211 239.758,242.916 243.192,240.145 246.626,234.817 250.061,232.089 253.495,237.029 256.929,229.845 260.364,243.784 263.798,244.223 267.232,241.265 270.667,258.000 274.101,234.107 277.535,255.625 280.970,249.541 284.404,249.301 287.838,230.813 291.273,243.858 294.707,247.168 298.141,244.448 301.576,246.749 305.010,220.500 308.444,243.177 311.879,231.296 315.313,239.609 318.747,235.428 322.182,241.093 325.616,238.669 329.051,252.292 332.485,236.696 335.919,246.923 339.354,237.002 342.788,250.022 346.222,230.364 349.657,239.578 353.091,233.329 356.525,246.003 359.960,238.110 363.394,255.651 366.828,249.882 370.263,237.435 373.697,234.589 377.131,234.732 380.566,232.727 384.000,239.026 "/>
<g>
</g>
</g>
<g id="ID000003" clip-path="url(#ID000001)" >
      <polyline fill="none" stroke="#01b901" stroke-width="2.0pt" stroke-dasharray="none" points="44.000,147.413 47.434,165.739 50.869,153.801 54.303,159.983 57.737,164.608 61.172,168.314 64.606,159.538 68.040,168.399 71.475,146.450 74.909,169.816 78.343,168.791 81.778,147.378 85.212,158.999 88.646,160.126 92.081,168.944 95.515,177.307 98.949,162.347 102.384,159.888 105.818,170.569 109.253,181.606 112.687,156.704 116.121,157.726 119.556,164.769 122.990,171.047 126.424,152.063 129.859,171.937 133.293,163.001 136.727,177.418 140.162,166.458 143.596,174.136 147.030,145.500 150.465,166.422 153.899,156.658 157.333,161.196 160.768,169.694 164.202,175.383 167.636,148.876 171.071,167.698 174.505,173.045 177.939,159.135 181.374,152.726 184.808,177.438 188.242,174.124 191.677,157.334 195.111,156.604 198.545,163.917 201.980,163.884 205.414,150.974 208.848,176.480 212.283,165.603 215.717,149.544 219.152,176.041 222.586,151.819 226.020,147.250 229.455,168.682 232.889,167.097 236.323,171.995 239.758,154.757 243.192,159.677 246.626,154.206 250.061,164.418 253.495,171.808 256.929,158.285 260.364,166.325 263.798,170.138 267.232,155.235 270.667,169.999 274.101,174.862 277.535,154.022 280.970,166.954 284.404,166.327 287.838,177.399 291.273,183.000 294.707,150.562 298.141,156.439 301.576,164.243 305.010,154.604 308.444,173.403 311.879,153.541 315.313,150.664 318.747,148.620 322.182,165.332 325.616,170.861 329.051,151.703 332.485,171.478 335.919,156.059 339.354,167.682 342.788,166.859 346.222,164.538 349.657,163.203 353.091,166.624 356.525,165.313 359.960,164.759 363.394,162.329 366.828,152.370 370.263,153.259 373.697,162.913 377.131,159.752 380.566,154.809 384.000,161.501 "/>
<g>
</g>
</g>
<g id="ID000004" clip-path="url(#ID000001)" >
      <polyline fill="none" stroke="#01b901" stroke-width="2.0pt" stroke-dasharray="none" points="44.000,121.831 47.434,128.403 50.869,130.614 54.303,127.047 57.737,133.344 61.172,124.265 64.606,124.018 68.040,108.000 71.475,134.786 74.909,142.654 78.343,140.207 81.778,110.267 85.212,122.544 88.646,138.050 92.081,134.130 95.515,120.430 98.949,118.921 102.384,142.577 105.818,135.304 109.253,117.833 112.687,137.378 116.121,129.225 119.556,136.070 122.990,133.900 126.424,129.018 129.859,112.737 133.293,140.849 136.727,133.853 140.162,131.849 143.596,131.063 147.030,136.200 150.465,126.968 153.899,133.179 157.333,126.211 160.768,136.601 164.202,124.199 167.636,140.290 171.071,142.546 174.505,130.576 177.939,133.043 181.374,127.555 184.808,122.394 188.242,134.030 191.677,125.194 195.111,120.385 198.545,133.452 201.980,144.146 205.414,122.170 208.848,136.479 212.283,121.140 215.717,123.348 219.152,124.822 222.586,132.204 226.020,124.773 229.455,121.101 232.889,122.152 236.323,123.576 239.758,130.204 243.192,139.904 246.626,139.002 250.061,129.984 253.495,119.866 256.929,118.369 260.364,113.617 263.798,135.271 267.232,134.561 270.667,137.328 274.101,127.614 277.535,132.351 280.970,130.481 284.404,136.788 287.838,134.638 291.273,140.674 294.707,117.930 298.141,137.553 301.576,130.519 305.010,130.431 308.444,128.827 311.879,145.500 315.313,137.490 318.747,122.119 322.182,121.392 325.616,134.764 329.051,126.417 332.485,133.221 335.919,135.867 339.354,124.896 342.788,125.186 346.222,126.583 349.657,136.984 353.091,140.074 356.525,138.234 359.960,115.414 363.394,132.550 366.828,132.341 370.263,115.894 373.697,132.486 377.131,134.715 380.566,132.888 384.000,135.545 "/>
<g>
</g>
</g>
<g id="ID000005" clip-path="url(#ID000001)" >
      <polyline fill="none" stroke="#01b901" stroke-width="2.0pt" stroke-dasharray="none" points="44.000,87.158 47.434,95.128 50.869,88.734 54.303,85.154 57.737,92.712 61.172,75.358 64.606,84.957 68.040,90.782 71.475,78.553 74.909,79.991 78.343,94.576 81.778,91.743 85.212,90.049 88.646,97.061 92.081,95.207 95.515,92.810 98.949,103.404 102.384,87.173 105.818,91.245 109.253,89.669 112.687,94.056 116.121,92.894 119.556,83.149 122.990,89.941 126.424,96.691 129.859,92.689 133.293,91.123 136.727,83.799 140.162,73.982 143.596,79.253 147.030,85.404 150.465,82.455 153.899,93.205 157.333,103.628 160.768,84.174 164.202,96.310 167.636,90.952 171.071,89.215 174.505,93.855 177.939,95.810 181.374,87.847 184.808,89.375 188.242,86.612 191.677,96.136 195.111,75.695 198.545,86.108 201.980,79.617 205.414,70.500 208.848,75.348 212.283,77.735 215.717,97.017 219.152,91.809 222.586,85.010 226.020,86.339 229.455,91.510 232.889,82.868 236.323,87.691 239.758,98.371 243.192,92.820 246.626,77.723 250.061,96.384 253.495,82.716 256.929,79.051 260.364,85.633 263.798,88.940 267.232,83.541 270.667,92.303 274.101,84.210 277.535,90.760 280.970,82.895 284.404,87.743 287.838,81.582 291.273,74.950 294.707,88.239 298.141,80.822 301.576,86.346 305.010,88.968 308.444,108.000 311.879,93.132 315.313,77.799 318.747,87.167 322.182,79.274 325.616,89.597 329.051,84.650 332.485,88.028 335.919,92.900 339.354,93.436 342.788,77.877 346.222,80.235 349.657,76.214 353.091,92.240 356.525,77.332 359.960,97.387 363.394,85.851 366.828,83.909 370.263,92.526 373.697,92.443 377.131,89.550 380.566,103.404 384.000,85.332 "/>
<g>
</g>
</g>
<g id="ID000006" clip-path="url(#ID000001)" >
      <polyline fill="none" stroke="#01b901" stroke-width="2.0pt" stroke-dasharray="none" points="44.000,55.127 47.434,42.648 50.869,61.782 54.303,56.456 57.737,49.198 61.172,57.997 64.606,47.846 68.040,53.384 71.475,34.141 74.909,49.644 78.343,53.906 81.778,42.582 85.212,43.800 88.646,42.537 92.081,44.855 95.515,47.345 98.949,53.401 102.384,47.862 105.818,50.392 109.253,56.604 112.687,39.255 116.121,46.223 119.556,49.526 122.990,44.055 126.424,43.781 129.859,46.891 133.293,48.057 136.727,50.381 140.162,52.489 143.596,45.608 147.030,44.124 150.465,58.511 153.899,55.629 157.333,46.843 160.768,70.500 164.202,56.482 167.636,49.366 171.071,48.672 174.505,48.791 177.939,34.188 181.374,56.922 184.808,34.101 188.242,60.679 191.677,60.492 195.111,57.813 198.545,49.928 201.980,57.100 205.414,40.213 208.848,51.426 212.283,59.239 215.717,47.145 219.152,58.087 222.586,39.585 226.020,51.127 229.455,43.811 232.889,60.383 236.323,62.285 239.758,40.720 243.192,56.410 246.626,59.870 250.061,39.069 253.495,56.290 256.929,39.784 260.364,44.661 263.798,47.154 267.232,43.529 270.667,39.200 274.101,40.244 277.535,46.032 280.970,51.099 284.404,46.855 287.838,59.743 291.273,66.955 294.707,51.087 298.141,51.389 301.576,44.657 305.010,51.950 308.444,43.666 311.879,54.548 315.313,48.671 318.747,45.228 322.182,47.925 325.616,33.000 329.051,53.416 332.485,45.775 335.919,39.670 339.354,52.307 342.788,52.784 346.222,46.404 349.657,46.211 353.091,49.503 356.525,51.840 359.960,47.442 363.394,54.368 366.828,45.661 370.263,47.655 373.697,47.908 377.131,50.139 380.566,54.776 384.000,56.238 "/>
<g>
</g>
</g>
<g id="ID000007" >
</g>
<g id="ID000008" >
</g>
<g id="ID000009" >
</g>
    </g>
    <g>
      <polyline fill="none" stroke="#ffffff" stroke-width="0.5pt" stroke-dasharray="none" points="109.253,258.000 109.253,254.600 "/>
      <polyline fill="none" stroke="#ffffff" stroke-width="0.5pt" stroke-dasharray="none" points="177.939,258.000 177.939,254.600 "/>
      <polyline fill="none" stroke="#ffffff" stroke-width="0.5pt" stroke-dasharray="none" points="246.626,258.000 246.626,254.600 "/>
      <polyline fill="none" stroke="#ffffff" stroke-width="0.5pt" stroke-dasharray="none" points="315.313,258.000 315.313,254.600 "/>
      <polyline fill="none" stroke="#ffffff" stroke-width="0.5pt" stroke-dasharray="none" points="44.000,258.000 384.000,258.000 "/>
      <polyline fill="none" stroke="#ffffff" stroke-width="0.5pt" stroke-dasharray="none" points="109.253,33.000 109.253,36.400 "/>
      <polyline fill="none" stroke="#ffffff" stroke-width="0.5pt" stroke-dasharray="none" points="177.939,33.000 177.939,36.400 "/>
      <polyline fill="none" stroke="#ffffff" stroke-width="0.5pt" stroke-dasharray="none" points="246.626,33.000 246.626,36.400 "/>
      <polyline fill="none" stroke="#ffffff" stroke-width="0.5pt" stroke-dasharray="none" points="315.313,33.000 315.313,36.400 "/>
      <polyline fill="none" stroke="#ffffff" stroke-width="0.5pt" stroke-dasharray="none" points="44.000,33.000 384.000,33.000 "/>
  <g transform="translate(44.000,274.300)">
    <g transform="rotate(-0.0)">
      <text x="0.000" y="0.000" font-family="Helvetica" text-anchor="middle" font-size="10pt" fill="#ffffff" >  1</text>
    </g>
  </g>
  <g transform="translate(109.253,274.300)">
    <g transform="rotate(-0.0)">
      <text x="0.000" y="0.000" font-family="Helvetica" text-anchor="middle" font-size="10pt" fill="#ffffff" > 20</text>
    </g>
  </g>
  <g transform="translate(177.939,274.300)">
    <g transform="rotate(-0.0)">
      <text x="0.000" y="0.000" font-family="Helvetica" text-anchor="middle" font-size="10pt" fill="#ffffff" > 40</text>
    </g>
  </g>
  <g transform="translate(246.626,274.300)">
    <g transform="rotate(-0.0)">
      <text x="0.000" y="0.000" font-family="Helvetica" text-anchor="middle" font-size="10pt" fill="#ffffff" > 60</text>
    </g>
  </g>
  <g transform="translate(315.313,274.300)">
    <g transform="rotate(-0.0)">
      <text x="0.000" y="0.000" font-family="Helvetica" text-anchor="middle" font-size="10pt" fill="#ffffff" > 80</text>
    </g>
  </g>
  <g transform="translate(384.000,274.300)">
    <g transform="rotate(-0.0)">
      <text x="0.000" y="0.000" font-family="Helvetica" text-anchor="middle" font-size="10pt" fill="#ffffff" >100</text>
    </g>
  </g>
      <polyline fill="none" stroke="#ffffff" stroke-width="0.5pt" stroke-dasharray="none" points="44.000,201.750 47.400,201.750 "/>
      <polyline fill="none" stroke="#ffffff" stroke-width="0.5pt" stroke-dasharray="none" points="44.000,145.500 47.400,145.500 "/>
      <polyline fill="none" stroke="#ffffff" stroke-width="0.5pt" stroke-dasharray="none" points="44.000,89.250 47.400,89.250 "/>
      <polyline fill="none" stroke="#ffffff" stroke-width="0.5pt" stroke-dasharray="none" points="44.000,258.000 44.000,33.000 "/>
      <polyline fill="none" stroke="#ffffff" stroke-width="0.5pt" stroke-dasharray="none" points="384.000,201.750 380.600,201.750 "/>
      <polyline fill="none" stroke="#ffffff" stroke-width="0.5pt" stroke-dasharray="none" points="384.000,145.500 380.600,145.500 "/>
      <polyline fill="none" stroke="#ffffff" stroke-width="0.5pt" stroke-dasharray="none" points="384.000,89.250 380.600,89.250 "/>
      <polyline fill="none" stroke="#ffffff" stroke-width="0.5pt" stroke-dasharray="none" points="384.000,258.000 384.000,33.000 "/>
  <g transform="translate(37.200,262.500)">
    <g transform="rotate(-0.0)">
      <text x="0.000" y="0.000" font-family="Helvetica" text-anchor="end" font-size="10pt" fill="#ffffff" >  0</text>
    </g>
  </g>
  <g transform="translate(37.200,206.250)">
    <g transform="rotate(-0.0)">
      <text x="0.000" y="0.000" font-family="Helvetica" text-anchor="end" font-size="10pt" fill="#ffffff" >0.3</text>
    </g>
  </g>
  <g transform="translate(37.200,150.000)">
    <g transform="rotate(-0.0)">
      <text x="0.000" y="0.000" font-family="Helvetica" text-anchor="end" font-size="10pt" fill="#ffffff" >0.6</text>
    </g>
  </g>
  <g transform="translate(37.200,93.750)">
    <g transform="rotate(-0.0)">
      <text x="0.000" y="0.000" font-family="Helvetica" text-anchor="end" font-size="10pt" fill="#ffffff" >0.9</text>
    </g>
  </g>
  <g transform="translate(37.200,37.500)">
    <g transform="rotate(-0.0)">
      <text x="0.000" y="0.000" font-family="Helvetica" text-anchor="end" font-size="10pt" fill="#ffffff" >1.2</text>
    </g>
  </g>
      <polyline fill="none" stroke="#000000" stroke-width="0.5pt" stroke-dasharray="none" points="44.000,258.000 44.000,255.750 "/>
      <polyline fill="none" stroke="#000000" stroke-width="0.5pt" stroke-dasharray="none" points="44.000,258.000 44.000,258.000 "/>
    </g>
  </g>
  </g>
</svg>
