<?xml version="1.0" encoding="utf-8" standalone="no"?><!DOCTYPE svg PUBLIC "-//W3C//DTD SVG 1.1//EN" "http://www.w3.org/Graphics/SVG/1.1/DTD/svg11.dtd">
<svg preserveAspectRatio="xMinYMin meet" width="100%" height="100%" viewBox="0 0 400.000 300.000"  version="1.1" xmlns="http://www.w3.org/2000/svg" xmlns:xlink="http://www.w3.org/1999/xlink">
  <desc>Matlab Figure Converted by PLOT2SVG written by Juerg Schwizer</desc>
  <g id="topgroup">
  <rect x="0" y="0" width="400.000" height="300.000" fill="#ffffff" stroke="none" />
  <g id ="ID000000">
  <clipPath id="ID000001">
    <rect x="44.000" y="33.000" width="340.000" height="225.000"/>
  </clipPath>
      <polygon fill="#ffffff" fill-opacity="1.00" stroke="none" stroke-width="0.5pt" stroke-opacity="1.00" stroke-dasharray="none" points="44.000,258.000 384.000,258.000 384.000,33.000 44.000,33.000 "/>
      <polygon fill="#ffffff" fill-opacity="1.00" stroke="none" stroke-width="0.5pt" stroke-opacity="1.00" stroke-dasharray="none" points="44.000,33.000 384.000,33.000 384.000,33.000 44.000,33.000 "/>
      <polygon fill="#ffffff" fill-opacity="1.00" stroke="none" stroke-width="0.5pt" stroke-opacity="1.00" stroke-dasharray="none" points="44.000,258.000 44.000,258.000 44.000,33.000 44.000,33.000 "/>
    <g>
<g id="ID000002" clip-path="url(#ID000001)" >
      <polyline fill="none" stroke="#00d0d0" stroke-width="2.0pt" stroke-dasharray="none" points="44.000,247.339 47.434,242.459 50.869,242.561 54.303,243.170 57.737,241.786 61.172,233.667 64.606,242.492 68.040,245.413 71.475,236.353 74.909,239.985 78.343,233.808 81.778,230.595 85.212,251.325 88.646,236.456 92.081,248.388 95.515,242.851 98.949,231.031 102.384,233.114 105.818,237.707 109.253,244.223 112.687,231.091 116.121,220.500 119.556,250.639 122.990,236.549 126.424,235.907 129.859,248.828 133.293,246.878 136.727,248.519 140.162,234.448 143.596,228.590 147.030,236.239 150.465,246.362 153.899,242.521 157.333,228.536 160.768,236.746 164.202,235.261 167.636,249.357 171.071,239.138 174.505,240.186 177.939,237.599 181.374,240.530 184.808,233.486 188.242,239.265 191.677,247.547 195.111,243.246 198.545,247.905 201.980,229.621 205.414,239.730 208.848,258.000 212.283,252.908 215.717,250.475 219.152,230.032 222.586,246.779 226.020,252.329 229.455,240.177 232.889,236.473 236.323,244.287 239.758,252.065 243.192,229.871 246.626,244.821 250.061,236.915 253.495,253.944 256.929,245.296 260.364,243.100 263.798,239.755 267.232,248.674 270.667,245.739 274.101,224.340 277.535,242.022 280.970,237.948 284.404,242.216 287.838,246.673 291.273,230.049 294.707,226.493 298.141,251.120 301.576,243.138 305.010,236.364 308.444,238.575 311.879,242.849 315.313,236.003 318.747,254.767 322.182,243.832 325.616,248.554 329.051,238.980 332.485,237.631 335.919,233.736 339.354,250.223 342.788,235.425 346.222,237.882 349.657,239.169 353.091,245.582 356.525,232.728 359.960,250.390 363.394,242.795 366.828,237.827 370.263,237.617 373.697,235.842 377.131,231.826 380.566,234.792 384.000,238.139 "/>
<g>
</g>
</g>
<g id="ID000003" clip-path="url(#ID000001)" >
      <polyline fill="none" stroke="#00d0d0" stroke-width="2.0pt" stroke-dasharray="none" points="44.000,166.193 47.434,165.293 50.869,154.408 54.303,168.877 57.737,162.002 61.172,167.780 64.606,169.990 68.040,163.345 71.475,167.331 74.909,171.393 78.343,149.108 81.778,166.120 85.212,164.331 88.646,166.529 92.081,164.665 95.515,159.622 98.949,151.510 102.384,167.314 105.818,166.598 109.253,165.287 112.687,170.886 116.121,169.505 119.556,146.125 122.990,162.334 126.424,172.427 129.859,171.208 133.293,173.561 136.727,171.139 140.162,158.715 143.596,156.056 147.030,160.198 150.465,150.172 153.899,165.907 157.333,158.255 160.768,170.482 164.202,166.467 167.636,162.350 171.071,170.557 174.505,161.928 177.939,169.153 181.374,180.141 184.808,168.402 188.242,169.922 191.677,163.981 195.111,159.743 198.545,155.024 201.980,154.909 205.414,163.171 208.848,157.415 212.283,168.974 215.717,170.290 219.152,163.215 222.586,160.841 226.020,165.604 229.455,148.501 232.889,159.748 236.323,149.800 239.758,157.367 243.192,164.269 246.626,169.297 250.061,169.090 253.495,170.366 256.929,160.568 260.364,165.604 263.798,161.959 267.232,163.267 270.667,159.556 274.101,161.749 277.535,145.500 280.970,175.377 284.404,181.070 287.838,171.082 291.273,146.301 294.707,149.616 298.141,149.565 301.576,160.089 305.010,183.000 308.444,166.168 311.879,163.648 315.313,173.289 318.747,149.664 322.182,172.055 325.616,172.945 329.051,172.829 332.485,162.792 335.919,162.988 339.354,159.839 342.788,165.786 346.222,155.487 349.657,163.610 353.091,180.806 356.525,179.972 359.960,150.261 363.394,178.331 366.828,176.177 370.263,162.379 373.697,168.187 377.131,171.978 380.566,155.547 384.000,171.875 "/>
<g>
</g>
</g>
<g id="ID000004" clip-path="url(#ID000001)" >
      <polyline fill="none" stroke="#00d0d0" stroke-width="2.0pt" stroke-dasharray="none" points="44.000,108.668 47.434,124.683 50.869,131.097 54.303,136.246 57.737,121.563 61.172,126.796 64.606,142.323 68.040,130.134 71.475,120.671 74.909,137.722 78.343,136.687 81.778,114.257 85.212,120.140 88.646,145.192 92.081,120.154 95.515,119.979 98.949,144.954 102.384,139.217 105.818,134.459 109.253,135.048 112.687,111.049 116.121,114.158 119.556,129.675 122.990,139.277 126.424,123.773 129.859,117.246 133.293,132.733 136.727,131.070 140.162,113.273 143.596,139.316 147.030,123.102 150.465,136.590 153.899,125.084 157.333,125.915 160.768,141.156 164.202,131.984 167.636,136.988 171.071,124.931 174.505,136.285 177.939,116.140 181.374,127.719 184.808,134.438 188.242,134.036 191.677,124.025 195.111,124.799 198.545,120.165 201.980,126.282 205.414,135.551 208.848,114.879 212.283,137.564 215.717,127.408 219.152,128.458 222.586,126.677 226.020,145.500 229.455,118.133 232.889,120.937 236.323,132.140 239.758,126.514 243.192,134.802 246.626,129.532 250.061,114.044 253.495,129.935 256.929,108.000 260.364,124.686 263.798,124.526 267.232,119.358 270.667,119.291 274.101,125.880 277.535,122.468 280.970,119.038 284.404,135.872 287.838,127.486 291.273,125.851 294.707,137.089 298.141,125.607 301.576,121.410 305.010,120.713 308.444,124.119 311.879,142.024 315.313,137.036 318.747,139.465 322.182,128.316 325.616,130.024 329.051,133.839 332.485,130.081 335.919,124.876 339.354,119.947 342.788,142.501 346.222,145.183 349.657,126.045 353.091,126.229 356.525,128.960 359.960,123.656 363.394,132.059 366.828,129.994 370.263,137.432 373.697,126.799 377.131,122.180 380.566,111.440 384.000,131.872 "/>
<g>
</g>
</g>
<g id="ID000005" clip-path="url(#ID000001)" >
      <polyline fill="none" stroke="#00d0d0" stroke-width="2.0pt" stroke-dasharray="none" points="44.000,90.382 47.434,76.014 50.869,95.381 54.303,79.722 57.737,83.477 61.172,82.650 64.606,74.226 68.040,90.953 71.475,97.187 74.909,91.608 78.343,85.537 81.778,87.337 85.212,83.539 88.646,90.637 92.081,88.994 95.515,77.005 98.949,87.933 102.384,98.452 105.818,82.300 109.253,74.092 112.687,95.073 116.121,83.789 119.556,88.791 122.990,93.090 126.424,103.634 129.859,83.123 133.293,91.040 136.727,87.055 140.162,82.236 143.596,88.533 147.030,85.377 150.465,93.939 153.899,80.430 157.333,92.675 160.768,85.422 164.202,82.028 167.636,86.163 171.071,85.493 174.505,92.530 177.939,80.941 181.374,86.536 184.808,94.530 188.242,87.124 191.677,89.225 195.111,99.769 198.545,82.343 201.980,84.726 205.414,88.507 208.848,101.006 212.283,96.037 215.717,97.293 219.152,84.423 222.586,70.500 226.020,85.504 229.455,81.711 232.889,97.626 236.323,103.350 239.758,98.795 243.192,81.738 246.626,80.708 250.061,108.000 253.495,98.296 256.929,83.952 260.364,82.644 263.798,91.901 267.232,91.348 270.667,82.778 274.101,82.688 277.535,88.049 280.970,90.626 284.404,75.918 287.838,75.277 291.273,82.160 294.707,101.275 298.141,95.465 301.576,88.420 305.010,85.589 308.444,94.966 311.879,79.468 315.313,94.867 318.747,78.402 322.182,93.598 325.616,96.162 329.051,90.379 332.485,103.832 335.919,83.674 339.354,86.884 342.788,99.409 346.222,100.495 349.657,81.938 353.091,80.683 356.525,86.909 359.960,79.677 363.394,90.274 366.828,86.293 370.263,89.265 373.697,79.725 377.131,89.514 380.566,80.276 384.000,91.929 "/>
<g>
</g>
</g>
<g id="ID000006" clip-path="url(#ID000001)" >
      <polyline fill="none" stroke="#00d0d0" stroke-width="2.0pt" stroke-dasharray="none" points="44.000,53.598 47.434,54.607 50.869,57.374 54.303,43.475 57.737,58.549 61.172,53.322 64.606,55.741 68.040,54.391 71.475,38.553 74.909,43.413 78.343,49.081 81.778,51.352 85.212,52.659 88.646,50.463 92.081,49.161 95.515,55.146 98.949,49.434 102.384,60.932 105.818,62.160 109.253,49.298 112.687,45.206 116.121,61.769 119.556,49.249 122.990,42.804 126.424,70.500 129.859,51.007 133.293,59.380 136.727,49.362 140.162,51.786 143.596,58.319 147.030,44.113 150.465,48.083 153.899,51.492 157.333,44.700 160.768,64.882 164.202,43.086 167.636,57.119 171.071,54.459 174.505,49.173 177.939,41.835 181.374,58.214 184.808,53.036 188.242,61.435 191.677,51.180 195.111,46.594 198.545,33.000 201.980,43.589 205.414,47.710 208.848,62.341 212.283,40.967 215.717,63.974 219.152,49.307 222.586,55.807 226.020,46.045 229.455,51.918 232.889,66.287 236.323,47.663 239.758,56.194 243.192,52.553 246.626,56.167 250.061,51.305 253.495,50.985 256.929,56.425 260.364,65.809 263.798,58.126 267.232,45.417 270.667,45.982 274.101,49.537 277.535,53.296 280.970,56.758 284.404,63.168 287.838,37.204 291.273,66.045 294.707,53.345 298.141,53.737 301.576,45.014 305.010,51.861 308.444,57.432 311.879,43.540 315.313,58.059 318.747,42.305 322.182,39.243 325.616,51.715 329.051,51.306 332.485,42.568 335.919,56.750 339.354,48.083 342.788,44.842 346.222,49.105 349.657,52.282 353.091,51.215 356.525,40.421 359.960,49.246 363.394,56.441 366.828,58.991 370.263,48.853 373.697,54.570 377.131,44.536 380.566,54.685 384.000,49.349 "/>
<g>
</g>
</g>
<g id="ID000007" >
</g>
<g id="ID000008" >
</g>
<g id="ID000009" >
</g>
    </g>
    <g>
      <polyline fill="none" stroke="#ffffff" stroke-width="0.5pt" stroke-dasharray="none" points="109.253,258.000 109.253,254.600 "/>
      <polyline fill="none" stroke="#ffffff" stroke-width="0.5pt" stroke-dasharray="none" points="177.939,258.000 177.939,254.600 "/>
      <polyline fill="none" stroke="#ffffff" stroke-width="0.5pt" stroke-dasharray="none" points="246.626,258.000 246.626,254.600 "/>
      <polyline fill="none" stroke="#ffffff" stroke-width="0.5pt" stroke-dasharray="none" points="315.313,258.000 315.313,254.600 "/>
      <polyline fill="none" stroke="#ffffff" stroke-width="0.5pt" stroke-dasharray="none" points="44.000,258.000 384.000,258.000 "/>
      <polyline fill="none" stroke="#ffffff" stroke-width="0.5pt" stroke-dasharray="none" points="109.253,33.000 109.253,36.400 "/>
      <polyline fill="none" stroke="#ffffff" stroke-width="0.5pt" stroke-dasharray="none" points="177.939,33.000 177.939,36.400 "/>
      <polyline fill="none" stroke="#ffffff" stroke-width="0.5pt" stroke-dasharray="none" points="246.626,33.000 246.626,36.400 "/>
      <polyline fill="none" stroke="#ffffff" stroke-width="0.5pt" stroke-dasharray="none" points="315.313,33.000 315.313,36.400 "/>
      <polyline fill="none" stroke="#ffffff" stroke-width="0.5pt" stroke-dasharray="none" points="44.000,33.000 384.000,33.000 "/>
  <g transform="translate(44.000,274.300)">
    <g transform="rotate(-0.0)">
      <text x="0.000" y="0.000" font-family="Helvetica" text-anchor="middle" font-size="10pt" fill="#ffffff" >  1</text>
    </g>
  </g>
  <g transform="translate(109.253,274.300)">
    <g transform="rotate(-0.0)">
      <text x="0.000" y="0.000" font-family="Helvetica" text-anchor="middle" font-size="10pt" fill="#ffffff" > 20</text>
    </g>
  </g>
  <g transform="translate(177.939,274.300)">
    <g transform="rotate(-0.0)">
      <text x="0.000" y="0.000" font-family="Helvetica" text-anchor="middle" font-size="10pt" fill="#ffffff" > 40</text>
    </g>
  </g>
  <g transform="translate(246.626,274.300)">
    <g transform="rotate(-0.0)">
      <text x="0.000" y="0.000" font-family="Helvetica" text-anchor="middle" font-size="10pt" fill="#ffffff" > 60</text>
    </g>
  </g>
  <g transform="translate(315.313,274.300)">
    <g transform="rotate(-0.0)">
      <text x="0.000" y="0.000" font-family="Helvetica" text-anchor="middle" font-size="10pt" fill="#ffffff" > 80</text>
    </g>
  </g>
  <g transform="translate(384.000,274.300)">
    <g transform="rotate(-0.0)">
      <text x="0.000" y="0.000" font-family="Helvetica" text-anchor="middle" font-size="10pt" fill="#ffffff" >100</text>
    </g>
  </g>
      <polyline fill="none" stroke="#ffffff" stroke-width="0.5pt" stroke-dasharray="none" points="44.000,201.750 47.400,201.750 "/>
      <polyline fill="none" stroke="#ffffff" stroke-width="0.5pt" stroke-dasharray="none" points="44.000,145.500 47.400,145.500 "/>
      <polyline fill="none" stroke="#ffffff" stroke-width="0.5pt" stroke-dasharray="none" points="44.000,89.250 47.400,89.250 "/>
      <polyline fill="none" stroke="#ffffff" stroke-width="0.5pt" stroke-dasharray="none" points="44.000,258.000 44.000,33.000 "/>
      <polyline fill="none" stroke="#ffffff" stroke-width="0.5pt" stroke-dasharray="none" points="384.000,201.750 380.600,201.750 "/>
      <polyline fill="none" stroke="#ffffff" stroke-width="0.5pt" stroke-dasharray="none" points="384.000,145.500 380.600,145.500 "/>
      <polyline fill="none" stroke="#ffffff" stroke-width="0.5pt" stroke-dasharray="none" points="384.000,89.250 380.600,89.250 "/>
      <polyline fill="none" stroke="#ffffff" stroke-width="0.5pt" stroke-dasharray="none" points="384.000,258.000 384.000,33.000 "/>
  <g transform="translate(37.200,262.500)">
    <g transform="rotate(-0.0)">
      <text x="0.000" y="0.000" font-family="Helvetica" text-anchor="end" font-size="10pt" fill="#ffffff" >  0</text>
    </g>
  </g>
  <g transform="translate(37.200,206.250)">
    <g transform="rotate(-0.0)">
      <text x="0.000" y="0.000" font-family="Helvetica" text-anchor="end" font-size="10pt" fill="#ffffff" >0.3</text>
    </g>
  </g>
  <g transform="translate(37.200,150.000)">
    <g transform="rotate(-0.0)">
      <text x="0.000" y="0.000" font-family="Helvetica" text-anchor="end" font-size="10pt" fill="#ffffff" >0.6</text>
    </g>
  </g>
  <g transform="translate(37.200,93.750)">
    <g transform="rotate(-0.0)">
      <text x="0.000" y="0.000" font-family="Helvetica" text-anchor="end" font-size="10pt" fill="#ffffff" >0.9</text>
    </g>
  </g>
  <g transform="translate(37.200,37.500)">
    <g transform="rotate(-0.0)">
      <text x="0.000" y="0.000" font-family="Helvetica" text-anchor="end" font-size="10pt" fill="#ffffff" >1.2</text>
    </g>
  </g>
      <polyline fill="none" stroke="#000000" stroke-width="0.5pt" stroke-dasharray="none" points="44.000,258.000 44.000,255.750 "/>
      <polyline fill="none" stroke="#000000" stroke-width="0.5pt" stroke-dasharray="none" points="44.000,258.000 44.000,258.000 "/>
    </g>
  </g>
  </g>
</svg>
