<?xml version="1.0" encoding="utf-8" standalone="no"?><!DOCTYPE svg PUBLIC "-//W3C//DTD SVG 1.1//EN" "http://www.w3.org/Graphics/SVG/1.1/DTD/svg11.dtd">
<svg preserveAspectRatio="xMinYMin meet" width="100%" height="100%" viewBox="0 0 400.000 300.000"  version="1.1" xmlns="http://www.w3.org/2000/svg" xmlns:xlink="http://www.w3.org/1999/xlink">
  <desc>Matlab Figure Converted by PLOT2SVG written by Juerg Schwizer</desc>
  <g id="topgroup">
  <rect x="0" y="0" width="400.000" height="300.000" fill="#ffffff" stroke="none" />
  <g id ="ID000000">
  <clipPath id="ID000001">
    <rect x="44.000" y="33.000" width="340.000" height="225.000"/>
  </clipPath>
      <polygon fill="#ffffff" fill-opacity="1.00" stroke="none" stroke-width="0.5pt" stroke-opacity="1.00" stroke-dasharray="none" points="44.000,258.000 384.000,258.000 384.000,33.000 44.000,33.000 "/>
      <polygon fill="#ffffff" fill-opacity="1.00" stroke="none" stroke-width="0.5pt" stroke-opacity="1.00" stroke-dasharray="none" points="44.000,33.000 384.000,33.000 384.000,33.000 44.000,33.000 "/>
      <polygon fill="#ffffff" fill-opacity="1.00" stroke="none" stroke-width="0.5pt" stroke-opacity="1.00" stroke-dasharray="none" points="44.000,258.000 44.000,258.000 44.000,33.000 44.000,33.000 "/>
    <g>
<g id="ID000002" clip-path="url(#ID000001)" >
      <polyline fill="none" stroke="#01b901" stroke-width="2.0pt" stroke-dasharray="none" points="44.000,237.967 47.434,232.874 50.869,239.260 54.303,234.272 57.737,220.500 61.172,255.530 64.606,239.881 68.040,238.076 71.475,240.947 74.909,247.154 78.343,244.313 81.778,248.512 85.212,243.196 88.646,244.735 92.081,256.538 95.515,235.986 98.949,232.674 102.384,237.514 105.818,240.739 109.253,230.085 112.687,224.146 116.121,228.992 119.556,236.381 122.990,237.788 126.424,240.663 129.859,239.223 133.293,242.492 136.727,241.964 140.162,229.281 143.596,246.348 147.030,255.765 150.465,245.586 153.899,244.669 157.333,240.230 160.768,235.307 164.202,238.507 167.636,236.278 171.071,258.000 174.505,235.664 177.939,235.232 181.374,236.973 184.808,240.601 188.242,243.798 191.677,243.938 195.111,247.711 198.545,237.753 201.980,232.438 205.414,236.160 208.848,245.873 212.283,241.064 215.717,249.289 219.152,247.616 222.586,236.293 226.020,241.205 229.455,249.136 232.889,237.652 236.323,246.338 239.758,248.736 243.192,244.517 246.626,232.026 250.061,229.474 253.495,242.539 256.929,243.144 260.364,245.058 263.798,246.311 267.232,241.933 270.667,234.241 274.101,237.705 277.535,227.297 280.970,222.266 284.404,249.823 287.838,248.064 291.273,221.935 294.707,238.766 298.141,238.577 301.576,240.030 305.010,243.794 308.444,248.212 311.879,226.092 315.313,235.005 318.747,231.453 322.182,255.261 325.616,237.740 329.051,237.741 332.485,245.614 335.919,243.944 339.354,242.788 342.788,239.634 346.222,224.295 349.657,236.900 353.091,252.013 356.525,236.416 359.960,239.801 363.394,238.463 366.828,242.262 370.263,248.866 373.697,241.235 377.131,238.372 380.566,252.705 384.000,244.002 "/>
<g>
</g>
</g>
<g id="ID000003" clip-path="url(#ID000001)" >
      <polyline fill="none" stroke="#01b901" stroke-width="2.0pt" stroke-dasharray="none" points="44.000,175.265 47.434,158.725 50.869,165.395 54.303,169.662 57.737,160.120 61.172,164.518 64.606,159.012 68.040,158.446 71.475,165.169 74.909,148.542 78.343,152.209 81.778,169.878 85.212,152.778 88.646,157.427 92.081,165.711 95.515,148.295 98.949,154.743 102.384,153.669 105.818,154.347 109.253,157.423 112.687,159.987 116.121,164.647 119.556,162.004 122.990,151.838 126.424,167.875 129.859,164.979 133.293,161.900 136.727,145.500 140.162,165.472 143.596,156.149 147.030,168.846 150.465,148.094 153.899,165.143 157.333,155.736 160.768,161.490 164.202,151.029 167.636,163.281 171.071,160.036 174.505,158.452 177.939,160.226 181.374,173.449 184.808,146.048 188.242,153.351 191.677,164.940 195.111,167.544 198.545,159.932 201.980,150.066 205.414,153.530 208.848,146.416 212.283,157.891 215.717,168.365 219.152,153.542 222.586,173.237 226.020,183.000 229.455,161.380 232.889,157.232 236.323,169.233 239.758,169.120 243.192,165.379 246.626,160.174 250.061,161.659 253.495,157.447 256.929,159.927 260.364,159.557 263.798,154.677 267.232,160.568 270.667,150.183 274.101,159.015 277.535,163.286 280.970,150.772 284.404,155.523 287.838,154.138 291.273,163.428 294.707,175.740 298.141,177.459 301.576,155.119 305.010,150.109 308.444,150.852 311.879,157.530 315.313,165.089 318.747,165.550 322.182,160.786 325.616,157.160 329.051,164.775 332.485,160.380 335.919,156.303 339.354,159.130 342.788,152.333 346.222,170.662 349.657,149.848 353.091,154.195 356.525,157.004 359.960,152.540 363.394,154.414 366.828,159.908 370.263,166.519 373.697,146.175 377.131,160.150 380.566,162.495 384.000,159.202 "/>
<g>
</g>
</g>
<g id="ID000004" clip-path="url(#ID000001)" >
      <polyline fill="none" stroke="#01b901" stroke-width="2.0pt" stroke-dasharray="none" points="44.000,124.740 47.434,121.973 50.869,129.547 54.303,125.053 57.737,115.386 61.172,123.515 64.606,127.045 68.040,125.029 71.475,116.564 74.909,123.398 78.343,122.852 81.778,125.379 85.212,124.741 88.646,121.739 92.081,121.379 95.515,120.873 98.949,129.696 102.384,124.398 105.818,108.000 109.253,127.098 112.687,115.925 116.121,114.533 119.556,115.376 122.990,124.767 126.424,126.354 129.859,116.753 133.293,109.617 136.727,119.547 140.162,123.106 143.596,129.084 147.030,122.196 150.465,125.377 153.899,118.182 157.333,124.163 160.768,145.500 164.202,117.922 167.636,125.812 171.071,112.772 174.505,114.425 177.939,122.477 181.374,124.598 184.808,122.258 188.242,127.158 191.677,126.181 195.111,122.034 198.545,109.317 201.980,120.355 205.414,121.467 208.848,133.378 212.283,133.768 215.717,120.107 219.152,114.921 222.586,126.798 226.020,119.543 229.455,116.825 232.889,128.027 236.323,124.499 239.758,116.349 243.192,120.801 246.626,121.859 250.061,125.388 253.495,124.779 256.929,118.288 260.364,118.753 263.798,134.937 267.232,126.898 270.667,108.825 274.101,130.956 277.535,115.119 280.970,126.109 284.404,120.917 287.838,124.803 291.273,121.672 294.707,110.731 298.141,122.182 301.576,121.224 305.010,122.399 308.444,121.928 311.879,119.404 315.313,117.101 318.747,118.507 322.182,129.599 325.616,118.460 329.051,127.306 332.485,122.007 335.919,118.088 339.354,120.098 342.788,122.155 346.222,117.722 349.657,129.025 353.091,121.508 356.525,121.980 359.960,122.633 363.394,112.374 366.828,117.067 370.263,126.438 373.697,121.933 377.131,122.010 380.566,123.504 384.000,117.934 "/>
<g>
</g>
</g>
<g id="ID000005" clip-path="url(#ID000001)" >
      <polyline fill="none" stroke="#01b901" stroke-width="2.0pt" stroke-dasharray="none" points="44.000,91.682 47.434,93.549 50.869,90.326 54.303,89.523 57.737,102.444 61.172,94.674 64.606,90.396 68.040,88.949 71.475,106.232 74.909,95.129 78.343,71.829 81.778,92.017 85.212,103.000 88.646,84.033 92.081,87.180 95.515,94.463 98.949,93.046 102.384,84.619 105.818,86.561 109.253,90.552 112.687,89.393 116.121,84.588 119.556,82.926 122.990,81.871 126.424,108.000 129.859,100.830 133.293,92.890 136.727,93.884 140.162,90.472 143.596,92.383 147.030,84.862 150.465,99.299 153.899,90.870 157.333,86.861 160.768,100.715 164.202,99.959 167.636,87.772 171.071,92.313 174.505,86.489 177.939,90.109 181.374,88.781 184.808,96.251 188.242,87.806 191.677,88.928 195.111,93.320 198.545,77.472 201.980,88.042 205.414,83.104 208.848,91.841 212.283,73.811 215.717,90.336 219.152,93.673 222.586,75.594 226.020,86.781 229.455,78.685 232.889,92.037 236.323,95.104 239.758,101.845 243.192,96.268 246.626,87.648 250.061,92.308 253.495,85.127 256.929,92.655 260.364,94.008 263.798,84.780 267.232,96.026 270.667,101.636 274.101,91.469 277.535,93.450 280.970,84.843 284.404,99.371 287.838,85.476 291.273,76.408 294.707,92.708 298.141,86.172 301.576,104.206 305.010,70.500 308.444,90.010 311.879,76.417 315.313,95.513 318.747,86.343 322.182,90.950 325.616,95.300 329.051,94.214 332.485,75.374 335.919,104.028 339.354,84.753 342.788,92.260 346.222,91.448 349.657,87.070 353.091,83.673 356.525,100.030 359.960,94.307 363.394,82.722 366.828,92.304 370.263,86.103 373.697,79.040 377.131,75.994 380.566,73.765 384.000,81.658 "/>
<g>
</g>
</g>
<g id="ID000006" clip-path="url(#ID000001)" >
      <polyline fill="none" stroke="#01b901" stroke-width="2.0pt" stroke-dasharray="none" points="44.000,57.199 47.434,51.898 50.869,50.835 54.303,52.648 57.737,51.022 61.172,61.519 64.606,62.068 68.040,56.264 71.475,59.131 74.909,60.809 78.343,52.711 81.778,56.434 85.212,55.899 88.646,49.112 92.081,45.312 95.515,56.904 98.949,57.150 102.384,42.044 105.818,57.571 109.253,55.930 112.687,58.128 116.121,41.820 119.556,48.910 122.990,59.826 126.424,58.311 129.859,61.614 133.293,42.906 136.727,49.376 140.162,57.839 143.596,48.633 147.030,62.744 150.465,54.714 153.899,49.603 157.333,67.438 160.768,36.361 164.202,54.758 167.636,49.018 171.071,49.260 174.505,45.614 177.939,51.421 181.374,47.918 184.808,53.874 188.242,57.182 191.677,53.796 195.111,54.182 198.545,45.606 201.980,51.472 205.414,64.843 208.848,58.205 212.283,65.822 215.717,53.656 219.152,50.008 222.586,57.436 226.020,56.345 229.455,54.875 232.889,55.467 236.323,55.907 239.758,47.542 243.192,51.777 246.626,44.864 250.061,42.921 253.495,56.036 256.929,70.500 260.364,46.016 263.798,38.556 267.232,53.828 270.667,58.648 274.101,62.803 277.535,52.880 280.970,56.123 284.404,46.657 287.838,43.362 291.273,49.806 294.707,51.288 298.141,50.644 301.576,58.785 305.010,57.702 308.444,58.111 311.879,52.705 315.313,63.122 318.747,44.608 322.182,58.916 325.616,46.420 329.051,49.588 332.485,56.458 335.919,65.537 339.354,54.850 342.788,60.941 346.222,63.424 349.657,49.728 353.091,50.698 356.525,55.611 359.960,54.042 363.394,33.000 366.828,48.140 370.263,50.532 373.697,55.900 377.131,42.897 380.566,55.615 384.000,54.469 "/>
<g>
</g>
</g>
<g id="ID000007" >
</g>
<g id="ID000008" >
</g>
<g id="ID000009" >
</g>
    </g>
    <g>
      <polyline fill="none" stroke="#ffffff" stroke-width="0.5pt" stroke-dasharray="none" points="109.253,258.000 109.253,254.600 "/>
      <polyline fill="none" stroke="#ffffff" stroke-width="0.5pt" stroke-dasharray="none" points="177.939,258.000 177.939,254.600 "/>
      <polyline fill="none" stroke="#ffffff" stroke-width="0.5pt" stroke-dasharray="none" points="246.626,258.000 246.626,254.600 "/>
      <polyline fill="none" stroke="#ffffff" stroke-width="0.5pt" stroke-dasharray="none" points="315.313,258.000 315.313,254.600 "/>
      <polyline fill="none" stroke="#ffffff" stroke-width="0.5pt" stroke-dasharray="none" points="44.000,258.000 384.000,258.000 "/>
      <polyline fill="none" stroke="#ffffff" stroke-width="0.5pt" stroke-dasharray="none" points="109.253,33.000 109.253,36.400 "/>
      <polyline fill="none" stroke="#ffffff" stroke-width="0.5pt" stroke-dasharray="none" points="177.939,33.000 177.939,36.400 "/>
      <polyline fill="none" stroke="#ffffff" stroke-width="0.5pt" stroke-dasharray="none" points="246.626,33.000 246.626,36.400 "/>
      <polyline fill="none" stroke="#ffffff" stroke-width="0.5pt" stroke-dasharray="none" points="315.313,33.000 315.313,36.400 "/>
      <polyline fill="none" stroke="#ffffff" stroke-width="0.5pt" stroke-dasharray="none" points="44.000,33.000 384.000,33.000 "/>
  <g transform="translate(44.000,274.300)">
    <g transform="rotate(-0.0)">
      <text x="0.000" y="0.000" font-family="Helvetica" text-anchor="middle" font-size="10pt" fill="#ffffff" >  1</text>
    </g>
  </g>
  <g transform="translate(109.253,274.300)">
    <g transform="rotate(-0.0)">
      <text x="0.000" y="0.000" font-family="Helvetica" text-anchor="middle" font-size="10pt" fill="#ffffff" > 20</text>
    </g>
  </g>
  <g transform="translate(177.939,274.300)">
    <g transform="rotate(-0.0)">
      <text x="0.000" y="0.000" font-family="Helvetica" text-anchor="middle" font-size="10pt" fill="#ffffff" > 40</text>
    </g>
  </g>
  <g transform="translate(246.626,274.300)">
    <g transform="rotate(-0.0)">
      <text x="0.000" y="0.000" font-family="Helvetica" text-anchor="middle" font-size="10pt" fill="#ffffff" > 60</text>
    </g>
  </g>
  <g transform="translate(315.313,274.300)">
    <g transform="rotate(-0.0)">
      <text x="0.000" y="0.000" font-family="Helvetica" text-anchor="middle" font-size="10pt" fill="#ffffff" > 80</text>
    </g>
  </g>
  <g transform="translate(384.000,274.300)">
    <g transform="rotate(-0.0)">
      <text x="0.000" y="0.000" font-family="Helvetica" text-anchor="middle" font-size="10pt" fill="#ffffff" >100</text>
    </g>
  </g>
      <polyline fill="none" stroke="#ffffff" stroke-width="0.5pt" stroke-dasharray="none" points="44.000,201.750 47.400,201.750 "/>
      <polyline fill="none" stroke="#ffffff" stroke-width="0.5pt" stroke-dasharray="none" points="44.000,145.500 47.400,145.500 "/>
      <polyline fill="none" stroke="#ffffff" stroke-width="0.5pt" stroke-dasharray="none" points="44.000,89.250 47.400,89.250 "/>
      <polyline fill="none" stroke="#ffffff" stroke-width="0.5pt" stroke-dasharray="none" points="44.000,258.000 44.000,33.000 "/>
      <polyline fill="none" stroke="#ffffff" stroke-width="0.5pt" stroke-dasharray="none" points="384.000,201.750 380.600,201.750 "/>
      <polyline fill="none" stroke="#ffffff" stroke-width="0.5pt" stroke-dasharray="none" points="384.000,145.500 380.600,145.500 "/>
      <polyline fill="none" stroke="#ffffff" stroke-width="0.5pt" stroke-dasharray="none" points="384.000,89.250 380.600,89.250 "/>
      <polyline fill="none" stroke="#ffffff" stroke-width="0.5pt" stroke-dasharray="none" points="384.000,258.000 384.000,33.000 "/>
  <g transform="translate(37.200,262.500)">
    <g transform="rotate(-0.0)">
      <text x="0.000" y="0.000" font-family="Helvetica" text-anchor="end" font-size="10pt" fill="#ffffff" >  0</text>
    </g>
  </g>
  <g transform="translate(37.200,206.250)">
    <g transform="rotate(-0.0)">
      <text x="0.000" y="0.000" font-family="Helvetica" text-anchor="end" font-size="10pt" fill="#ffffff" >0.3</text>
    </g>
  </g>
  <g transform="translate(37.200,150.000)">
    <g transform="rotate(-0.0)">
      <text x="0.000" y="0.000" font-family="Helvetica" text-anchor="end" font-size="10pt" fill="#ffffff" >0.6</text>
    </g>
  </g>
  <g transform="translate(37.200,93.750)">
    <g transform="rotate(-0.0)">
      <text x="0.000" y="0.000" font-family="Helvetica" text-anchor="end" font-size="10pt" fill="#ffffff" >0.9</text>
    </g>
  </g>
  <g transform="translate(37.200,37.500)">
    <g transform="rotate(-0.0)">
      <text x="0.000" y="0.000" font-family="Helvetica" text-anchor="end" font-size="10pt" fill="#ffffff" >1.2</text>
    </g>
  </g>
      <polyline fill="none" stroke="#000000" stroke-width="0.5pt" stroke-dasharray="none" points="44.000,258.000 44.000,255.750 "/>
      <polyline fill="none" stroke="#000000" stroke-width="0.5pt" stroke-dasharray="none" points="44.000,258.000 44.000,258.000 "/>
    </g>
  </g>
  </g>
</svg>
