<?xml version="1.0" encoding="utf-8" standalone="no"?><!DOCTYPE svg PUBLIC "-//W3C//DTD SVG 1.1//EN" "http://www.w3.org/Graphics/SVG/1.1/DTD/svg11.dtd">
<svg preserveAspectRatio="xMinYMin meet" width="100%" height="100%" viewBox="0 0 400.000 300.000"  version="1.1" xmlns="http://www.w3.org/2000/svg" xmlns:xlink="http://www.w3.org/1999/xlink">
  <desc>Matlab Figure Converted by PLOT2SVG written by Juerg Schwizer</desc>
  <g id="topgroup">
  <rect x="0" y="0" width="400.000" height="300.000" fill="#ffffff" stroke="none" />
  <g id ="ID000000">
  <clipPath id="ID000001">
    <rect x="44.000" y="33.000" width="340.000" height="225.000"/>
  </clipPath>
      <polygon fill="#ffffff" fill-opacity="1.00" stroke="none" stroke-width="0.5pt" stroke-opacity="1.00" stroke-dasharray="none" points="44.000,258.000 384.000,258.000 384.000,33.000 44.000,33.000 "/>
      <polygon fill="#ffffff" fill-opacity="1.00" stroke="none" stroke-width="0.5pt" stroke-opacity="1.00" stroke-dasharray="none" points="44.000,33.000 384.000,33.000 384.000,33.000 44.000,33.000 "/>
      <polygon fill="#ffffff" fill-opacity="1.00" stroke="none" stroke-width="0.5pt" stroke-opacity="1.00" stroke-dasharray="none" points="44.000,258.000 44.000,258.000 44.000,33.000 44.000,33.000 "/>
    <g>
<g id="ID000002" clip-path="url(#ID000001)" >
      <polyline fill="none" stroke="#01b901" stroke-width="2.0pt" stroke-dasharray="none" points="44.000,237.356 47.434,226.371 50.869,232.091 54.303,245.613 57.737,229.763 61.172,236.826 64.606,231.372 68.040,232.201 71.475,240.486 74.909,239.105 78.343,247.965 81.778,242.102 85.212,235.389 88.646,221.825 92.081,229.334 95.515,254.694 98.949,258.000 102.384,243.584 105.818,231.480 109.253,245.680 112.687,232.110 116.121,253.701 119.556,241.386 122.990,252.253 126.424,246.510 129.859,232.906 133.293,231.452 136.727,245.755 140.162,234.998 143.596,241.267 147.030,235.591 150.465,245.098 153.899,236.307 157.333,251.585 160.768,252.141 164.202,238.740 167.636,248.366 171.071,220.500 174.505,232.481 177.939,240.817 181.374,221.931 184.808,230.936 188.242,250.589 191.677,232.982 195.111,247.149 198.545,240.390 201.980,233.825 205.414,237.828 208.848,241.626 212.283,229.005 215.717,231.596 219.152,242.862 222.586,232.415 226.020,224.463 229.455,223.365 232.889,239.750 236.323,253.867 239.758,245.589 243.192,229.403 246.626,245.455 250.061,252.046 253.495,242.012 256.929,252.789 260.364,244.834 263.798,236.711 267.232,242.617 270.667,236.181 274.101,237.385 277.535,236.790 280.970,233.182 284.404,221.541 287.838,249.694 291.273,244.340 294.707,251.662 298.141,242.099 301.576,246.337 305.010,243.095 308.444,243.269 311.879,234.161 315.313,241.207 318.747,248.178 322.182,232.662 325.616,241.727 329.051,241.658 332.485,222.631 335.919,230.980 339.354,232.598 342.788,240.593 346.222,236.467 349.657,243.472 353.091,244.934 356.525,242.869 359.960,248.960 363.394,247.823 366.828,238.060 370.263,252.905 373.697,254.538 377.131,248.404 380.566,231.706 384.000,243.656 "/>
<g>
</g>
</g>
<g id="ID000003" clip-path="url(#ID000001)" >
      <polyline fill="none" stroke="#01b901" stroke-width="2.0pt" stroke-dasharray="none" points="44.000,183.000 47.434,159.347 50.869,165.792 54.303,164.939 57.737,160.254 61.172,169.464 64.606,174.405 68.040,154.668 71.475,162.540 74.909,155.335 78.343,159.906 81.778,161.843 85.212,145.500 88.646,164.576 92.081,178.762 95.515,159.383 98.949,160.511 102.384,180.739 105.818,152.818 109.253,153.988 112.687,166.622 116.121,164.089 119.556,167.738 122.990,148.725 126.424,157.880 129.859,176.798 133.293,170.851 136.727,169.785 140.162,171.775 143.596,164.217 147.030,173.027 150.465,176.779 153.899,167.037 157.333,161.620 160.768,166.098 164.202,169.162 167.636,175.344 171.071,172.671 174.505,168.701 177.939,166.939 181.374,169.252 184.808,166.281 188.242,168.709 191.677,171.927 195.111,156.577 198.545,156.916 201.980,166.158 205.414,168.557 208.848,160.829 212.283,158.792 215.717,164.277 219.152,172.388 222.586,160.381 226.020,173.048 229.455,169.145 232.889,157.588 236.323,176.166 239.758,165.885 243.192,174.096 246.626,153.561 250.061,168.201 253.495,155.508 256.929,169.318 260.364,159.909 263.798,164.861 267.232,177.455 270.667,156.844 274.101,167.280 277.535,176.316 280.970,169.057 284.404,170.982 287.838,156.811 291.273,166.292 294.707,180.054 298.141,161.538 301.576,165.091 305.010,158.445 308.444,161.656 311.879,174.472 315.313,166.722 318.747,165.068 322.182,158.376 325.616,161.511 329.051,174.365 332.485,158.514 335.919,162.645 339.354,165.503 342.788,162.693 346.222,157.353 349.657,160.815 353.091,152.265 356.525,170.749 359.960,153.300 363.394,172.005 366.828,178.666 370.263,171.038 373.697,164.990 377.131,169.245 380.566,164.731 384.000,163.248 "/>
<g>
</g>
</g>
<g id="ID000004" clip-path="url(#ID000001)" >
      <polyline fill="none" stroke="#01b901" stroke-width="2.0pt" stroke-dasharray="none" points="44.000,127.600 47.434,136.988 50.869,125.158 54.303,132.997 57.737,139.825 61.172,118.909 64.606,126.734 68.040,124.517 71.475,138.569 74.909,124.730 78.343,137.717 81.778,129.526 85.212,133.187 88.646,132.426 92.081,125.347 95.515,117.078 98.949,117.202 102.384,131.458 105.818,145.500 109.253,126.237 112.687,137.944 116.121,143.524 119.556,131.039 122.990,131.547 126.424,133.122 129.859,126.698 133.293,139.231 136.727,118.712 140.162,133.351 143.596,121.290 147.030,128.052 150.465,139.209 153.899,120.281 157.333,124.274 160.768,124.837 164.202,140.678 167.636,141.071 171.071,121.853 174.505,142.025 177.939,139.863 181.374,132.833 184.808,117.703 188.242,118.386 191.677,125.215 195.111,124.006 198.545,139.273 201.980,129.742 205.414,123.745 208.848,116.538 212.283,122.134 215.717,128.724 219.152,128.869 222.586,124.112 226.020,140.364 229.455,110.814 232.889,142.730 236.323,134.885 239.758,131.620 243.192,142.529 246.626,139.451 250.061,140.299 253.495,124.626 256.929,119.587 260.364,115.968 263.798,127.494 267.232,127.126 270.667,119.058 274.101,129.591 277.535,127.305 280.970,125.061 284.404,141.644 287.838,133.374 291.273,135.766 294.707,134.430 298.141,134.584 301.576,116.337 305.010,128.941 308.444,121.896 311.879,131.707 315.313,129.727 318.747,133.481 322.182,123.069 325.616,129.453 329.051,126.069 332.485,131.605 335.919,128.316 339.354,129.150 342.788,121.465 346.222,138.749 349.657,131.826 353.091,133.343 356.525,123.580 359.960,132.663 363.394,143.423 366.828,132.159 370.263,108.000 373.697,125.073 377.131,136.630 380.566,131.159 384.000,131.650 "/>
<g>
</g>
</g>
<g id="ID000005" clip-path="url(#ID000001)" >
      <polyline fill="none" stroke="#01b901" stroke-width="2.0pt" stroke-dasharray="none" points="44.000,89.793 47.434,94.710 50.869,80.735 54.303,83.963 57.737,91.890 61.172,100.634 64.606,90.968 68.040,90.269 71.475,100.693 74.909,85.911 78.343,77.904 81.778,88.110 85.212,102.518 88.646,80.521 92.081,79.786 95.515,104.637 98.949,83.604 102.384,77.549 105.818,89.142 109.253,91.725 112.687,86.225 116.121,95.604 119.556,82.253 122.990,96.023 126.424,96.068 129.859,94.193 133.293,88.896 136.727,89.341 140.162,89.001 143.596,90.693 147.030,94.620 150.465,95.269 153.899,85.232 157.333,99.112 160.768,87.462 164.202,90.250 167.636,90.421 171.071,90.198 174.505,91.511 177.939,85.571 181.374,84.316 184.808,87.760 188.242,84.645 191.677,89.483 195.111,91.927 198.545,80.610 201.980,91.856 205.414,95.650 208.848,93.392 212.283,78.477 215.717,87.691 219.152,92.497 222.586,92.129 226.020,84.517 229.455,83.579 232.889,98.183 236.323,96.330 239.758,94.954 243.192,84.888 246.626,77.755 250.061,76.431 253.495,84.652 256.929,108.000 260.364,92.044 263.798,70.500 267.232,90.273 270.667,89.592 274.101,92.225 277.535,84.842 280.970,81.031 284.404,96.462 287.838,90.536 291.273,82.672 294.707,94.411 298.141,85.901 301.576,95.189 305.010,80.843 308.444,86.416 311.879,85.885 315.313,90.914 318.747,84.183 322.182,102.820 325.616,80.593 329.051,85.109 332.485,85.110 335.919,97.987 339.354,85.382 342.788,97.190 346.222,89.886 349.657,85.579 353.091,86.200 356.525,85.079 359.960,105.314 363.394,82.645 366.828,91.409 370.263,92.749 373.697,85.241 377.131,79.945 380.566,84.911 384.000,86.646 "/>
<g>
</g>
</g>
<g id="ID000006" clip-path="url(#ID000001)" >
      <polyline fill="none" stroke="#01b901" stroke-width="2.0pt" stroke-dasharray="none" points="44.000,57.314 47.434,34.449 50.869,53.274 54.303,51.749 57.737,42.231 61.172,48.491 64.606,57.193 68.040,46.974 71.475,49.266 74.909,44.082 78.343,53.224 81.778,60.401 85.212,54.935 88.646,41.839 92.081,55.056 95.515,42.394 98.949,36.004 102.384,48.708 105.818,50.009 109.253,46.167 112.687,33.000 116.121,39.427 119.556,43.786 122.990,45.043 126.424,39.377 129.859,40.616 133.293,50.760 136.727,42.023 140.162,44.512 143.596,44.227 147.030,70.500 150.465,46.004 153.899,48.646 157.333,42.317 160.768,41.621 164.202,49.434 167.636,49.053 171.071,37.665 174.505,37.909 177.939,35.252 181.374,49.424 184.808,40.870 188.242,53.451 191.677,41.834 195.111,64.558 198.545,46.393 201.980,46.103 205.414,52.508 208.848,46.170 212.283,53.617 215.717,48.315 219.152,59.759 222.586,48.994 226.020,35.271 229.455,46.348 232.889,37.837 236.323,50.873 239.758,42.624 243.192,59.966 246.626,44.390 250.061,47.628 253.495,40.906 256.929,43.596 260.364,39.032 263.798,56.896 267.232,44.801 270.667,53.644 274.101,47.800 277.535,35.875 280.970,46.240 284.404,42.950 287.838,49.240 291.273,48.237 294.707,44.704 298.141,51.284 301.576,42.787 305.010,53.681 308.444,46.858 311.879,37.245 315.313,50.745 318.747,36.139 322.182,50.854 325.616,39.415 329.051,46.545 332.485,53.487 335.919,33.559 339.354,53.809 342.788,50.272 346.222,50.202 349.657,46.787 353.091,48.819 356.525,39.080 359.960,49.105 363.394,49.223 366.828,51.118 370.263,44.388 373.697,43.480 377.131,46.013 380.566,51.205 384.000,45.531 "/>
<g>
</g>
</g>
<g id="ID000007" >
</g>
<g id="ID000008" >
</g>
<g id="ID000009" >
</g>
    </g>
    <g>
      <polyline fill="none" stroke="#ffffff" stroke-width="0.5pt" stroke-dasharray="none" points="109.253,258.000 109.253,254.600 "/>
      <polyline fill="none" stroke="#ffffff" stroke-width="0.5pt" stroke-dasharray="none" points="177.939,258.000 177.939,254.600 "/>
      <polyline fill="none" stroke="#ffffff" stroke-width="0.5pt" stroke-dasharray="none" points="246.626,258.000 246.626,254.600 "/>
      <polyline fill="none" stroke="#ffffff" stroke-width="0.5pt" stroke-dasharray="none" points="315.313,258.000 315.313,254.600 "/>
      <polyline fill="none" stroke="#ffffff" stroke-width="0.5pt" stroke-dasharray="none" points="44.000,258.000 384.000,258.000 "/>
      <polyline fill="none" stroke="#ffffff" stroke-width="0.5pt" stroke-dasharray="none" points="109.253,33.000 109.253,36.400 "/>
      <polyline fill="none" stroke="#ffffff" stroke-width="0.5pt" stroke-dasharray="none" points="177.939,33.000 177.939,36.400 "/>
      <polyline fill="none" stroke="#ffffff" stroke-width="0.5pt" stroke-dasharray="none" points="246.626,33.000 246.626,36.400 "/>
      <polyline fill="none" stroke="#ffffff" stroke-width="0.5pt" stroke-dasharray="none" points="315.313,33.000 315.313,36.400 "/>
      <polyline fill="none" stroke="#ffffff" stroke-width="0.5pt" stroke-dasharray="none" points="44.000,33.000 384.000,33.000 "/>
  <g transform="translate(44.000,274.300)">
    <g transform="rotate(-0.0)">
      <text x="0.000" y="0.000" font-family="Helvetica" text-anchor="middle" font-size="10pt" fill="#ffffff" >  1</text>
    </g>
  </g>
  <g transform="translate(109.253,274.300)">
    <g transform="rotate(-0.0)">
      <text x="0.000" y="0.000" font-family="Helvetica" text-anchor="middle" font-size="10pt" fill="#ffffff" > 20</text>
    </g>
  </g>
  <g transform="translate(177.939,274.300)">
    <g transform="rotate(-0.0)">
      <text x="0.000" y="0.000" font-family="Helvetica" text-anchor="middle" font-size="10pt" fill="#ffffff" > 40</text>
    </g>
  </g>
  <g transform="translate(246.626,274.300)">
    <g transform="rotate(-0.0)">
      <text x="0.000" y="0.000" font-family="Helvetica" text-anchor="middle" font-size="10pt" fill="#ffffff" > 60</text>
    </g>
  </g>
  <g transform="translate(315.313,274.300)">
    <g transform="rotate(-0.0)">
      <text x="0.000" y="0.000" font-family="Helvetica" text-anchor="middle" font-size="10pt" fill="#ffffff" > 80</text>
    </g>
  </g>
  <g transform="translate(384.000,274.300)">
    <g transform="rotate(-0.0)">
      <text x="0.000" y="0.000" font-family="Helvetica" text-anchor="middle" font-size="10pt" fill="#ffffff" >100</text>
    </g>
  </g>
      <polyline fill="none" stroke="#ffffff" stroke-width="0.5pt" stroke-dasharray="none" points="44.000,201.750 47.400,201.750 "/>
      <polyline fill="none" stroke="#ffffff" stroke-width="0.5pt" stroke-dasharray="none" points="44.000,145.500 47.400,145.500 "/>
      <polyline fill="none" stroke="#ffffff" stroke-width="0.5pt" stroke-dasharray="none" points="44.000,89.250 47.400,89.250 "/>
      <polyline fill="none" stroke="#ffffff" stroke-width="0.5pt" stroke-dasharray="none" points="44.000,258.000 44.000,33.000 "/>
      <polyline fill="none" stroke="#ffffff" stroke-width="0.5pt" stroke-dasharray="none" points="384.000,201.750 380.600,201.750 "/>
      <polyline fill="none" stroke="#ffffff" stroke-width="0.5pt" stroke-dasharray="none" points="384.000,145.500 380.600,145.500 "/>
      <polyline fill="none" stroke="#ffffff" stroke-width="0.5pt" stroke-dasharray="none" points="384.000,89.250 380.600,89.250 "/>
      <polyline fill="none" stroke="#ffffff" stroke-width="0.5pt" stroke-dasharray="none" points="384.000,258.000 384.000,33.000 "/>
  <g transform="translate(37.200,262.500)">
    <g transform="rotate(-0.0)">
      <text x="0.000" y="0.000" font-family="Helvetica" text-anchor="end" font-size="10pt" fill="#ffffff" >  0</text>
    </g>
  </g>
  <g transform="translate(37.200,206.250)">
    <g transform="rotate(-0.0)">
      <text x="0.000" y="0.000" font-family="Helvetica" text-anchor="end" font-size="10pt" fill="#ffffff" >0.3</text>
    </g>
  </g>
  <g transform="translate(37.200,150.000)">
    <g transform="rotate(-0.0)">
      <text x="0.000" y="0.000" font-family="Helvetica" text-anchor="end" font-size="10pt" fill="#ffffff" >0.6</text>
    </g>
  </g>
  <g transform="translate(37.200,93.750)">
    <g transform="rotate(-0.0)">
      <text x="0.000" y="0.000" font-family="Helvetica" text-anchor="end" font-size="10pt" fill="#ffffff" >0.9</text>
    </g>
  </g>
  <g transform="translate(37.200,37.500)">
    <g transform="rotate(-0.0)">
      <text x="0.000" y="0.000" font-family="Helvetica" text-anchor="end" font-size="10pt" fill="#ffffff" >1.2</text>
    </g>
  </g>
      <polyline fill="none" stroke="#000000" stroke-width="0.5pt" stroke-dasharray="none" points="44.000,258.000 44.000,255.750 "/>
      <polyline fill="none" stroke="#000000" stroke-width="0.5pt" stroke-dasharray="none" points="44.000,258.000 44.000,258.000 "/>
    </g>
  </g>
  </g>
</svg>
