<?xml version="1.0" encoding="utf-8" standalone="no"?><!DOCTYPE svg PUBLIC "-//W3C//DTD SVG 1.1//EN" "http://www.w3.org/Graphics/SVG/1.1/DTD/svg11.dtd">
<svg preserveAspectRatio="xMinYMin meet" width="100%" height="100%" viewBox="0 0 400.000 300.000"  version="1.1" xmlns="http://www.w3.org/2000/svg" xmlns:xlink="http://www.w3.org/1999/xlink">
  <desc>Matlab Figure Converted by PLOT2SVG written by Juerg Schwizer</desc>
  <g id="topgroup">
  <rect x="0" y="0" width="400.000" height="300.000" fill="#ffffff" stroke="none" />
  <g id ="ID000000">
  <clipPath id="ID000001">
    <rect x="44.000" y="33.000" width="340.000" height="225.000"/>
  </clipPath>
      <polygon fill="#ffffff" fill-opacity="1.00" stroke="none" stroke-width="0.5pt" stroke-opacity="1.00" stroke-dasharray="none" points="44.000,258.000 384.000,258.000 384.000,33.000 44.000,33.000 "/>
      <polygon fill="#ffffff" fill-opacity="1.00" stroke="none" stroke-width="0.5pt" stroke-opacity="1.00" stroke-dasharray="none" points="44.000,33.000 384.000,33.000 384.000,33.000 44.000,33.000 "/>
      <polygon fill="#ffffff" fill-opacity="1.00" stroke="none" stroke-width="0.5pt" stroke-opacity="1.00" stroke-dasharray="none" points="44.000,258.000 44.000,258.000 44.000,33.000 44.000,33.000 "/>
    <g>
<g id="ID000002" clip-path="url(#ID000001)" >
      <polyline fill="none" stroke="#00d0d0" stroke-width="2.0pt" stroke-dasharray="none" points="44.000,244.243 47.434,232.308 50.869,231.597 54.303,232.147 57.737,236.402 61.172,255.986 64.606,245.568 68.040,236.519 71.475,250.785 74.909,227.557 78.343,239.882 81.778,250.784 85.212,236.182 88.646,245.139 92.081,247.896 95.515,235.153 98.949,256.744 102.384,247.351 105.818,236.530 109.253,239.022 112.687,229.662 116.121,249.535 119.556,237.558 122.990,238.529 126.424,235.716 129.859,238.232 133.293,247.482 136.727,233.310 140.162,239.649 143.596,240.562 147.030,233.295 150.465,234.109 153.899,241.631 157.333,250.032 160.768,252.607 164.202,226.656 167.636,235.393 171.071,235.352 174.505,238.796 177.939,246.381 181.374,244.402 184.808,249.072 188.242,246.597 191.677,237.191 195.111,238.346 198.545,235.620 201.980,247.095 205.414,226.188 208.848,243.376 212.283,235.094 215.717,241.792 219.152,248.644 222.586,255.693 226.020,247.234 229.455,254.372 232.889,230.940 236.323,253.297 239.758,237.704 243.192,245.164 246.626,254.630 250.061,232.727 253.495,244.714 256.929,239.035 260.364,239.013 263.798,248.826 267.232,234.965 270.667,233.116 274.101,226.774 277.535,248.303 280.970,247.547 284.404,235.636 287.838,244.598 291.273,251.008 294.707,244.056 298.141,255.186 301.576,245.638 305.010,251.483 308.444,234.036 311.879,253.162 315.313,257.043 318.747,221.207 322.182,247.475 325.616,220.500 329.051,240.818 332.485,225.535 335.919,230.551 339.354,230.931 342.788,232.931 346.222,251.916 349.657,249.888 353.091,240.700 356.525,258.000 359.960,237.537 363.394,247.967 366.828,256.316 370.263,249.606 373.697,239.780 377.131,233.565 380.566,253.168 384.000,244.258 "/>
<g>
</g>
</g>
<g id="ID000003" clip-path="url(#ID000001)" >
      <polyline fill="none" stroke="#00d0d0" stroke-width="2.0pt" stroke-dasharray="none" points="44.000,156.027 47.434,167.115 50.869,159.510 54.303,163.958 57.737,166.685 61.172,163.653 64.606,162.440 68.040,171.628 71.475,172.674 74.909,171.652 78.343,183.000 81.778,158.616 85.212,175.123 88.646,174.268 92.081,169.360 95.515,168.340 98.949,162.269 102.384,157.475 105.818,163.833 109.253,167.534 112.687,163.928 116.121,162.207 119.556,177.334 122.990,148.116 126.424,169.653 129.859,153.693 133.293,166.184 136.727,156.137 140.162,164.014 143.596,171.839 147.030,169.119 150.465,159.990 153.899,168.707 157.333,167.599 160.768,156.537 164.202,162.860 167.636,158.836 171.071,155.247 174.505,161.984 177.939,156.733 181.374,162.137 184.808,155.726 188.242,160.542 191.677,167.334 195.111,162.752 198.545,161.095 201.980,155.158 205.414,160.593 208.848,162.922 212.283,171.220 215.717,159.255 219.152,171.125 222.586,161.084 226.020,165.555 229.455,172.432 232.889,162.066 236.323,164.917 239.758,164.498 243.192,165.113 246.626,166.522 250.061,162.522 253.495,160.943 256.929,158.502 260.364,170.963 263.798,171.998 267.232,166.589 270.667,167.558 274.101,157.870 277.535,165.269 280.970,159.583 284.404,167.023 287.838,166.130 291.273,168.064 294.707,164.705 298.141,163.787 301.576,163.669 305.010,149.045 308.444,151.676 311.879,178.032 315.313,145.500 318.747,161.588 322.182,169.802 325.616,153.322 329.051,155.469 332.485,152.809 335.919,160.330 339.354,167.633 342.788,163.637 346.222,165.603 349.657,174.267 353.091,157.158 356.525,168.909 359.960,171.800 363.394,163.772 366.828,155.403 370.263,163.915 373.697,164.177 377.131,162.418 380.566,169.620 384.000,162.307 "/>
<g>
</g>
</g>
<g id="ID000004" clip-path="url(#ID000001)" >
      <polyline fill="none" stroke="#00d0d0" stroke-width="2.0pt" stroke-dasharray="none" points="44.000,130.770 47.434,118.341 50.869,141.421 54.303,117.042 57.737,114.888 61.172,120.469 64.606,130.118 68.040,121.884 71.475,137.053 74.909,119.791 78.343,126.801 81.778,129.298 85.212,132.623 88.646,126.177 92.081,135.191 95.515,127.428 98.949,136.859 102.384,123.339 105.818,119.872 109.253,116.429 112.687,136.814 116.121,121.260 119.556,141.822 122.990,118.969 126.424,124.005 129.859,123.092 133.293,127.785 136.727,130.679 140.162,118.819 143.596,125.823 147.030,135.695 150.465,145.500 153.899,126.441 157.333,132.864 160.768,108.000 164.202,118.800 167.636,120.871 171.071,127.342 174.505,127.401 177.939,116.100 181.374,124.462 184.808,111.974 188.242,117.055 191.677,121.379 195.111,143.390 198.545,122.547 201.980,133.465 205.414,136.774 208.848,134.727 212.283,127.364 215.717,130.068 219.152,120.055 222.586,121.539 226.020,134.381 229.455,124.174 232.889,130.464 236.323,129.856 239.758,129.119 243.192,120.767 246.626,117.072 250.061,136.230 253.495,138.653 256.929,133.497 260.364,118.876 263.798,119.143 267.232,131.781 270.667,123.595 274.101,120.750 277.535,129.497 280.970,125.743 284.404,115.924 287.838,122.781 291.273,119.483 294.707,125.997 298.141,141.462 301.576,143.398 305.010,121.753 308.444,127.861 311.879,124.472 315.313,134.434 318.747,131.272 322.182,122.262 325.616,135.049 329.051,134.927 332.485,135.648 335.919,126.137 339.354,127.418 342.788,122.620 346.222,139.308 349.657,128.079 353.091,112.954 356.525,118.513 359.960,127.398 363.394,135.539 366.828,125.511 370.263,132.942 373.697,113.687 377.131,132.655 380.566,129.121 384.000,131.770 "/>
<g>
</g>
</g>
<g id="ID000005" clip-path="url(#ID000001)" >
      <polyline fill="none" stroke="#00d0d0" stroke-width="2.0pt" stroke-dasharray="none" points="44.000,88.459 47.434,87.966 50.869,81.675 54.303,82.438 57.737,92.627 61.172,97.949 64.606,90.577 68.040,88.145 71.475,71.805 74.909,91.653 78.343,78.840 81.778,89.107 85.212,97.521 88.646,72.651 92.081,83.573 95.515,86.652 98.949,70.500 102.384,88.627 105.818,90.120 109.253,82.628 112.687,88.963 116.121,86.774 119.556,87.540 122.990,89.131 126.424,84.752 129.859,86.581 133.293,89.730 136.727,104.892 140.162,95.725 143.596,87.791 147.030,84.978 150.465,81.844 153.899,91.444 157.333,87.756 160.768,83.225 164.202,86.132 167.636,97.240 171.071,94.308 174.505,82.679 177.939,95.216 181.374,98.626 184.808,95.419 188.242,100.284 191.677,101.239 195.111,83.460 198.545,96.308 201.980,85.552 205.414,84.557 208.848,95.810 212.283,89.375 215.717,102.977 219.152,92.283 222.586,92.047 226.020,92.439 229.455,84.906 232.889,87.082 236.323,95.216 239.758,96.418 243.192,93.410 246.626,93.536 250.061,96.435 253.495,95.394 256.929,101.585 260.364,103.250 263.798,92.741 267.232,88.810 270.667,101.113 274.101,78.356 277.535,83.462 280.970,93.632 284.404,103.981 287.838,90.579 291.273,85.718 294.707,82.059 298.141,74.369 301.576,82.748 305.010,90.450 308.444,108.000 311.879,83.161 315.313,97.212 318.747,90.280 322.182,76.876 325.616,105.433 329.051,82.781 332.485,86.801 335.919,96.729 339.354,87.273 342.788,79.095 346.222,72.579 349.657,83.842 353.091,98.252 356.525,83.520 359.960,88.657 363.394,85.703 366.828,102.020 370.263,95.557 373.697,97.727 377.131,93.812 380.566,88.363 384.000,77.801 "/>
<g>
</g>
</g>
<g id="ID000006" clip-path="url(#ID000001)" >
      <polyline fill="none" stroke="#00d0d0" stroke-width="2.0pt" stroke-dasharray="none" points="44.000,52.690 47.434,65.176 50.869,56.855 54.303,44.344 57.737,43.941 61.172,66.341 64.606,45.562 68.040,70.500 71.475,58.069 74.909,38.818 78.343,57.124 81.778,62.143 85.212,59.452 88.646,42.715 92.081,56.043 95.515,60.626 98.949,56.937 102.384,45.488 105.818,45.718 109.253,49.190 112.687,56.839 116.121,61.009 119.556,50.677 122.990,58.224 126.424,57.609 129.859,48.729 133.293,49.325 136.727,52.366 140.162,63.816 143.596,57.727 147.030,55.149 150.465,43.162 153.899,57.635 157.333,42.932 160.768,45.139 164.202,41.530 167.636,51.090 171.071,44.687 174.505,46.822 177.939,50.860 181.374,60.407 184.808,55.626 188.242,64.388 191.677,40.153 195.111,59.815 198.545,51.616 201.980,59.783 205.414,44.577 208.848,55.483 212.283,35.335 215.717,52.303 219.152,54.274 222.586,48.094 226.020,42.971 229.455,59.088 232.889,58.921 236.323,49.817 239.758,51.334 243.192,67.606 246.626,58.881 250.061,60.676 253.495,52.271 256.929,53.936 260.364,57.074 263.798,57.035 267.232,67.374 270.667,37.705 274.101,51.470 277.535,52.809 280.970,52.171 284.404,45.264 287.838,45.718 291.273,54.075 294.707,57.145 298.141,43.642 301.576,49.920 305.010,60.861 308.444,68.683 311.879,45.613 315.313,56.859 318.747,48.012 322.182,55.552 325.616,60.095 329.051,46.752 332.485,33.000 335.919,60.228 339.354,66.945 342.788,43.567 346.222,47.668 349.657,54.939 353.091,56.577 356.525,54.149 359.960,47.064 363.394,44.100 366.828,58.548 370.263,58.599 373.697,37.942 377.131,65.208 380.566,66.020 384.000,69.509 "/>
<g>
</g>
</g>
<g id="ID000007" >
</g>
<g id="ID000008" >
</g>
<g id="ID000009" >
</g>
    </g>
    <g>
      <polyline fill="none" stroke="#ffffff" stroke-width="0.5pt" stroke-dasharray="none" points="109.253,258.000 109.253,254.600 "/>
      <polyline fill="none" stroke="#ffffff" stroke-width="0.5pt" stroke-dasharray="none" points="177.939,258.000 177.939,254.600 "/>
      <polyline fill="none" stroke="#ffffff" stroke-width="0.5pt" stroke-dasharray="none" points="246.626,258.000 246.626,254.600 "/>
      <polyline fill="none" stroke="#ffffff" stroke-width="0.5pt" stroke-dasharray="none" points="315.313,258.000 315.313,254.600 "/>
      <polyline fill="none" stroke="#ffffff" stroke-width="0.5pt" stroke-dasharray="none" points="44.000,258.000 384.000,258.000 "/>
      <polyline fill="none" stroke="#ffffff" stroke-width="0.5pt" stroke-dasharray="none" points="109.253,33.000 109.253,36.400 "/>
      <polyline fill="none" stroke="#ffffff" stroke-width="0.5pt" stroke-dasharray="none" points="177.939,33.000 177.939,36.400 "/>
      <polyline fill="none" stroke="#ffffff" stroke-width="0.5pt" stroke-dasharray="none" points="246.626,33.000 246.626,36.400 "/>
      <polyline fill="none" stroke="#ffffff" stroke-width="0.5pt" stroke-dasharray="none" points="315.313,33.000 315.313,36.400 "/>
      <polyline fill="none" stroke="#ffffff" stroke-width="0.5pt" stroke-dasharray="none" points="44.000,33.000 384.000,33.000 "/>
  <g transform="translate(44.000,274.300)">
    <g transform="rotate(-0.0)">
      <text x="0.000" y="0.000" font-family="Helvetica" text-anchor="middle" font-size="10pt" fill="#ffffff" >  1</text>
    </g>
  </g>
  <g transform="translate(109.253,274.300)">
    <g transform="rotate(-0.0)">
      <text x="0.000" y="0.000" font-family="Helvetica" text-anchor="middle" font-size="10pt" fill="#ffffff" > 20</text>
    </g>
  </g>
  <g transform="translate(177.939,274.300)">
    <g transform="rotate(-0.0)">
      <text x="0.000" y="0.000" font-family="Helvetica" text-anchor="middle" font-size="10pt" fill="#ffffff" > 40</text>
    </g>
  </g>
  <g transform="translate(246.626,274.300)">
    <g transform="rotate(-0.0)">
      <text x="0.000" y="0.000" font-family="Helvetica" text-anchor="middle" font-size="10pt" fill="#ffffff" > 60</text>
    </g>
  </g>
  <g transform="translate(315.313,274.300)">
    <g transform="rotate(-0.0)">
      <text x="0.000" y="0.000" font-family="Helvetica" text-anchor="middle" font-size="10pt" fill="#ffffff" > 80</text>
    </g>
  </g>
  <g transform="translate(384.000,274.300)">
    <g transform="rotate(-0.0)">
      <text x="0.000" y="0.000" font-family="Helvetica" text-anchor="middle" font-size="10pt" fill="#ffffff" >100</text>
    </g>
  </g>
      <polyline fill="none" stroke="#ffffff" stroke-width="0.5pt" stroke-dasharray="none" points="44.000,201.750 47.400,201.750 "/>
      <polyline fill="none" stroke="#ffffff" stroke-width="0.5pt" stroke-dasharray="none" points="44.000,145.500 47.400,145.500 "/>
      <polyline fill="none" stroke="#ffffff" stroke-width="0.5pt" stroke-dasharray="none" points="44.000,89.250 47.400,89.250 "/>
      <polyline fill="none" stroke="#ffffff" stroke-width="0.5pt" stroke-dasharray="none" points="44.000,258.000 44.000,33.000 "/>
      <polyline fill="none" stroke="#ffffff" stroke-width="0.5pt" stroke-dasharray="none" points="384.000,201.750 380.600,201.750 "/>
      <polyline fill="none" stroke="#ffffff" stroke-width="0.5pt" stroke-dasharray="none" points="384.000,145.500 380.600,145.500 "/>
      <polyline fill="none" stroke="#ffffff" stroke-width="0.5pt" stroke-dasharray="none" points="384.000,89.250 380.600,89.250 "/>
      <polyline fill="none" stroke="#ffffff" stroke-width="0.5pt" stroke-dasharray="none" points="384.000,258.000 384.000,33.000 "/>
  <g transform="translate(37.200,262.500)">
    <g transform="rotate(-0.0)">
      <text x="0.000" y="0.000" font-family="Helvetica" text-anchor="end" font-size="10pt" fill="#ffffff" >  0</text>
    </g>
  </g>
  <g transform="translate(37.200,206.250)">
    <g transform="rotate(-0.0)">
      <text x="0.000" y="0.000" font-family="Helvetica" text-anchor="end" font-size="10pt" fill="#ffffff" >0.3</text>
    </g>
  </g>
  <g transform="translate(37.200,150.000)">
    <g transform="rotate(-0.0)">
      <text x="0.000" y="0.000" font-family="Helvetica" text-anchor="end" font-size="10pt" fill="#ffffff" >0.6</text>
    </g>
  </g>
  <g transform="translate(37.200,93.750)">
    <g transform="rotate(-0.0)">
      <text x="0.000" y="0.000" font-family="Helvetica" text-anchor="end" font-size="10pt" fill="#ffffff" >0.9</text>
    </g>
  </g>
  <g transform="translate(37.200,37.500)">
    <g transform="rotate(-0.0)">
      <text x="0.000" y="0.000" font-family="Helvetica" text-anchor="end" font-size="10pt" fill="#ffffff" >1.2</text>
    </g>
  </g>
      <polyline fill="none" stroke="#000000" stroke-width="0.5pt" stroke-dasharray="none" points="44.000,258.000 44.000,255.750 "/>
      <polyline fill="none" stroke="#000000" stroke-width="0.5pt" stroke-dasharray="none" points="44.000,258.000 44.000,258.000 "/>
    </g>
  </g>
  </g>
</svg>
