<?xml version="1.0" encoding="utf-8" standalone="no"?><!DOCTYPE svg PUBLIC "-//W3C//DTD SVG 1.1//EN" "http://www.w3.org/Graphics/SVG/1.1/DTD/svg11.dtd">
<svg preserveAspectRatio="xMinYMin meet" width="100%" height="100%" viewBox="0 0 560.000 420.000"  version="1.1" xmlns="http://www.w3.org/2000/svg" xmlns:xlink="http://www.w3.org/1999/xlink">
  <desc>Matlab Figure Converted by PLOT2SVG written by Juerg Schwizer</desc>
  <g id="topgroup">
  <rect x="0" y="0" width="560.000" height="420.000" fill="#ffffff" stroke="none" />
  <g id ="ID000000">
  <clipPath id="ID000001">
    <rect x="61.600" y="46.200" width="476.000" height="315.000"/>
  </clipPath>
      <polygon fill="#ffffff" fill-opacity="1.00" stroke="none" stroke-width="2.0pt" stroke-opacity="1.00" stroke-dasharray="none" points="61.600,361.200 537.600,361.200 537.600,46.200 61.600,46.200 "/>
      <polygon fill="#ffffff" fill-opacity="1.00" stroke="none" stroke-width="2.0pt" stroke-opacity="1.00" stroke-dasharray="none" points="61.600,46.200 537.600,46.200 537.600,46.200 61.600,46.200 "/>
      <polygon fill="#ffffff" fill-opacity="1.00" stroke="none" stroke-width="2.0pt" stroke-opacity="1.00" stroke-dasharray="none" points="61.600,361.200 61.600,361.200 61.600,46.200 61.600,46.200 "/>
    <g>
<g id="ID000002" clip-path="url(#ID000001)" >
      <polyline fill="none" stroke="#000000" stroke-width="2.0pt" stroke-dasharray="none" points="61.600,59.428 66.091,59.428 70.581,59.428 75.072,68.217 79.562,60.377 84.053,86.587 88.543,104.139 93.034,101.419 97.525,98.698 102.015,125.303 106.506,142.637 110.996,148.563 115.487,146.524 119.977,155.601 124.468,164.294 128.958,168.126 133.449,171.959 137.940,181.166 142.430,175.072 146.921,190.104 151.411,205.136 155.902,201.262 160.392,195.851 164.883,202.613 169.374,213.771 173.864,224.930 178.355,226.806 182.845,228.414 187.336,227.195 191.826,228.477 196.317,232.463 200.808,238.515 205.298,249.471 209.789,259.910 214.279,252.288 218.770,249.392 223.260,249.443 227.751,250.400 232.242,250.400 236.732,251.358 241.223,257.726 245.713,265.891 250.204,274.057 254.694,268.922 259.185,270.884 263.675,270.831 268.166,276.669 272.657,281.221 277.147,281.731 281.638,290.425 286.128,285.242 290.619,279.489 295.109,285.275 299.600,289.421 304.091,288.282 308.581,286.860 313.072,285.438 317.562,292.643 322.053,288.351 326.543,292.993 331.034,292.993 335.525,297.635 340.015,299.569 344.506,294.272 348.996,299.957 353.487,296.015 357.977,301.907 362.468,300.891 366.958,299.875 371.449,300.987 375.940,302.597 380.430,303.185 384.921,303.826 389.411,307.837 393.902,310.780 398.392,305.718 402.883,305.982 407.374,306.352 411.864,308.991 416.355,310.959 420.845,312.928 425.336,309.889 429.826,313.049 434.317,305.905 438.808,313.452 443.298,309.940 447.789,313.828 452.279,311.420 456.770,313.322 461.260,314.267 465.751,315.212 470.242,313.824 474.732,312.435 479.223,318.846 483.713,316.346 488.204,313.845 492.694,318.320 497.185,319.061 501.675,315.453 506.166,311.846 510.657,319.700 515.147,315.839 519.638,314.830 524.128,319.438 528.619,318.262 533.109,318.193 537.600,320.909 "/>
<g>
</g>
</g>
<g id="ID000003" >
      <polyline fill="none" stroke="#bfbfbf" stroke-width="2.0pt" stroke-dasharray="none" points="70.581,62.902 70.581,55.955 "/>
<g>
</g>
</g>
<g id="ID000004" >
      <polyline fill="none" stroke="#bfbfbf" stroke-width="2.0pt" stroke-dasharray="none" points="75.072,72.113 75.072,64.321 "/>
<g>
</g>
</g>
<g id="ID000005" >
      <polyline fill="none" stroke="#bfbfbf" stroke-width="2.0pt" stroke-dasharray="none" points="79.562,65.576 79.562,55.178 "/>
<g>
</g>
</g>
<g id="ID000006" >
      <polyline fill="none" stroke="#bfbfbf" stroke-width="2.0pt" stroke-dasharray="none" points="84.053,92.901 84.053,80.272 "/>
<g>
</g>
</g>
<g id="ID000007" >
      <polyline fill="none" stroke="#bfbfbf" stroke-width="2.0pt" stroke-dasharray="none" points="88.543,106.831 88.543,101.447 "/>
<g>
</g>
</g>
<g id="ID000008" >
      <polyline fill="none" stroke="#bfbfbf" stroke-width="2.0pt" stroke-dasharray="none" points="97.525,104.718 97.525,92.679 "/>
<g>
</g>
</g>
<g id="ID000009" >
      <polyline fill="none" stroke="#bfbfbf" stroke-width="2.0pt" stroke-dasharray="none" points="102.015,149.609 102.015,100.997 "/>
<g>
</g>
</g>
<g id="ID000010" >
      <polyline fill="none" stroke="#bfbfbf" stroke-width="2.0pt" stroke-dasharray="none" points="106.506,145.870 106.506,139.404 "/>
<g>
</g>
</g>
<g id="ID000011" >
      <polyline fill="none" stroke="#bfbfbf" stroke-width="2.0pt" stroke-dasharray="none" points="110.996,152.290 110.996,144.836 "/>
<g>
</g>
</g>
<g id="ID000012" >
      <polyline fill="none" stroke="#bfbfbf" stroke-width="2.0pt" stroke-dasharray="none" points="115.487,149.465 115.487,143.583 "/>
<g>
</g>
</g>
<g id="ID000013" >
      <polyline fill="none" stroke="#bfbfbf" stroke-width="2.0pt" stroke-dasharray="none" points="119.977,162.605 119.977,148.597 "/>
<g>
</g>
</g>
<g id="ID000014" >
      <polyline fill="none" stroke="#bfbfbf" stroke-width="2.0pt" stroke-dasharray="none" points="124.468,167.120 124.468,161.468 "/>
<g>
</g>
</g>
<g id="ID000015" >
      <polyline fill="none" stroke="#bfbfbf" stroke-width="2.0pt" stroke-dasharray="none" points="133.449,174.693 133.449,169.225 "/>
<g>
</g>
</g>
<g id="ID000016" >
      <polyline fill="none" stroke="#bfbfbf" stroke-width="2.0pt" stroke-dasharray="none" points="137.940,185.184 137.940,177.148 "/>
<g>
</g>
</g>
<g id="ID000017" >
      <polyline fill="none" stroke="#bfbfbf" stroke-width="2.0pt" stroke-dasharray="none" points="142.430,176.325 142.430,173.819 "/>
<g>
</g>
</g>
<g id="ID000018" >
      <polyline fill="none" stroke="#bfbfbf" stroke-width="2.0pt" stroke-dasharray="none" points="151.411,209.500 151.411,200.771 "/>
<g>
</g>
</g>
<g id="ID000019" >
      <polyline fill="none" stroke="#bfbfbf" stroke-width="2.0pt" stroke-dasharray="none" points="155.902,209.018 155.902,193.507 "/>
<g>
</g>
</g>
<g id="ID000020" >
      <polyline fill="none" stroke="#bfbfbf" stroke-width="2.0pt" stroke-dasharray="none" points="160.392,198.255 160.392,193.447 "/>
<g>
</g>
</g>
<g id="ID000021" >
      <polyline fill="none" stroke="#bfbfbf" stroke-width="2.0pt" stroke-dasharray="none" points="164.883,204.448 164.883,200.778 "/>
<g>
</g>
</g>
<g id="ID000022" >
      <polyline fill="none" stroke="#bfbfbf" stroke-width="2.0pt" stroke-dasharray="none" points="173.864,229.782 173.864,220.078 "/>
<g>
</g>
</g>
<g id="ID000023" >
      <polyline fill="none" stroke="#bfbfbf" stroke-width="2.0pt" stroke-dasharray="none" points="178.355,229.921 178.355,223.691 "/>
<g>
</g>
</g>
<g id="ID000024" >
      <polyline fill="none" stroke="#bfbfbf" stroke-width="2.0pt" stroke-dasharray="none" points="182.845,231.164 182.845,225.664 "/>
<g>
</g>
</g>
<g id="ID000025" >
      <polyline fill="none" stroke="#bfbfbf" stroke-width="2.0pt" stroke-dasharray="none" points="187.336,230.394 187.336,223.996 "/>
<g>
</g>
</g>
<g id="ID000026" >
      <polyline fill="none" stroke="#bfbfbf" stroke-width="2.0pt" stroke-dasharray="none" points="191.826,230.072 191.826,226.881 "/>
<g>
</g>
</g>
<g id="ID000027" >
      <polyline fill="none" stroke="#bfbfbf" stroke-width="2.0pt" stroke-dasharray="none" points="196.317,235.720 196.317,229.206 "/>
<g>
</g>
</g>
<g id="ID000028" >
      <polyline fill="none" stroke="#bfbfbf" stroke-width="2.0pt" stroke-dasharray="none" points="200.808,239.389 200.808,237.641 "/>
<g>
</g>
</g>
<g id="ID000029" >
      <polyline fill="none" stroke="#bfbfbf" stroke-width="2.0pt" stroke-dasharray="none" points="205.298,254.841 205.298,244.102 "/>
<g>
</g>
</g>
<g id="ID000030" >
      <polyline fill="none" stroke="#bfbfbf" stroke-width="2.0pt" stroke-dasharray="none" points="209.789,265.555 209.789,254.266 "/>
<g>
</g>
</g>
<g id="ID000031" >
      <polyline fill="none" stroke="#bfbfbf" stroke-width="2.0pt" stroke-dasharray="none" points="214.279,254.226 214.279,250.350 "/>
<g>
</g>
</g>
<g id="ID000032" >
      <polyline fill="none" stroke="#bfbfbf" stroke-width="2.0pt" stroke-dasharray="none" points="218.770,251.446 218.770,247.338 "/>
<g>
</g>
</g>
<g id="ID000033" >
      <polyline fill="none" stroke="#bfbfbf" stroke-width="2.0pt" stroke-dasharray="none" points="223.260,250.325 223.260,248.560 "/>
<g>
</g>
</g>
<g id="ID000034" >
      <polyline fill="none" stroke="#bfbfbf" stroke-width="2.0pt" stroke-dasharray="none" points="236.732,252.264 236.732,250.452 "/>
<g>
</g>
</g>
<g id="ID000035" >
      <polyline fill="none" stroke="#bfbfbf" stroke-width="2.0pt" stroke-dasharray="none" points="241.223,258.601 241.223,256.850 "/>
<g>
</g>
</g>
<g id="ID000036" >
      <polyline fill="none" stroke="#bfbfbf" stroke-width="2.0pt" stroke-dasharray="none" points="250.204,275.467 250.204,272.647 "/>
<g>
</g>
</g>
<g id="ID000037" >
      <polyline fill="none" stroke="#bfbfbf" stroke-width="2.0pt" stroke-dasharray="none" points="254.694,270.360 254.694,267.483 "/>
<g>
</g>
</g>
<g id="ID000038" >
      <polyline fill="none" stroke="#bfbfbf" stroke-width="2.0pt" stroke-dasharray="none" points="259.185,272.963 259.185,268.805 "/>
<g>
</g>
</g>
<g id="ID000039" >
      <polyline fill="none" stroke="#bfbfbf" stroke-width="2.0pt" stroke-dasharray="none" points="263.675,274.292 263.675,267.370 "/>
<g>
</g>
</g>
<g id="ID000040" >
      <polyline fill="none" stroke="#bfbfbf" stroke-width="2.0pt" stroke-dasharray="none" points="268.166,279.602 268.166,273.735 "/>
<g>
</g>
</g>
<g id="ID000041" >
      <polyline fill="none" stroke="#bfbfbf" stroke-width="2.0pt" stroke-dasharray="none" points="272.657,284.037 272.657,278.404 "/>
<g>
</g>
</g>
<g id="ID000042" >
      <polyline fill="none" stroke="#bfbfbf" stroke-width="2.0pt" stroke-dasharray="none" points="277.147,283.580 277.147,279.881 "/>
<g>
</g>
</g>
<g id="ID000043" >
      <polyline fill="none" stroke="#bfbfbf" stroke-width="2.0pt" stroke-dasharray="none" points="281.638,291.378 281.638,289.472 "/>
<g>
</g>
</g>
<g id="ID000044" >
      <polyline fill="none" stroke="#bfbfbf" stroke-width="2.0pt" stroke-dasharray="none" points="286.128,287.265 286.128,283.218 "/>
<g>
</g>
</g>
<g id="ID000045" >
      <polyline fill="none" stroke="#bfbfbf" stroke-width="2.0pt" stroke-dasharray="none" points="290.619,281.427 290.619,277.552 "/>
<g>
</g>
</g>
<g id="ID000046" >
      <polyline fill="none" stroke="#bfbfbf" stroke-width="2.0pt" stroke-dasharray="none" points="295.109,287.265 295.109,283.286 "/>
<g>
</g>
</g>
<g id="ID000047" >
      <polyline fill="none" stroke="#bfbfbf" stroke-width="2.0pt" stroke-dasharray="none" points="299.600,290.767 299.600,288.074 "/>
<g>
</g>
</g>
<g id="ID000048" >
      <polyline fill="none" stroke="#bfbfbf" stroke-width="2.0pt" stroke-dasharray="none" points="304.091,288.934 304.091,287.629 "/>
<g>
</g>
</g>
<g id="ID000049" >
      <polyline fill="none" stroke="#bfbfbf" stroke-width="2.0pt" stroke-dasharray="none" points="313.072,287.575 313.072,283.301 "/>
<g>
</g>
</g>
<g id="ID000050" >
      <polyline fill="none" stroke="#bfbfbf" stroke-width="2.0pt" stroke-dasharray="none" points="317.562,293.288 317.562,291.998 "/>
<g>
</g>
</g>
<g id="ID000051" >
      <polyline fill="none" stroke="#bfbfbf" stroke-width="2.0pt" stroke-dasharray="none" points="322.053,289.576 322.053,287.126 "/>
<g>
</g>
</g>
<g id="ID000052" >
      <polyline fill="none" stroke="#bfbfbf" stroke-width="2.0pt" stroke-dasharray="none" points="335.525,298.338 335.525,296.933 "/>
<g>
</g>
</g>
<g id="ID000053" >
      <polyline fill="none" stroke="#bfbfbf" stroke-width="2.0pt" stroke-dasharray="none" points="340.015,299.571 340.015,299.567 "/>
<g>
</g>
</g>
<g id="ID000054" >
      <polyline fill="none" stroke="#bfbfbf" stroke-width="2.0pt" stroke-dasharray="none" points="344.506,296.240 344.506,292.305 "/>
<g>
</g>
</g>
<g id="ID000055" >
      <polyline fill="none" stroke="#bfbfbf" stroke-width="2.0pt" stroke-dasharray="none" points="348.996,301.083 348.996,298.831 "/>
<g>
</g>
</g>
<g id="ID000056" >
      <polyline fill="none" stroke="#bfbfbf" stroke-width="2.0pt" stroke-dasharray="none" points="353.487,296.784 353.487,295.245 "/>
<g>
</g>
</g>
<g id="ID000057" >
      <polyline fill="none" stroke="#bfbfbf" stroke-width="2.0pt" stroke-dasharray="none" points="357.977,303.354 357.977,300.460 "/>
<g>
</g>
</g>
<g id="ID000058" >
      <polyline fill="none" stroke="#bfbfbf" stroke-width="2.0pt" stroke-dasharray="none" points="366.958,301.208 366.958,298.543 "/>
<g>
</g>
</g>
<g id="ID000059" >
      <polyline fill="none" stroke="#bfbfbf" stroke-width="2.0pt" stroke-dasharray="none" points="371.449,301.592 371.449,300.381 "/>
<g>
</g>
</g>
<g id="ID000060" >
      <polyline fill="none" stroke="#bfbfbf" stroke-width="2.0pt" stroke-dasharray="none" points="375.940,302.693 375.940,302.500 "/>
<g>
</g>
</g>
<g id="ID000061" >
      <polyline fill="none" stroke="#bfbfbf" stroke-width="2.0pt" stroke-dasharray="none" points="380.430,303.965 380.430,302.404 "/>
<g>
</g>
</g>
<g id="ID000062" >
      <polyline fill="none" stroke="#bfbfbf" stroke-width="2.0pt" stroke-dasharray="none" points="384.921,304.450 384.921,303.201 "/>
<g>
</g>
</g>
<g id="ID000063" >
      <polyline fill="none" stroke="#bfbfbf" stroke-width="2.0pt" stroke-dasharray="none" points="389.411,308.181 389.411,307.493 "/>
<g>
</g>
</g>
<g id="ID000064" >
      <polyline fill="none" stroke="#bfbfbf" stroke-width="2.0pt" stroke-dasharray="none" points="393.902,313.915 393.902,307.645 "/>
<g>
</g>
</g>
<g id="ID000065" >
      <polyline fill="none" stroke="#bfbfbf" stroke-width="2.0pt" stroke-dasharray="none" points="398.392,307.466 398.392,303.969 "/>
<g>
</g>
</g>
<g id="ID000066" >
      <polyline fill="none" stroke="#bfbfbf" stroke-width="2.0pt" stroke-dasharray="none" points="402.883,306.666 402.883,305.298 "/>
<g>
</g>
</g>
<g id="ID000067" >
      <polyline fill="none" stroke="#bfbfbf" stroke-width="2.0pt" stroke-dasharray="none" points="407.374,307.015 407.374,305.689 "/>
<g>
</g>
</g>
<g id="ID000068" >
      <polyline fill="none" stroke="#bfbfbf" stroke-width="2.0pt" stroke-dasharray="none" points="411.864,309.786 411.864,308.196 "/>
<g>
</g>
</g>
<g id="ID000069" >
      <polyline fill="none" stroke="#bfbfbf" stroke-width="2.0pt" stroke-dasharray="none" points="420.845,314.587 420.845,311.269 "/>
<g>
</g>
</g>
<g id="ID000070" >
      <polyline fill="none" stroke="#bfbfbf" stroke-width="2.0pt" stroke-dasharray="none" points="425.336,310.896 425.336,308.883 "/>
<g>
</g>
</g>
<g id="ID000071" >
      <polyline fill="none" stroke="#bfbfbf" stroke-width="2.0pt" stroke-dasharray="none" points="429.826,313.680 429.826,312.419 "/>
<g>
</g>
</g>
<g id="ID000072" >
      <polyline fill="none" stroke="#bfbfbf" stroke-width="2.0pt" stroke-dasharray="none" points="434.317,306.769 434.317,305.041 "/>
<g>
</g>
</g>
<g id="ID000073" >
      <polyline fill="none" stroke="#bfbfbf" stroke-width="2.0pt" stroke-dasharray="none" points="438.808,313.776 438.808,313.128 "/>
<g>
</g>
</g>
<g id="ID000074" >
      <polyline fill="none" stroke="#bfbfbf" stroke-width="2.0pt" stroke-dasharray="none" points="443.298,310.956 443.298,308.924 "/>
<g>
</g>
</g>
<g id="ID000075" >
      <polyline fill="none" stroke="#bfbfbf" stroke-width="2.0pt" stroke-dasharray="none" points="447.789,315.600 447.789,312.056 "/>
<g>
</g>
</g>
<g id="ID000076" >
      <polyline fill="none" stroke="#bfbfbf" stroke-width="2.0pt" stroke-dasharray="none" points="452.279,311.723 452.279,311.118 "/>
<g>
</g>
</g>
<g id="ID000077" >
      <polyline fill="none" stroke="#bfbfbf" stroke-width="2.0pt" stroke-dasharray="none" points="456.770,313.862 456.770,312.782 "/>
<g>
</g>
</g>
<g id="ID000078" >
      <polyline fill="none" stroke="#bfbfbf" stroke-width="2.0pt" stroke-dasharray="none" points="465.751,316.509 465.751,313.915 "/>
<g>
</g>
</g>
<g id="ID000079" >
      <polyline fill="none" stroke="#bfbfbf" stroke-width="2.0pt" stroke-dasharray="none" points="474.732,313.473 474.732,311.398 "/>
<g>
</g>
</g>
<g id="ID000080" >
      <polyline fill="none" stroke="#bfbfbf" stroke-width="2.0pt" stroke-dasharray="none" points="479.223,319.166 479.223,318.527 "/>
<g>
</g>
</g>
<g id="ID000081" >
      <polyline fill="none" stroke="#bfbfbf" stroke-width="2.0pt" stroke-dasharray="none" points="488.204,314.112 488.204,313.578 "/>
<g>
</g>
</g>
<g id="ID000082" >
      <polyline fill="none" stroke="#bfbfbf" stroke-width="2.0pt" stroke-dasharray="none" points="492.694,319.152 492.694,317.487 "/>
<g>
</g>
</g>
<g id="ID000083" >
      <polyline fill="none" stroke="#bfbfbf" stroke-width="2.0pt" stroke-dasharray="none" points="497.185,320.046 497.185,318.076 "/>
<g>
</g>
</g>
<g id="ID000084" >
      <polyline fill="none" stroke="#bfbfbf" stroke-width="2.0pt" stroke-dasharray="none" points="506.166,312.299 506.166,311.392 "/>
<g>
</g>
</g>
<g id="ID000085" >
      <polyline fill="none" stroke="#bfbfbf" stroke-width="2.0pt" stroke-dasharray="none" points="510.657,320.558 510.657,318.841 "/>
<g>
</g>
</g>
<g id="ID000086" >
      <polyline fill="none" stroke="#bfbfbf" stroke-width="2.0pt" stroke-dasharray="none" points="515.147,315.944 515.147,315.734 "/>
<g>
</g>
</g>
<g id="ID000087" >
      <polyline fill="none" stroke="#bfbfbf" stroke-width="2.0pt" stroke-dasharray="none" points="519.638,315.449 519.638,314.210 "/>
<g>
</g>
</g>
<g id="ID000088" >
      <polyline fill="none" stroke="#bfbfbf" stroke-width="2.0pt" stroke-dasharray="none" points="524.128,319.445 524.128,319.432 "/>
<g>
</g>
</g>
<g id="ID000089" >
      <polyline fill="none" stroke="#bfbfbf" stroke-width="2.0pt" stroke-dasharray="none" points="528.619,318.468 528.619,318.057 "/>
<g>
</g>
</g>
<g id="ID000090" >
      <polyline fill="none" stroke="#bfbfbf" stroke-width="2.0pt" stroke-dasharray="none" points="533.109,319.178 533.109,317.208 "/>
<g>
</g>
</g>
<g id="ID000091" >
      <polyline fill="none" stroke="#bfbfbf" stroke-width="2.0pt" stroke-dasharray="none" points="537.600,322.302 537.600,319.517 "/>
<g>
</g>
</g>
<g id="ID000092" >
  <g transform="translate(299.100,394.100)">
    <g transform="rotate(-0.0)">
      <text x="0.000" y="0.000" font-family="Helvetica" text-anchor="middle" font-size="12pt" fill="#000000" >SNR</text>
    </g>
  </g>
</g>
<g id="ID000093" >
  <g transform="translate(24.100,205.700)">
    <g transform="rotate(-90.0)">
      <text x="0.000" y="0.000" font-family="Helvetica" text-anchor="middle" font-size="12pt" fill="#000000" >samples per C*</text>
    </g>
  </g>
</g>
<g id="ID000094" >
</g>
<g id="ID000095" >
      <polyline fill="none" stroke="#000000" stroke-width="2.0pt" stroke-dasharray="none" points="61.600,361.200 61.600,46.200 "/>
<g>
</g>
</g>
<g id="ID000096" >
      <polyline fill="none" stroke="#000000" stroke-width="2.0pt" stroke-dasharray="none" points="61.600,361.200 537.600,361.200 "/>
<g>
</g>
</g>
    </g>
    <g>
      <polyline fill="none" stroke="#000000" stroke-width="2.0pt" stroke-dasharray="none" points="61.600,361.200 61.600,356.440 "/>
      <polyline fill="none" stroke="#000000" stroke-width="2.0pt" stroke-dasharray="none" points="88.543,361.200 88.543,356.440 "/>
      <polyline fill="none" stroke="#000000" stroke-width="2.0pt" stroke-dasharray="none" points="155.902,361.200 155.902,356.440 "/>
      <polyline fill="none" stroke="#000000" stroke-width="2.0pt" stroke-dasharray="none" points="223.260,361.200 223.260,356.440 "/>
      <polyline fill="none" stroke="#000000" stroke-width="2.0pt" stroke-dasharray="none" points="290.619,361.200 290.619,356.440 "/>
      <polyline fill="none" stroke="#000000" stroke-width="2.0pt" stroke-dasharray="none" points="357.977,361.200 357.977,356.440 "/>
      <polyline fill="none" stroke="#000000" stroke-width="2.0pt" stroke-dasharray="none" points="425.336,361.200 425.336,356.440 "/>
      <polyline fill="none" stroke="#000000" stroke-width="2.0pt" stroke-dasharray="none" points="492.694,361.200 492.694,356.440 "/>
      <polyline fill="none" stroke="#000000" stroke-width="2.0pt" stroke-dasharray="none" points="537.600,361.200 537.600,356.440 "/>
      <polyline fill="none" stroke="#000000" stroke-width="2.0pt" stroke-dasharray="none" points="61.600,361.200 537.600,361.200 "/>
  <g transform="translate(61.600,379.300)">
    <g transform="rotate(-0.0)">
      <text x="0.000" y="0.000" font-family="Helvetica" text-anchor="middle" font-size="10pt" fill="#000000" >0.138</text>
    </g>
  </g>
  <g transform="translate(88.543,379.300)">
    <g transform="rotate(-0.0)">
      <text x="0.000" y="0.000" font-family="Helvetica" text-anchor="middle" font-size="10pt" fill="#000000" > 0.15</text>
    </g>
  </g>
  <g transform="translate(155.902,379.300)">
    <g transform="rotate(-0.0)">
      <text x="0.000" y="0.000" font-family="Helvetica" text-anchor="middle" font-size="10pt" fill="#000000" > 0.18</text>
    </g>
  </g>
  <g transform="translate(223.260,379.300)">
    <g transform="rotate(-0.0)">
      <text x="0.000" y="0.000" font-family="Helvetica" text-anchor="middle" font-size="10pt" fill="#000000" > 0.21</text>
    </g>
  </g>
  <g transform="translate(290.619,379.300)">
    <g transform="rotate(-0.0)">
      <text x="0.000" y="0.000" font-family="Helvetica" text-anchor="middle" font-size="10pt" fill="#000000" > 0.24</text>
    </g>
  </g>
  <g transform="translate(357.977,379.300)">
    <g transform="rotate(-0.0)">
      <text x="0.000" y="0.000" font-family="Helvetica" text-anchor="middle" font-size="10pt" fill="#000000" > 0.27</text>
    </g>
  </g>
  <g transform="translate(425.336,379.300)">
    <g transform="rotate(-0.0)">
      <text x="0.000" y="0.000" font-family="Helvetica" text-anchor="middle" font-size="10pt" fill="#000000" >  0.3</text>
    </g>
  </g>
  <g transform="translate(492.694,379.300)">
    <g transform="rotate(-0.0)">
      <text x="0.000" y="0.000" font-family="Helvetica" text-anchor="middle" font-size="10pt" fill="#000000" > 0.33</text>
    </g>
  </g>
  <g transform="translate(537.600,379.300)">
    <g transform="rotate(-0.0)">
      <text x="0.000" y="0.000" font-family="Helvetica" text-anchor="middle" font-size="10pt" fill="#000000" > 0.35</text>
    </g>
  </g>
      <polyline fill="none" stroke="#000000" stroke-width="2.0pt" stroke-dasharray="none" points="61.600,361.200 66.360,361.200 "/>
      <polyline fill="none" stroke="#000000" stroke-width="2.0pt" stroke-dasharray="none" points="61.600,298.200 66.360,298.200 "/>
      <polyline fill="none" stroke="#000000" stroke-width="2.0pt" stroke-dasharray="none" points="61.600,235.200 66.360,235.200 "/>
      <polyline fill="none" stroke="#000000" stroke-width="2.0pt" stroke-dasharray="none" points="61.600,172.200 66.360,172.200 "/>
      <polyline fill="none" stroke="#000000" stroke-width="2.0pt" stroke-dasharray="none" points="61.600,109.200 66.360,109.200 "/>
      <polyline fill="none" stroke="#000000" stroke-width="2.0pt" stroke-dasharray="none" points="61.600,46.200 66.360,46.200 "/>
      <polyline fill="none" stroke="#000000" stroke-width="2.0pt" stroke-dasharray="none" points="61.600,361.200 61.600,46.200 "/>
  <g transform="translate(52.080,365.700)">
    <g transform="rotate(-0.0)">
      <text x="0.000" y="0.000" font-family="Helvetica" text-anchor="end" font-size="10pt" fill="#000000" >  0</text>
    </g>
  </g>
  <g transform="translate(52.080,302.700)">
    <g transform="rotate(-0.0)">
      <text x="0.000" y="0.000" font-family="Helvetica" text-anchor="end" font-size="10pt" fill="#000000" > 20</text>
    </g>
  </g>
  <g transform="translate(52.080,239.700)">
    <g transform="rotate(-0.0)">
      <text x="0.000" y="0.000" font-family="Helvetica" text-anchor="end" font-size="10pt" fill="#000000" > 40</text>
    </g>
  </g>
  <g transform="translate(52.080,176.700)">
    <g transform="rotate(-0.0)">
      <text x="0.000" y="0.000" font-family="Helvetica" text-anchor="end" font-size="10pt" fill="#000000" > 60</text>
    </g>
  </g>
  <g transform="translate(52.080,113.700)">
    <g transform="rotate(-0.0)">
      <text x="0.000" y="0.000" font-family="Helvetica" text-anchor="end" font-size="10pt" fill="#000000" > 80</text>
    </g>
  </g>
  <g transform="translate(52.080,50.700)">
    <g transform="rotate(-0.0)">
      <text x="0.000" y="0.000" font-family="Helvetica" text-anchor="end" font-size="10pt" fill="#000000" >100</text>
    </g>
  </g>
      <polyline fill="none" stroke="#000000" stroke-width="2.0pt" stroke-dasharray="none" points="61.600,361.200 61.600,358.050 "/>
      <polyline fill="none" stroke="#000000" stroke-width="2.0pt" stroke-dasharray="none" points="61.600,361.200 61.600,358.050 "/>
      <polyline fill="none" stroke="#000000" stroke-width="2.0pt" stroke-dasharray="none" points="61.600,361.200 61.600,358.050 "/>
      <polyline fill="none" stroke="#000000" stroke-width="2.0pt" stroke-dasharray="none" points="61.600,361.200 61.600,361.200 "/>
    </g>
  </g>
  </g>
</svg>
