<?xml version="1.0" encoding="utf-8" standalone="no"?><!DOCTYPE svg PUBLIC "-//W3C//DTD SVG 1.1//EN" "http://www.w3.org/Graphics/SVG/1.1/DTD/svg11.dtd">
<svg preserveAspectRatio="xMinYMin meet" width="100%" height="100%" viewBox="0 0 560.000 420.000"  version="1.1" xmlns="http://www.w3.org/2000/svg" xmlns:xlink="http://www.w3.org/1999/xlink">
  <desc>Matlab Figure Converted by PLOT2SVG written by Juerg Schwizer</desc>
  <g id="topgroup">
  <rect x="0" y="0" width="560.000" height="420.000" fill="#ffffff" stroke="none" />
  <g id ="ID000000">
  <clipPath id="ID000001">
    <rect x="61.600" y="46.200" width="476.000" height="315.000"/>
  </clipPath>
      <polygon fill="#ffffff" fill-opacity="1.00" stroke="none" stroke-width="2.0pt" stroke-opacity="1.00" stroke-dasharray="none" points="61.600,361.200 537.600,361.200 537.600,46.200 61.600,46.200 "/>
      <polygon fill="#ffffff" fill-opacity="1.00" stroke="none" stroke-width="2.0pt" stroke-opacity="1.00" stroke-dasharray="none" points="61.600,46.200 537.600,46.200 537.600,46.200 61.600,46.200 "/>
      <polygon fill="#ffffff" fill-opacity="1.00" stroke="none" stroke-width="2.0pt" stroke-opacity="1.00" stroke-dasharray="none" points="61.600,361.200 61.600,361.200 61.600,46.200 61.600,46.200 "/>
    <g>
<g id="ID000002" clip-path="url(#ID000001)" >
      <polyline fill="none" stroke="#000000" stroke-width="2.0pt" stroke-dasharray="none" points="61.600,64.775 65.888,64.775 70.177,64.775 74.465,64.775 78.753,64.775 83.041,74.070 87.330,83.365 91.618,100.401 95.906,109.938 100.195,119.476 104.483,141.710 108.771,135.151 113.059,131.427 117.348,152.177 121.636,153.050 125.924,159.581 130.213,163.855 134.501,171.863 138.789,173.297 143.077,174.730 147.366,186.765 151.654,198.800 155.942,178.459 160.231,189.192 164.519,195.292 168.807,201.392 173.095,204.994 177.384,202.994 181.672,215.614 185.960,215.899 190.249,216.185 194.537,229.514 198.825,230.101 203.114,234.405 207.402,230.636 211.690,229.154 215.978,237.172 220.267,241.478 224.555,244.420 228.843,243.544 233.132,246.088 237.420,246.778 241.708,243.146 245.996,255.410 250.285,263.295 254.573,266.148 258.861,260.815 263.150,255.482 267.438,261.615 271.726,269.609 276.014,266.912 280.303,274.268 284.591,268.568 288.879,277.007 293.168,259.073 297.456,278.909 301.744,277.146 306.032,274.206 310.321,271.461 314.609,281.737 318.897,280.242 323.186,278.747 327.474,279.155 331.762,282.253 336.050,285.280 340.339,281.779 344.627,282.108 348.915,292.124 353.204,288.883 357.492,285.641 361.780,293.997 366.068,295.564 370.357,298.878 374.645,295.751 378.933,296.564 383.222,297.279 387.510,291.845 391.798,294.634 396.086,297.423 400.375,294.118 404.663,304.990 408.951,309.158 413.240,302.125 417.528,301.926 421.816,304.643 426.105,314.076 430.393,305.772 434.681,307.058 438.969,311.484 443.258,319.260 447.546,310.399 451.834,310.182 456.123,313.734 460.411,314.722 464.699,312.560 468.987,308.207 473.276,312.733 477.564,314.353 481.852,326.932 486.141,318.357 490.429,317.464 494.717,320.924 499.005,320.982 503.294,317.528 507.582,321.329 511.870,329.284 516.159,317.620 520.447,323.586 524.735,322.860 529.023,325.616 533.312,323.710 537.600,324.839 "/>
<g>
</g>
</g>
<g id="ID000003" >
      <polyline fill="none" stroke="#bfbfbf" stroke-width="2.0pt" stroke-dasharray="none" points="78.753,72.865 78.753,56.684 "/>
<g>
</g>
</g>
<g id="ID000004" >
      <polyline fill="none" stroke="#bfbfbf" stroke-width="2.0pt" stroke-dasharray="none" points="87.330,104.306 87.330,62.424 "/>
<g>
</g>
</g>
<g id="ID000005" >
      <polyline fill="none" stroke="#bfbfbf" stroke-width="2.0pt" stroke-dasharray="none" points="91.618,122.338 91.618,78.464 "/>
<g>
</g>
</g>
<g id="ID000006" >
      <polyline fill="none" stroke="#bfbfbf" stroke-width="2.0pt" stroke-dasharray="none" points="100.195,159.382 100.195,79.569 "/>
<g>
</g>
</g>
<g id="ID000007" >
      <polyline fill="none" stroke="#bfbfbf" stroke-width="2.0pt" stroke-dasharray="none" points="104.483,212.826 104.483,70.594 "/>
<g>
</g>
</g>
<g id="ID000008" >
      <polyline fill="none" stroke="#bfbfbf" stroke-width="2.0pt" stroke-dasharray="none" points="108.771,163.295 108.771,107.007 "/>
<g>
</g>
</g>
<g id="ID000009" >
      <polyline fill="none" stroke="#bfbfbf" stroke-width="2.0pt" stroke-dasharray="none" points="113.059,137.914 113.059,124.939 "/>
<g>
</g>
</g>
<g id="ID000010" >
      <polyline fill="none" stroke="#bfbfbf" stroke-width="2.0pt" stroke-dasharray="none" points="117.348,164.369 117.348,139.985 "/>
<g>
</g>
</g>
<g id="ID000011" >
      <polyline fill="none" stroke="#bfbfbf" stroke-width="2.0pt" stroke-dasharray="none" points="121.636,187.613 121.636,118.487 "/>
<g>
</g>
</g>
<g id="ID000012" >
      <polyline fill="none" stroke="#bfbfbf" stroke-width="2.0pt" stroke-dasharray="none" points="125.924,167.818 125.924,151.343 "/>
<g>
</g>
</g>
<g id="ID000013" >
      <polyline fill="none" stroke="#bfbfbf" stroke-width="2.0pt" stroke-dasharray="none" points="130.213,173.822 130.213,153.887 "/>
<g>
</g>
</g>
<g id="ID000014" >
      <polyline fill="none" stroke="#bfbfbf" stroke-width="2.0pt" stroke-dasharray="none" points="134.501,191.680 134.501,152.046 "/>
<g>
</g>
</g>
<g id="ID000015" >
      <polyline fill="none" stroke="#bfbfbf" stroke-width="2.0pt" stroke-dasharray="none" points="143.077,184.834 143.077,164.627 "/>
<g>
</g>
</g>
<g id="ID000016" >
      <polyline fill="none" stroke="#bfbfbf" stroke-width="2.0pt" stroke-dasharray="none" points="151.654,216.378 151.654,181.222 "/>
<g>
</g>
</g>
<g id="ID000017" >
      <polyline fill="none" stroke="#bfbfbf" stroke-width="2.0pt" stroke-dasharray="none" points="155.942,183.801 155.942,173.118 "/>
<g>
</g>
</g>
<g id="ID000018" >
      <polyline fill="none" stroke="#bfbfbf" stroke-width="2.0pt" stroke-dasharray="none" points="160.231,193.494 160.231,184.891 "/>
<g>
</g>
</g>
<g id="ID000019" >
      <polyline fill="none" stroke="#bfbfbf" stroke-width="2.0pt" stroke-dasharray="none" points="168.807,204.389 168.807,198.396 "/>
<g>
</g>
</g>
<g id="ID000020" >
      <polyline fill="none" stroke="#bfbfbf" stroke-width="2.0pt" stroke-dasharray="none" points="173.095,213.982 173.095,196.005 "/>
<g>
</g>
</g>
<g id="ID000021" >
      <polyline fill="none" stroke="#bfbfbf" stroke-width="2.0pt" stroke-dasharray="none" points="177.384,210.191 177.384,195.798 "/>
<g>
</g>
</g>
<g id="ID000022" >
      <polyline fill="none" stroke="#bfbfbf" stroke-width="2.0pt" stroke-dasharray="none" points="181.672,230.761 181.672,200.467 "/>
<g>
</g>
</g>
<g id="ID000023" >
      <polyline fill="none" stroke="#bfbfbf" stroke-width="2.0pt" stroke-dasharray="none" points="190.249,224.133 190.249,208.237 "/>
<g>
</g>
</g>
<g id="ID000024" >
      <polyline fill="none" stroke="#bfbfbf" stroke-width="2.0pt" stroke-dasharray="none" points="194.537,242.128 194.537,216.900 "/>
<g>
</g>
</g>
<g id="ID000025" >
      <polyline fill="none" stroke="#bfbfbf" stroke-width="2.0pt" stroke-dasharray="none" points="198.825,237.000 198.825,223.202 "/>
<g>
</g>
</g>
<g id="ID000026" >
      <polyline fill="none" stroke="#bfbfbf" stroke-width="2.0pt" stroke-dasharray="none" points="203.114,253.200 203.114,215.610 "/>
<g>
</g>
</g>
<g id="ID000027" >
      <polyline fill="none" stroke="#bfbfbf" stroke-width="2.0pt" stroke-dasharray="none" points="207.402,249.864 207.402,211.407 "/>
<g>
</g>
</g>
<g id="ID000028" >
      <polyline fill="none" stroke="#bfbfbf" stroke-width="2.0pt" stroke-dasharray="none" points="211.690,247.571 211.690,210.737 "/>
<g>
</g>
</g>
<g id="ID000029" >
      <polyline fill="none" stroke="#bfbfbf" stroke-width="2.0pt" stroke-dasharray="none" points="215.978,242.809 215.978,231.534 "/>
<g>
</g>
</g>
<g id="ID000030" >
      <polyline fill="none" stroke="#bfbfbf" stroke-width="2.0pt" stroke-dasharray="none" points="220.267,249.557 220.267,233.399 "/>
<g>
</g>
</g>
<g id="ID000031" >
      <polyline fill="none" stroke="#bfbfbf" stroke-width="2.0pt" stroke-dasharray="none" points="224.555,261.130 224.555,227.709 "/>
<g>
</g>
</g>
<g id="ID000032" >
      <polyline fill="none" stroke="#bfbfbf" stroke-width="2.0pt" stroke-dasharray="none" points="228.843,250.201 228.843,236.888 "/>
<g>
</g>
</g>
<g id="ID000033" >
      <polyline fill="none" stroke="#bfbfbf" stroke-width="2.0pt" stroke-dasharray="none" points="233.132,253.644 233.132,238.533 "/>
<g>
</g>
</g>
<g id="ID000034" >
      <polyline fill="none" stroke="#bfbfbf" stroke-width="2.0pt" stroke-dasharray="none" points="237.420,255.355 237.420,238.200 "/>
<g>
</g>
</g>
<g id="ID000035" >
      <polyline fill="none" stroke="#bfbfbf" stroke-width="2.0pt" stroke-dasharray="none" points="241.708,252.932 241.708,233.360 "/>
<g>
</g>
</g>
<g id="ID000036" >
      <polyline fill="none" stroke="#bfbfbf" stroke-width="2.0pt" stroke-dasharray="none" points="245.996,263.694 245.996,247.126 "/>
<g>
</g>
</g>
<g id="ID000037" >
      <polyline fill="none" stroke="#bfbfbf" stroke-width="2.0pt" stroke-dasharray="none" points="250.285,271.647 250.285,254.943 "/>
<g>
</g>
</g>
<g id="ID000038" >
      <polyline fill="none" stroke="#bfbfbf" stroke-width="2.0pt" stroke-dasharray="none" points="254.573,271.420 254.573,260.877 "/>
<g>
</g>
</g>
<g id="ID000039" >
      <polyline fill="none" stroke="#bfbfbf" stroke-width="2.0pt" stroke-dasharray="none" points="263.150,275.739 263.150,235.225 "/>
<g>
</g>
</g>
<g id="ID000040" >
      <polyline fill="none" stroke="#bfbfbf" stroke-width="2.0pt" stroke-dasharray="none" points="267.438,267.772 267.438,255.458 "/>
<g>
</g>
</g>
<g id="ID000041" >
      <polyline fill="none" stroke="#bfbfbf" stroke-width="2.0pt" stroke-dasharray="none" points="271.726,272.801 271.726,266.417 "/>
<g>
</g>
</g>
<g id="ID000042" >
      <polyline fill="none" stroke="#bfbfbf" stroke-width="2.0pt" stroke-dasharray="none" points="276.014,277.776 276.014,256.047 "/>
<g>
</g>
</g>
<g id="ID000043" >
      <polyline fill="none" stroke="#bfbfbf" stroke-width="2.0pt" stroke-dasharray="none" points="280.303,286.003 280.303,262.532 "/>
<g>
</g>
</g>
<g id="ID000044" >
      <polyline fill="none" stroke="#bfbfbf" stroke-width="2.0pt" stroke-dasharray="none" points="284.591,274.348 284.591,262.787 "/>
<g>
</g>
</g>
<g id="ID000045" >
      <polyline fill="none" stroke="#bfbfbf" stroke-width="2.0pt" stroke-dasharray="none" points="288.879,288.931 288.879,265.083 "/>
<g>
</g>
</g>
<g id="ID000046" >
      <polyline fill="none" stroke="#bfbfbf" stroke-width="2.0pt" stroke-dasharray="none" points="293.168,274.363 293.168,243.782 "/>
<g>
</g>
</g>
<g id="ID000047" >
      <polyline fill="none" stroke="#bfbfbf" stroke-width="2.0pt" stroke-dasharray="none" points="297.456,289.183 297.456,268.636 "/>
<g>
</g>
</g>
<g id="ID000048" >
      <polyline fill="none" stroke="#bfbfbf" stroke-width="2.0pt" stroke-dasharray="none" points="301.744,286.583 301.744,267.709 "/>
<g>
</g>
</g>
<g id="ID000049" >
      <polyline fill="none" stroke="#bfbfbf" stroke-width="2.0pt" stroke-dasharray="none" points="306.032,285.938 306.032,262.474 "/>
<g>
</g>
</g>
<g id="ID000050" >
      <polyline fill="none" stroke="#bfbfbf" stroke-width="2.0pt" stroke-dasharray="none" points="310.321,275.532 310.321,267.389 "/>
<g>
</g>
</g>
<g id="ID000051" >
      <polyline fill="none" stroke="#bfbfbf" stroke-width="2.0pt" stroke-dasharray="none" points="314.609,290.148 314.609,273.326 "/>
<g>
</g>
</g>
<g id="ID000052" >
      <polyline fill="none" stroke="#bfbfbf" stroke-width="2.0pt" stroke-dasharray="none" points="323.186,294.604 323.186,262.890 "/>
<g>
</g>
</g>
<g id="ID000053" >
      <polyline fill="none" stroke="#bfbfbf" stroke-width="2.0pt" stroke-dasharray="none" points="327.474,289.410 327.474,268.900 "/>
<g>
</g>
</g>
<g id="ID000054" >
      <polyline fill="none" stroke="#bfbfbf" stroke-width="2.0pt" stroke-dasharray="none" points="331.762,284.089 331.762,280.418 "/>
<g>
</g>
</g>
<g id="ID000055" >
      <polyline fill="none" stroke="#bfbfbf" stroke-width="2.0pt" stroke-dasharray="none" points="336.050,295.605 336.050,274.955 "/>
<g>
</g>
</g>
<g id="ID000056" >
      <polyline fill="none" stroke="#bfbfbf" stroke-width="2.0pt" stroke-dasharray="none" points="340.339,293.089 340.339,270.470 "/>
<g>
</g>
</g>
<g id="ID000057" >
      <polyline fill="none" stroke="#bfbfbf" stroke-width="2.0pt" stroke-dasharray="none" points="344.627,294.645 344.627,269.571 "/>
<g>
</g>
</g>
<g id="ID000058" >
      <polyline fill="none" stroke="#bfbfbf" stroke-width="2.0pt" stroke-dasharray="none" points="348.915,302.586 348.915,281.662 "/>
<g>
</g>
</g>
<g id="ID000059" >
      <polyline fill="none" stroke="#bfbfbf" stroke-width="2.0pt" stroke-dasharray="none" points="357.492,288.409 357.492,282.874 "/>
<g>
</g>
</g>
<g id="ID000060" >
      <polyline fill="none" stroke="#bfbfbf" stroke-width="2.0pt" stroke-dasharray="none" points="361.780,297.874 361.780,290.119 "/>
<g>
</g>
</g>
<g id="ID000061" >
      <polyline fill="none" stroke="#bfbfbf" stroke-width="2.0pt" stroke-dasharray="none" points="366.068,301.221 366.068,289.907 "/>
<g>
</g>
</g>
<g id="ID000062" >
      <polyline fill="none" stroke="#bfbfbf" stroke-width="2.0pt" stroke-dasharray="none" points="370.357,305.906 370.357,291.849 "/>
<g>
</g>
</g>
<g id="ID000063" >
      <polyline fill="none" stroke="#bfbfbf" stroke-width="2.0pt" stroke-dasharray="none" points="374.645,301.121 374.645,290.382 "/>
<g>
</g>
</g>
<g id="ID000064" >
      <polyline fill="none" stroke="#bfbfbf" stroke-width="2.0pt" stroke-dasharray="none" points="378.933,302.377 378.933,290.752 "/>
<g>
</g>
</g>
<g id="ID000065" >
      <polyline fill="none" stroke="#bfbfbf" stroke-width="2.0pt" stroke-dasharray="none" points="383.222,301.082 383.222,293.476 "/>
<g>
</g>
</g>
<g id="ID000066" >
      <polyline fill="none" stroke="#bfbfbf" stroke-width="2.0pt" stroke-dasharray="none" points="387.510,294.219 387.510,289.472 "/>
<g>
</g>
</g>
<g id="ID000067" >
      <polyline fill="none" stroke="#bfbfbf" stroke-width="2.0pt" stroke-dasharray="none" points="396.086,299.529 396.086,295.317 "/>
<g>
</g>
</g>
<g id="ID000068" >
      <polyline fill="none" stroke="#bfbfbf" stroke-width="2.0pt" stroke-dasharray="none" points="400.375,305.045 400.375,283.191 "/>
<g>
</g>
</g>
<g id="ID000069" >
      <polyline fill="none" stroke="#bfbfbf" stroke-width="2.0pt" stroke-dasharray="none" points="404.663,310.636 404.663,299.344 "/>
<g>
</g>
</g>
<g id="ID000070" >
      <polyline fill="none" stroke="#bfbfbf" stroke-width="2.0pt" stroke-dasharray="none" points="408.951,319.922 408.951,298.395 "/>
<g>
</g>
</g>
<g id="ID000071" >
      <polyline fill="none" stroke="#bfbfbf" stroke-width="2.0pt" stroke-dasharray="none" points="413.240,309.486 413.240,294.764 "/>
<g>
</g>
</g>
<g id="ID000072" >
      <polyline fill="none" stroke="#bfbfbf" stroke-width="2.0pt" stroke-dasharray="none" points="417.528,309.279 417.528,294.573 "/>
<g>
</g>
</g>
<g id="ID000073" >
      <polyline fill="none" stroke="#bfbfbf" stroke-width="2.0pt" stroke-dasharray="none" points="421.816,314.376 421.816,294.911 "/>
<g>
</g>
</g>
<g id="ID000074" >
      <polyline fill="none" stroke="#bfbfbf" stroke-width="2.0pt" stroke-dasharray="none" points="426.105,325.514 426.105,302.638 "/>
<g>
</g>
</g>
<g id="ID000075" >
      <polyline fill="none" stroke="#bfbfbf" stroke-width="2.0pt" stroke-dasharray="none" points="430.393,312.199 430.393,299.345 "/>
<g>
</g>
</g>
<g id="ID000076" >
      <polyline fill="none" stroke="#bfbfbf" stroke-width="2.0pt" stroke-dasharray="none" points="434.681,312.191 434.681,301.925 "/>
<g>
</g>
</g>
<g id="ID000077" >
      <polyline fill="none" stroke="#bfbfbf" stroke-width="2.0pt" stroke-dasharray="none" points="438.969,317.644 438.969,305.324 "/>
<g>
</g>
</g>
<g id="ID000078" >
      <polyline fill="none" stroke="#bfbfbf" stroke-width="2.0pt" stroke-dasharray="none" points="443.258,333.046 443.258,305.474 "/>
<g>
</g>
</g>
<g id="ID000079" >
      <polyline fill="none" stroke="#bfbfbf" stroke-width="2.0pt" stroke-dasharray="none" points="447.546,317.161 447.546,303.637 "/>
<g>
</g>
</g>
<g id="ID000080" >
      <polyline fill="none" stroke="#bfbfbf" stroke-width="2.0pt" stroke-dasharray="none" points="451.834,318.197 451.834,302.168 "/>
<g>
</g>
</g>
<g id="ID000081" >
      <polyline fill="none" stroke="#bfbfbf" stroke-width="2.0pt" stroke-dasharray="none" points="456.123,317.118 456.123,310.350 "/>
<g>
</g>
</g>
<g id="ID000082" >
      <polyline fill="none" stroke="#bfbfbf" stroke-width="2.0pt" stroke-dasharray="none" points="460.411,323.351 460.411,306.092 "/>
<g>
</g>
</g>
<g id="ID000083" >
      <polyline fill="none" stroke="#bfbfbf" stroke-width="2.0pt" stroke-dasharray="none" points="464.699,314.223 464.699,310.896 "/>
<g>
</g>
</g>
<g id="ID000084" >
      <polyline fill="none" stroke="#bfbfbf" stroke-width="2.0pt" stroke-dasharray="none" points="468.987,311.633 468.987,304.780 "/>
<g>
</g>
</g>
<g id="ID000085" >
      <polyline fill="none" stroke="#bfbfbf" stroke-width="2.0pt" stroke-dasharray="none" points="473.276,313.949 473.276,311.518 "/>
<g>
</g>
</g>
<g id="ID000086" >
      <polyline fill="none" stroke="#bfbfbf" stroke-width="2.0pt" stroke-dasharray="none" points="477.564,316.009 477.564,312.697 "/>
<g>
</g>
</g>
<g id="ID000087" >
      <polyline fill="none" stroke="#bfbfbf" stroke-width="2.0pt" stroke-dasharray="none" points="481.852,338.384 481.852,315.480 "/>
<g>
</g>
</g>
<g id="ID000088" >
      <polyline fill="none" stroke="#bfbfbf" stroke-width="2.0pt" stroke-dasharray="none" points="486.141,330.239 486.141,306.474 "/>
<g>
</g>
</g>
<g id="ID000089" >
      <polyline fill="none" stroke="#bfbfbf" stroke-width="2.0pt" stroke-dasharray="none" points="490.429,326.092 490.429,308.836 "/>
<g>
</g>
</g>
<g id="ID000090" >
      <polyline fill="none" stroke="#bfbfbf" stroke-width="2.0pt" stroke-dasharray="none" points="494.717,329.145 494.717,312.702 "/>
<g>
</g>
</g>
<g id="ID000091" >
      <polyline fill="none" stroke="#bfbfbf" stroke-width="2.0pt" stroke-dasharray="none" points="499.005,322.246 499.005,319.718 "/>
<g>
</g>
</g>
<g id="ID000092" >
      <polyline fill="none" stroke="#bfbfbf" stroke-width="2.0pt" stroke-dasharray="none" points="503.294,323.119 503.294,311.936 "/>
<g>
</g>
</g>
<g id="ID000093" >
      <polyline fill="none" stroke="#bfbfbf" stroke-width="2.0pt" stroke-dasharray="none" points="507.582,325.203 507.582,317.456 "/>
<g>
</g>
</g>
<g id="ID000094" >
      <polyline fill="none" stroke="#bfbfbf" stroke-width="2.0pt" stroke-dasharray="none" points="511.870,345.930 511.870,312.638 "/>
<g>
</g>
</g>
<g id="ID000095" >
      <polyline fill="none" stroke="#bfbfbf" stroke-width="2.0pt" stroke-dasharray="none" points="516.159,330.695 516.159,304.544 "/>
<g>
</g>
</g>
<g id="ID000096" >
      <polyline fill="none" stroke="#bfbfbf" stroke-width="2.0pt" stroke-dasharray="none" points="520.447,333.440 520.447,313.732 "/>
<g>
</g>
</g>
<g id="ID000097" >
      <polyline fill="none" stroke="#bfbfbf" stroke-width="2.0pt" stroke-dasharray="none" points="524.735,331.278 524.735,314.442 "/>
<g>
</g>
</g>
<g id="ID000098" >
      <polyline fill="none" stroke="#bfbfbf" stroke-width="2.0pt" stroke-dasharray="none" points="529.023,337.764 529.023,313.469 "/>
<g>
</g>
</g>
<g id="ID000099" >
      <polyline fill="none" stroke="#bfbfbf" stroke-width="2.0pt" stroke-dasharray="none" points="533.312,327.789 533.312,319.631 "/>
<g>
</g>
</g>
<g id="ID000100" >
      <polyline fill="none" stroke="#bfbfbf" stroke-width="2.0pt" stroke-dasharray="none" points="537.600,334.806 537.600,314.871 "/>
<g>
</g>
</g>
<g id="ID000101" >
  <g transform="translate(299.100,394.100)">
    <g transform="rotate(-0.0)">
      <text x="0.000" y="0.000" font-family="Helvetica" text-anchor="middle" font-size="12pt" fill="#000000" >SNR</text>
    </g>
  </g>
</g>
<g id="ID000102" >
  <g transform="translate(24.100,205.700)">
    <g transform="rotate(-90.0)">
      <text x="0.000" y="0.000" font-family="Helvetica" text-anchor="middle" font-size="12pt" fill="#000000" >causal strength</text>
    </g>
  </g>
</g>
<g id="ID000103" >
</g>
<g id="ID000104" >
      <polyline fill="none" stroke="#000000" stroke-width="2.0pt" stroke-dasharray="none" points="61.600,361.200 61.600,46.200 "/>
<g>
</g>
</g>
<g id="ID000105" >
      <polyline fill="none" stroke="#000000" stroke-width="2.0pt" stroke-dasharray="none" points="61.600,361.200 537.600,361.200 "/>
<g>
</g>
</g>
    </g>
    <g>
      <polyline fill="none" stroke="#000000" stroke-width="2.0pt" stroke-dasharray="none" points="61.600,361.200 61.600,356.440 "/>
      <polyline fill="none" stroke="#000000" stroke-width="2.0pt" stroke-dasharray="none" points="108.771,361.200 108.771,356.440 "/>
      <polyline fill="none" stroke="#000000" stroke-width="2.0pt" stroke-dasharray="none" points="173.095,361.200 173.095,356.440 "/>
      <polyline fill="none" stroke="#000000" stroke-width="2.0pt" stroke-dasharray="none" points="237.420,361.200 237.420,356.440 "/>
      <polyline fill="none" stroke="#000000" stroke-width="2.0pt" stroke-dasharray="none" points="301.744,361.200 301.744,356.440 "/>
      <polyline fill="none" stroke="#000000" stroke-width="2.0pt" stroke-dasharray="none" points="366.068,361.200 366.068,356.440 "/>
      <polyline fill="none" stroke="#000000" stroke-width="2.0pt" stroke-dasharray="none" points="430.393,361.200 430.393,356.440 "/>
      <polyline fill="none" stroke="#000000" stroke-width="2.0pt" stroke-dasharray="none" points="494.717,361.200 494.717,356.440 "/>
      <polyline fill="none" stroke="#000000" stroke-width="2.0pt" stroke-dasharray="none" points="537.600,361.200 537.600,356.440 "/>
      <polyline fill="none" stroke="#000000" stroke-width="2.0pt" stroke-dasharray="none" points="61.600,361.200 537.600,361.200 "/>
  <g transform="translate(61.600,379.300)">
    <g transform="rotate(-0.0)">
      <text x="0.000" y="0.000" font-family="Helvetica" text-anchor="middle" font-size="10pt" fill="#000000" >0.128</text>
    </g>
  </g>
  <g transform="translate(108.771,379.300)">
    <g transform="rotate(-0.0)">
      <text x="0.000" y="0.000" font-family="Helvetica" text-anchor="middle" font-size="10pt" fill="#000000" > 0.15</text>
    </g>
  </g>
  <g transform="translate(173.095,379.300)">
    <g transform="rotate(-0.0)">
      <text x="0.000" y="0.000" font-family="Helvetica" text-anchor="middle" font-size="10pt" fill="#000000" > 0.18</text>
    </g>
  </g>
  <g transform="translate(237.420,379.300)">
    <g transform="rotate(-0.0)">
      <text x="0.000" y="0.000" font-family="Helvetica" text-anchor="middle" font-size="10pt" fill="#000000" > 0.21</text>
    </g>
  </g>
  <g transform="translate(301.744,379.300)">
    <g transform="rotate(-0.0)">
      <text x="0.000" y="0.000" font-family="Helvetica" text-anchor="middle" font-size="10pt" fill="#000000" > 0.24</text>
    </g>
  </g>
  <g transform="translate(366.068,379.300)">
    <g transform="rotate(-0.0)">
      <text x="0.000" y="0.000" font-family="Helvetica" text-anchor="middle" font-size="10pt" fill="#000000" > 0.27</text>
    </g>
  </g>
  <g transform="translate(430.393,379.300)">
    <g transform="rotate(-0.0)">
      <text x="0.000" y="0.000" font-family="Helvetica" text-anchor="middle" font-size="10pt" fill="#000000" >  0.3</text>
    </g>
  </g>
  <g transform="translate(494.717,379.300)">
    <g transform="rotate(-0.0)">
      <text x="0.000" y="0.000" font-family="Helvetica" text-anchor="middle" font-size="10pt" fill="#000000" > 0.33</text>
    </g>
  </g>
  <g transform="translate(537.600,379.300)">
    <g transform="rotate(-0.0)">
      <text x="0.000" y="0.000" font-family="Helvetica" text-anchor="middle" font-size="10pt" fill="#000000" > 0.35</text>
    </g>
  </g>
      <polyline fill="none" stroke="#000000" stroke-width="2.0pt" stroke-dasharray="none" points="61.600,361.200 66.360,361.200 "/>
      <polyline fill="none" stroke="#000000" stroke-width="2.0pt" stroke-dasharray="none" points="61.600,308.700 66.360,308.700 "/>
      <polyline fill="none" stroke="#000000" stroke-width="2.0pt" stroke-dasharray="none" points="61.600,256.200 66.360,256.200 "/>
      <polyline fill="none" stroke="#000000" stroke-width="2.0pt" stroke-dasharray="none" points="61.600,203.700 66.360,203.700 "/>
      <polyline fill="none" stroke="#000000" stroke-width="2.0pt" stroke-dasharray="none" points="61.600,151.200 66.360,151.200 "/>
      <polyline fill="none" stroke="#000000" stroke-width="2.0pt" stroke-dasharray="none" points="61.600,98.700 66.360,98.700 "/>
      <polyline fill="none" stroke="#000000" stroke-width="2.0pt" stroke-dasharray="none" points="61.600,46.200 66.360,46.200 "/>
      <polyline fill="none" stroke="#000000" stroke-width="2.0pt" stroke-dasharray="none" points="61.600,361.200 61.600,46.200 "/>
  <g transform="translate(52.080,365.700)">
    <g transform="rotate(-0.0)">
      <text x="0.000" y="0.000" font-family="Helvetica" text-anchor="end" font-size="10pt" fill="#000000" >0.2</text>
    </g>
  </g>
  <g transform="translate(52.080,313.200)">
    <g transform="rotate(-0.0)">
      <text x="0.000" y="0.000" font-family="Helvetica" text-anchor="end" font-size="10pt" fill="#000000" >0.3</text>
    </g>
  </g>
  <g transform="translate(52.080,260.700)">
    <g transform="rotate(-0.0)">
      <text x="0.000" y="0.000" font-family="Helvetica" text-anchor="end" font-size="10pt" fill="#000000" >0.4</text>
    </g>
  </g>
  <g transform="translate(52.080,208.200)">
    <g transform="rotate(-0.0)">
      <text x="0.000" y="0.000" font-family="Helvetica" text-anchor="end" font-size="10pt" fill="#000000" >0.5</text>
    </g>
  </g>
  <g transform="translate(52.080,155.700)">
    <g transform="rotate(-0.0)">
      <text x="0.000" y="0.000" font-family="Helvetica" text-anchor="end" font-size="10pt" fill="#000000" >0.6</text>
    </g>
  </g>
  <g transform="translate(52.080,103.200)">
    <g transform="rotate(-0.0)">
      <text x="0.000" y="0.000" font-family="Helvetica" text-anchor="end" font-size="10pt" fill="#000000" >0.7</text>
    </g>
  </g>
  <g transform="translate(52.080,50.700)">
    <g transform="rotate(-0.0)">
      <text x="0.000" y="0.000" font-family="Helvetica" text-anchor="end" font-size="10pt" fill="#000000" >0.8</text>
    </g>
  </g>
      <polyline fill="none" stroke="#000000" stroke-width="2.0pt" stroke-dasharray="none" points="61.600,361.200 61.600,358.050 "/>
      <polyline fill="none" stroke="#000000" stroke-width="2.0pt" stroke-dasharray="none" points="61.600,361.200 61.600,358.050 "/>
      <polyline fill="none" stroke="#000000" stroke-width="2.0pt" stroke-dasharray="none" points="61.600,361.200 61.600,358.050 "/>
      <polyline fill="none" stroke="#000000" stroke-width="2.0pt" stroke-dasharray="none" points="61.600,361.200 61.600,361.200 "/>
    </g>
  </g>
  </g>
</svg>
