<?xml version="1.0" encoding="utf-8" standalone="no"?><!DOCTYPE svg PUBLIC "-//W3C//DTD SVG 1.1//EN" "http://www.w3.org/Graphics/SVG/1.1/DTD/svg11.dtd">
<svg preserveAspectRatio="xMinYMin meet" width="100%" height="100%" viewBox="0 0 400.000 300.000"  version="1.1" xmlns="http://www.w3.org/2000/svg" xmlns:xlink="http://www.w3.org/1999/xlink">
  <desc>Matlab Figure Converted by PLOT2SVG written by Juerg Schwizer</desc>
  <g id="topgroup">
  <rect x="0" y="0" width="400.000" height="300.000" fill="#ffffff" stroke="none" />
  <g id ="ID000000">
  <clipPath id="ID000001">
    <rect x="44.000" y="33.000" width="340.000" height="225.000"/>
  </clipPath>
      <polygon fill="#ffffff" fill-opacity="1.00" stroke="none" stroke-width="2.0pt" stroke-opacity="1.00" stroke-dasharray="none" points="44.000,258.000 384.000,258.000 384.000,33.000 44.000,33.000 "/>
      <polygon fill="#ffffff" fill-opacity="1.00" stroke="none" stroke-width="2.0pt" stroke-opacity="1.00" stroke-dasharray="none" points="44.000,33.000 384.000,33.000 384.000,33.000 44.000,33.000 "/>
      <polygon fill="#ffffff" fill-opacity="1.00" stroke="none" stroke-width="2.0pt" stroke-opacity="1.00" stroke-dasharray="none" points="44.000,258.000 44.000,258.000 44.000,33.000 44.000,33.000 "/>
    <g>
<g id="ID000002" clip-path="url(#ID000001)" >
      <polyline fill="none" stroke="#00007f" stroke-width="3.0pt" stroke-dasharray="none" points="44.000,103.012 48.857,91.875 53.714,103.005 58.571,119.644 63.429,116.946 68.286,121.542 73.143,138.603 78.000,137.153 82.857,155.641 87.714,134.932 92.571,124.525 97.429,107.207 102.286,124.905 107.143,124.291 112.000,143.779 116.857,156.529 121.714,141.651 126.571,148.371 131.429,117.486 136.286,138.964 141.143,133.381 146.000,122.107 150.857,172.899 155.714,149.916 160.571,163.022 165.429,132.905 170.286,163.484 175.143,124.364 180.000,123.474 184.857,146.743 189.714,135.669 194.571,116.259 199.429,129.083 204.286,168.717 209.143,189.943 214.000,139.600 218.857,132.044 223.714,111.171 228.571,120.351 233.429,132.589 238.286,133.950 243.143,140.186 248.000,170.229 252.857,117.248 257.714,127.270 262.571,136.483 267.429,112.938 272.286,130.266 277.143,114.074 282.000,128.716 286.857,143.771 291.714,106.361 296.571,134.511 301.429,121.107 306.286,135.039 311.143,119.036 316.000,129.951 320.857,126.294 325.714,126.558 330.571,143.115 335.429,99.016 340.286,72.452 345.143,116.707 350.000,98.504 354.857,82.138 359.714,70.860 364.571,93.522 369.429,99.720 374.286,105.786 379.143,103.362 384.000,94.776 "/>
<g>
</g>
</g>
<g id="ID000003" >
      <polyline fill="none" stroke="#00007f" stroke-width="1.0pt" stroke-dasharray="none" points="44.000,139.578 44.000,66.445 "/>
<g>
</g>
</g>
<g id="ID000004" >
      <polyline fill="none" stroke="#00007f" stroke-width="1.0pt" stroke-dasharray="none" points="48.857,131.228 48.857,52.521 "/>
<g>
</g>
</g>
<g id="ID000005" >
      <polyline fill="none" stroke="#00007f" stroke-width="1.0pt" stroke-dasharray="none" points="53.714,132.079 53.714,73.932 "/>
<g>
</g>
</g>
<g id="ID000006" >
      <polyline fill="none" stroke="#00007f" stroke-width="1.0pt" stroke-dasharray="none" points="58.571,149.178 58.571,90.110 "/>
<g>
</g>
</g>
<g id="ID000007" >
      <polyline fill="none" stroke="#00007f" stroke-width="1.0pt" stroke-dasharray="none" points="63.429,148.560 63.429,85.333 "/>
<g>
</g>
</g>
<g id="ID000008" >
      <polyline fill="none" stroke="#00007f" stroke-width="1.0pt" stroke-dasharray="none" points="68.286,156.655 68.286,86.429 "/>
<g>
</g>
</g>
<g id="ID000009" >
      <polyline fill="none" stroke="#00007f" stroke-width="1.0pt" stroke-dasharray="none" points="73.143,176.520 73.143,100.686 "/>
<g>
</g>
</g>
<g id="ID000010" >
      <polyline fill="none" stroke="#00007f" stroke-width="1.0pt" stroke-dasharray="none" points="78.000,171.930 78.000,102.376 "/>
<g>
</g>
</g>
<g id="ID000011" >
      <polyline fill="none" stroke="#00007f" stroke-width="1.0pt" stroke-dasharray="none" points="82.857,190.181 82.857,121.102 "/>
<g>
</g>
</g>
<g id="ID000012" >
      <polyline fill="none" stroke="#00007f" stroke-width="1.0pt" stroke-dasharray="none" points="87.714,174.622 87.714,95.242 "/>
<g>
</g>
</g>
<g id="ID000013" >
      <polyline fill="none" stroke="#00007f" stroke-width="1.0pt" stroke-dasharray="none" points="92.571,166.069 92.571,82.981 "/>
<g>
</g>
</g>
<g id="ID000014" >
      <polyline fill="none" stroke="#00007f" stroke-width="1.0pt" stroke-dasharray="none" points="97.429,145.637 97.429,68.777 "/>
<g>
</g>
</g>
<g id="ID000015" >
      <polyline fill="none" stroke="#00007f" stroke-width="1.0pt" stroke-dasharray="none" points="102.286,162.494 102.286,87.315 "/>
<g>
</g>
</g>
<g id="ID000016" >
      <polyline fill="none" stroke="#00007f" stroke-width="1.0pt" stroke-dasharray="none" points="107.143,162.697 107.143,85.885 "/>
<g>
</g>
</g>
<g id="ID000017" >
      <polyline fill="none" stroke="#00007f" stroke-width="1.0pt" stroke-dasharray="none" points="112.000,177.733 112.000,109.825 "/>
<g>
</g>
</g>
<g id="ID000018" >
      <polyline fill="none" stroke="#00007f" stroke-width="1.0pt" stroke-dasharray="none" points="116.857,193.947 116.857,119.111 "/>
<g>
</g>
</g>
<g id="ID000019" >
      <polyline fill="none" stroke="#00007f" stroke-width="1.0pt" stroke-dasharray="none" points="121.714,179.473 121.714,103.828 "/>
<g>
</g>
</g>
<g id="ID000020" >
      <polyline fill="none" stroke="#00007f" stroke-width="1.0pt" stroke-dasharray="none" points="126.571,176.369 126.571,120.373 "/>
<g>
</g>
</g>
<g id="ID000021" >
      <polyline fill="none" stroke="#00007f" stroke-width="1.0pt" stroke-dasharray="none" points="131.429,155.286 131.429,79.687 "/>
<g>
</g>
</g>
<g id="ID000022" >
      <polyline fill="none" stroke="#00007f" stroke-width="1.0pt" stroke-dasharray="none" points="136.286,174.316 136.286,103.611 "/>
<g>
</g>
</g>
<g id="ID000023" >
      <polyline fill="none" stroke="#00007f" stroke-width="1.0pt" stroke-dasharray="none" points="141.143,178.165 141.143,88.597 "/>
<g>
</g>
</g>
<g id="ID000024" >
      <polyline fill="none" stroke="#00007f" stroke-width="1.0pt" stroke-dasharray="none" points="146.000,158.291 146.000,85.924 "/>
<g>
</g>
</g>
<g id="ID000025" >
      <polyline fill="none" stroke="#00007f" stroke-width="1.0pt" stroke-dasharray="none" points="150.857,211.602 150.857,134.197 "/>
<g>
</g>
</g>
<g id="ID000026" >
      <polyline fill="none" stroke="#00007f" stroke-width="1.0pt" stroke-dasharray="none" points="155.714,188.128 155.714,111.704 "/>
<g>
</g>
</g>
<g id="ID000027" >
      <polyline fill="none" stroke="#00007f" stroke-width="1.0pt" stroke-dasharray="none" points="160.571,200.211 160.571,125.832 "/>
<g>
</g>
</g>
<g id="ID000028" >
      <polyline fill="none" stroke="#00007f" stroke-width="1.0pt" stroke-dasharray="none" points="165.429,167.560 165.429,98.249 "/>
<g>
</g>
</g>
<g id="ID000029" >
      <polyline fill="none" stroke="#00007f" stroke-width="1.0pt" stroke-dasharray="none" points="170.286,208.035 170.286,118.933 "/>
<g>
</g>
</g>
<g id="ID000030" >
      <polyline fill="none" stroke="#00007f" stroke-width="1.0pt" stroke-dasharray="none" points="175.143,152.410 175.143,96.318 "/>
<g>
</g>
</g>
<g id="ID000031" >
      <polyline fill="none" stroke="#00007f" stroke-width="1.0pt" stroke-dasharray="none" points="180.000,155.794 180.000,91.153 "/>
<g>
</g>
</g>
<g id="ID000032" >
      <polyline fill="none" stroke="#00007f" stroke-width="1.0pt" stroke-dasharray="none" points="184.857,180.375 184.857,113.111 "/>
<g>
</g>
</g>
<g id="ID000033" >
      <polyline fill="none" stroke="#00007f" stroke-width="1.0pt" stroke-dasharray="none" points="189.714,169.745 189.714,101.593 "/>
<g>
</g>
</g>
<g id="ID000034" >
      <polyline fill="none" stroke="#00007f" stroke-width="1.0pt" stroke-dasharray="none" points="194.571,149.469 194.571,83.048 "/>
<g>
</g>
</g>
<g id="ID000035" >
      <polyline fill="none" stroke="#00007f" stroke-width="1.0pt" stroke-dasharray="none" points="199.429,163.227 199.429,94.940 "/>
<g>
</g>
</g>
<g id="ID000036" >
      <polyline fill="none" stroke="#00007f" stroke-width="1.0pt" stroke-dasharray="none" points="204.286,207.756 204.286,129.679 "/>
<g>
</g>
</g>
<g id="ID000037" >
      <polyline fill="none" stroke="#00007f" stroke-width="1.0pt" stroke-dasharray="none" points="209.143,234.255 209.143,145.631 "/>
<g>
</g>
</g>
<g id="ID000038" >
      <polyline fill="none" stroke="#00007f" stroke-width="1.0pt" stroke-dasharray="none" points="214.000,176.726 214.000,102.473 "/>
<g>
</g>
</g>
<g id="ID000039" >
      <polyline fill="none" stroke="#00007f" stroke-width="1.0pt" stroke-dasharray="none" points="218.857,171.600 218.857,92.489 "/>
<g>
</g>
</g>
<g id="ID000040" >
      <polyline fill="none" stroke="#00007f" stroke-width="1.0pt" stroke-dasharray="none" points="223.714,148.707 223.714,73.635 "/>
<g>
</g>
</g>
<g id="ID000041" >
      <polyline fill="none" stroke="#00007f" stroke-width="1.0pt" stroke-dasharray="none" points="228.571,149.928 228.571,90.774 "/>
<g>
</g>
</g>
<g id="ID000042" >
      <polyline fill="none" stroke="#00007f" stroke-width="1.0pt" stroke-dasharray="none" points="233.429,165.571 233.429,99.608 "/>
<g>
</g>
</g>
<g id="ID000043" >
      <polyline fill="none" stroke="#00007f" stroke-width="1.0pt" stroke-dasharray="none" points="238.286,167.943 238.286,99.957 "/>
<g>
</g>
</g>
<g id="ID000044" >
      <polyline fill="none" stroke="#00007f" stroke-width="1.0pt" stroke-dasharray="none" points="243.143,177.384 243.143,102.989 "/>
<g>
</g>
</g>
<g id="ID000045" >
      <polyline fill="none" stroke="#00007f" stroke-width="1.0pt" stroke-dasharray="none" points="248.000,203.523 248.000,136.935 "/>
<g>
</g>
</g>
<g id="ID000046" >
      <polyline fill="none" stroke="#00007f" stroke-width="1.0pt" stroke-dasharray="none" points="252.857,155.232 252.857,79.265 "/>
<g>
</g>
</g>
<g id="ID000047" >
      <polyline fill="none" stroke="#00007f" stroke-width="1.0pt" stroke-dasharray="none" points="257.714,166.087 257.714,88.453 "/>
<g>
</g>
</g>
<g id="ID000048" >
      <polyline fill="none" stroke="#00007f" stroke-width="1.0pt" stroke-dasharray="none" points="262.571,183.351 262.571,89.614 "/>
<g>
</g>
</g>
<g id="ID000049" >
      <polyline fill="none" stroke="#00007f" stroke-width="1.0pt" stroke-dasharray="none" points="267.429,146.941 267.429,78.936 "/>
<g>
</g>
</g>
<g id="ID000050" >
      <polyline fill="none" stroke="#00007f" stroke-width="1.0pt" stroke-dasharray="none" points="272.286,165.598 272.286,94.934 "/>
<g>
</g>
</g>
<g id="ID000051" >
      <polyline fill="none" stroke="#00007f" stroke-width="1.0pt" stroke-dasharray="none" points="277.143,147.926 277.143,80.222 "/>
<g>
</g>
</g>
<g id="ID000052" >
      <polyline fill="none" stroke="#00007f" stroke-width="1.0pt" stroke-dasharray="none" points="282.000,165.638 282.000,91.794 "/>
<g>
</g>
</g>
<g id="ID000053" >
      <polyline fill="none" stroke="#00007f" stroke-width="1.0pt" stroke-dasharray="none" points="286.857,184.807 286.857,102.735 "/>
<g>
</g>
</g>
<g id="ID000054" >
      <polyline fill="none" stroke="#00007f" stroke-width="1.0pt" stroke-dasharray="none" points="291.714,142.081 291.714,70.642 "/>
<g>
</g>
</g>
<g id="ID000055" >
      <polyline fill="none" stroke="#00007f" stroke-width="1.0pt" stroke-dasharray="none" points="296.571,169.215 296.571,99.806 "/>
<g>
</g>
</g>
<g id="ID000056" >
      <polyline fill="none" stroke="#00007f" stroke-width="1.0pt" stroke-dasharray="none" points="301.429,151.073 301.429,91.142 "/>
<g>
</g>
</g>
<g id="ID000057" >
      <polyline fill="none" stroke="#00007f" stroke-width="1.0pt" stroke-dasharray="none" points="306.286,167.990 306.286,102.087 "/>
<g>
</g>
</g>
<g id="ID000058" >
      <polyline fill="none" stroke="#00007f" stroke-width="1.0pt" stroke-dasharray="none" points="311.143,158.750 311.143,79.322 "/>
<g>
</g>
</g>
<g id="ID000059" >
      <polyline fill="none" stroke="#00007f" stroke-width="1.0pt" stroke-dasharray="none" points="316.000,158.745 316.000,101.157 "/>
<g>
</g>
</g>
<g id="ID000060" >
      <polyline fill="none" stroke="#00007f" stroke-width="1.0pt" stroke-dasharray="none" points="320.857,166.745 320.857,85.843 "/>
<g>
</g>
</g>
<g id="ID000061" >
      <polyline fill="none" stroke="#00007f" stroke-width="1.0pt" stroke-dasharray="none" points="325.714,160.345 325.714,92.771 "/>
<g>
</g>
</g>
<g id="ID000062" >
      <polyline fill="none" stroke="#00007f" stroke-width="1.0pt" stroke-dasharray="none" points="330.571,172.065 330.571,114.165 "/>
<g>
</g>
</g>
<g id="ID000063" >
      <polyline fill="none" stroke="#00007f" stroke-width="1.0pt" stroke-dasharray="none" points="335.429,131.849 335.429,66.184 "/>
<g>
</g>
</g>
<g id="ID000064" >
      <polyline fill="none" stroke="#00007f" stroke-width="1.0pt" stroke-dasharray="none" points="340.286,103.155 340.286,41.748 "/>
<g>
</g>
</g>
<g id="ID000065" >
      <polyline fill="none" stroke="#00007f" stroke-width="1.0pt" stroke-dasharray="none" points="345.143,159.840 345.143,73.575 "/>
<g>
</g>
</g>
<g id="ID000066" >
      <polyline fill="none" stroke="#00007f" stroke-width="1.0pt" stroke-dasharray="none" points="350.000,132.445 350.000,64.563 "/>
<g>
</g>
</g>
<g id="ID000067" >
      <polyline fill="none" stroke="#00007f" stroke-width="1.0pt" stroke-dasharray="none" points="354.857,109.814 354.857,54.461 "/>
<g>
</g>
</g>
<g id="ID000068" >
      <polyline fill="none" stroke="#00007f" stroke-width="1.0pt" stroke-dasharray="none" points="359.714,106.434 359.714,35.286 "/>
<g>
</g>
</g>
<g id="ID000069" >
      <polyline fill="none" stroke="#00007f" stroke-width="1.0pt" stroke-dasharray="none" points="364.571,136.222 364.571,50.822 "/>
<g>
</g>
</g>
<g id="ID000070" >
      <polyline fill="none" stroke="#00007f" stroke-width="1.0pt" stroke-dasharray="none" points="369.429,134.815 369.429,64.625 "/>
<g>
</g>
</g>
<g id="ID000071" >
      <polyline fill="none" stroke="#00007f" stroke-width="1.0pt" stroke-dasharray="none" points="374.286,140.503 374.286,71.069 "/>
<g>
</g>
</g>
<g id="ID000072" >
      <polyline fill="none" stroke="#00007f" stroke-width="1.0pt" stroke-dasharray="none" points="379.143,141.540 379.143,65.184 "/>
<g>
</g>
</g>
<g id="ID000073" >
      <polyline fill="none" stroke="#00007f" stroke-width="1.0pt" stroke-dasharray="none" points="384.000,134.592 384.000,54.961 "/>
<g>
</g>
</g>
<g id="ID000074" >
  <g transform="translate(213.500,291.900)">
    <g transform="rotate(-0.0)">
      <text x="0.000" y="0.000" font-family="Helvetica" text-anchor="middle" font-size="12pt" fill="#000000" >window start (s)</text>
    </g>
  </g>
</g>
<g id="ID000075" >
  <g transform="translate(19.214,146.929)">
    <g transform="rotate(-90.0)">
      <text x="0.000" y="0.000" font-family="Helvetica" text-anchor="middle" font-size="12pt" fill="#000000" >accuracy (%)</text>
    </g>
  </g>
</g>
<g id="ID000076" >
</g>
<g id="ID000077" >
      <polyline fill="none" stroke="#000000" stroke-width="2.0pt" stroke-dasharray="none" points="44.000,258.000 44.000,33.000 "/>
<g>
</g>
</g>
<g id="ID000078" >
      <polyline fill="none" stroke="#000000" stroke-width="2.0pt" stroke-dasharray="none" points="44.000,258.000 384.000,258.000 "/>
<g>
</g>
</g>
    </g>
    <g>
      <polyline fill="none" stroke="#000000" stroke-width="2.0pt" stroke-dasharray="none" points="44.000,258.000 44.000,254.600 "/>
      <polyline fill="none" stroke="#000000" stroke-width="2.0pt" stroke-dasharray="none" points="92.571,258.000 92.571,254.600 "/>
      <polyline fill="none" stroke="#000000" stroke-width="2.0pt" stroke-dasharray="none" points="141.143,258.000 141.143,254.600 "/>
      <polyline fill="none" stroke="#000000" stroke-width="2.0pt" stroke-dasharray="none" points="189.714,258.000 189.714,254.600 "/>
      <polyline fill="none" stroke="#000000" stroke-width="2.0pt" stroke-dasharray="none" points="238.286,258.000 238.286,254.600 "/>
      <polyline fill="none" stroke="#000000" stroke-width="2.0pt" stroke-dasharray="none" points="286.857,258.000 286.857,254.600 "/>
      <polyline fill="none" stroke="#000000" stroke-width="2.0pt" stroke-dasharray="none" points="335.429,258.000 335.429,254.600 "/>
      <polyline fill="none" stroke="#000000" stroke-width="2.0pt" stroke-dasharray="none" points="384.000,258.000 384.000,254.600 "/>
      <polyline fill="none" stroke="#000000" stroke-width="2.0pt" stroke-dasharray="none" points="44.000,258.000 384.000,258.000 "/>
  <g transform="translate(44.000,274.300)">
    <g transform="rotate(-0.0)">
      <text x="0.000" y="0.000" font-family="Helvetica" text-anchor="middle" font-size="10pt" fill="#000000" >  -3</text>
    </g>
  </g>
  <g transform="translate(92.571,274.300)">
    <g transform="rotate(-0.0)">
      <text x="0.000" y="0.000" font-family="Helvetica" text-anchor="middle" font-size="10pt" fill="#000000" >-2.5</text>
    </g>
  </g>
  <g transform="translate(141.143,274.300)">
    <g transform="rotate(-0.0)">
      <text x="0.000" y="0.000" font-family="Helvetica" text-anchor="middle" font-size="10pt" fill="#000000" >  -2</text>
    </g>
  </g>
  <g transform="translate(189.714,274.300)">
    <g transform="rotate(-0.0)">
      <text x="0.000" y="0.000" font-family="Helvetica" text-anchor="middle" font-size="10pt" fill="#000000" >-1.5</text>
    </g>
  </g>
  <g transform="translate(238.286,274.300)">
    <g transform="rotate(-0.0)">
      <text x="0.000" y="0.000" font-family="Helvetica" text-anchor="middle" font-size="10pt" fill="#000000" >  -1</text>
    </g>
  </g>
  <g transform="translate(286.857,274.300)">
    <g transform="rotate(-0.0)">
      <text x="0.000" y="0.000" font-family="Helvetica" text-anchor="middle" font-size="10pt" fill="#000000" >-0.5</text>
    </g>
  </g>
  <g transform="translate(335.429,274.300)">
    <g transform="rotate(-0.0)">
      <text x="0.000" y="0.000" font-family="Helvetica" text-anchor="middle" font-size="10pt" fill="#000000" >   0</text>
    </g>
  </g>
  <g transform="translate(384.000,274.300)">
    <g transform="rotate(-0.0)">
      <text x="0.000" y="0.000" font-family="Helvetica" text-anchor="middle" font-size="10pt" fill="#000000" > 0.5</text>
    </g>
  </g>
      <polyline fill="none" stroke="#000000" stroke-width="2.0pt" stroke-dasharray="none" points="44.000,258.000 47.400,258.000 "/>
      <polyline fill="none" stroke="#000000" stroke-width="2.0pt" stroke-dasharray="none" points="44.000,183.000 47.400,183.000 "/>
      <polyline fill="none" stroke="#000000" stroke-width="2.0pt" stroke-dasharray="none" points="44.000,108.000 47.400,108.000 "/>
      <polyline fill="none" stroke="#000000" stroke-width="2.0pt" stroke-dasharray="none" points="44.000,33.000 47.400,33.000 "/>
      <polyline fill="none" stroke="#000000" stroke-width="2.0pt" stroke-dasharray="none" points="44.000,258.000 44.000,33.000 "/>
  <g transform="translate(37.200,262.500)">
    <g transform="rotate(-0.0)">
      <text x="0.000" y="0.000" font-family="Helvetica" text-anchor="end" font-size="10pt" fill="#000000" >30</text>
    </g>
  </g>
  <g transform="translate(37.200,187.500)">
    <g transform="rotate(-0.0)">
      <text x="0.000" y="0.000" font-family="Helvetica" text-anchor="end" font-size="10pt" fill="#000000" >35</text>
    </g>
  </g>
  <g transform="translate(37.200,112.500)">
    <g transform="rotate(-0.0)">
      <text x="0.000" y="0.000" font-family="Helvetica" text-anchor="end" font-size="10pt" fill="#000000" >40</text>
    </g>
  </g>
  <g transform="translate(37.200,37.500)">
    <g transform="rotate(-0.0)">
      <text x="0.000" y="0.000" font-family="Helvetica" text-anchor="end" font-size="10pt" fill="#000000" >45</text>
    </g>
  </g>
      <polyline fill="none" stroke="#000000" stroke-width="2.0pt" stroke-dasharray="none" points="44.000,258.000 44.000,255.750 "/>
      <polyline fill="none" stroke="#000000" stroke-width="2.0pt" stroke-dasharray="none" points="44.000,258.000 44.000,255.750 "/>
      <polyline fill="none" stroke="#000000" stroke-width="2.0pt" stroke-dasharray="none" points="44.000,258.000 44.000,255.750 "/>
      <polyline fill="none" stroke="#000000" stroke-width="2.0pt" stroke-dasharray="none" points="44.000,258.000 44.000,258.000 "/>
    </g>
  </g>
  </g>
</svg>
